<svg xmlns="http://www.w3.org/2000/svg" viewBox="0 0 260 580">
  <g id="edd8e3a8-0f32-4e51-8ac6-697b843821fb" data-name="レイヤー 2">
    <g id="bfe9131b-af98-461c-a0b4-bfa3474ddc0c" data-name="レイヤー 4">
      <g>
        <polygon points="0 0 0 263.636 0 316.364 0 421.818 0 474.545 0 580 104 580 260 580 260 421.818 260 263.636 260 0 0 0" fill="#222"/>
        <g>
          <path d="M200.47864,237.58548a2.29009,2.29009,0,0,0-.98782-1.97968,19.45322,19.45322,0,0,0-4.27364-1.98675c-2.23109-.60575-4.52367-1.01192-6.76-1.55232a57.6687,57.6687,0,0,0-7.98376-.92715c-3.30868-.32847-6.64729-.27019-9.96483-.59691-3.3791-.332-6.78812-.11125-10.17074-.48741-2.89667-.32141-5.8144-.47506-8.70049-.87416a48.36371,48.36371,0,0,1-5.45517-1.25564,11.00165,11.00165,0,0,1-4.36873-1.62824c-.46128-.36557-.67615-.74173-.06337-1.0755,1.07587-.58631,1.87712-1.879,3.432-1.3192a2.30657,2.30657,0,0,0,1.20088-.18543,72.21025,72.21025,0,0,1,10.32921-1.99028c3.19072-.39381,6.38676-.66578,9.595-.77351,1.81194-.0618,3.66791.31611,5.42345.13776,3.36328-.34438,6.63679.16952,9.95072.33376,1.47559.07241,2.84731.6958,4.3229.6181a22.25169,22.25169,0,0,1,4.17854.42208c1.326.18013,1.38058.24724,2.00918-1.03488a52.08529,52.08529,0,0,0,3.53585-10.80261c.59343-2.44944.884-4.97129,1.3823-7.43663.66557-3.28652.82936-6.619,1.32417-9.91608.618-4.12537.58458-8.30726.80822-12.46442.28528-5.28386.2888-10.57657.28528-15.86926a38.28238,38.28238,0,0,1,.162-6.15627,5.86048,5.86048,0,0,0-.01238-2.53951c-.6022-1.67241-.36971-3.366-.54055-5.02957-.39267-3.84459-.39792-7.72978-1.16744-11.539-.42792-2.11215-.52121-4.2755-1.37173-6.32052a14.05721,14.05721,0,0,0-6.02745-6.649c-4.131-2.4971-8.87305-3.0905-13.50763-3.86929-3.96548-.66578-8.00138-.87416-11.96515-1.5947-1.77144-.32319-1.9563-.75055-1.75906-2.52362.15846-1.42869,1.25023-2.20927,1.84891-3.32009a2.95032,2.95032,0,0,1,1.52486-1.37216,33.00741,33.00741,0,0,1,6.59449-2.17747,48.93014,48.93014,0,0,1,9.18825-.97483,29.52016,29.52016,0,0,0,10.53883-1.819,9.9001,9.9001,0,0,0,5.97991-5.97616,6.05444,6.05444,0,0,0-.30644-5.60351,33.52833,33.52833,0,0,0-5.3513-6.93859,21.07519,21.07519,0,0,0-9.00684-4.81412,9.94715,9.94715,0,0,0-2.018-.5351,75.05809,75.05809,0,0,0-10.52653-.007,57.96919,57.96919,0,0,0-11.95982,2.54832,62.00592,62.00592,0,0,0-6.12426,2.02914,14.2134,14.2134,0,0,1-3.03226,1.29449c-1.9422.29667-3.56576,1.38628-5.35655,2.04148-3.0921,1.13024-6.00983,2.7426-8.99626,4.15891-3.4196,1.6212-6.82509,3.27064-10.25355,4.87064a6.726,6.726,0,0,1-5.92359-.11654c-1.84711-.86536-3.594-1.94085-5.37237-2.928a22.77331,22.77331,0,0,0-6.54342-2.29226c-1.819-.37969-3.77177-.81943-5.56256-.28786-1.38059.41147-2.7769.3214-4.131.67991a1.27889,1.27889,0,0,1-1.62175-.71171c-1.02308-2.21985-2.83855-3.86047-4.25429-5.79425a2.55545,2.55545,0,0,0-.83822-.88651c-1.92458-.8318-3.23646-2.65254-5.32835-3.22649-1.62356-.445-3.1326-1.321-4.87232-1.34392-1.289-.01591-2.58146.03531-3.87039-.00884-2.92306-.10242-4.66811,1.796-6.38848,3.73686a3.04413,3.04413,0,0,0-.34513.79647c-1.46148,3.32714-.78706,6.66134.45965,9.76068a38.897,38.897,0,0,0,3.85449,7.66444c.79944,1.15848.78714,1.358-.37857,2.11036a42.62512,42.62512,0,0,1-6.32332,3.73509,82.28812,82.28812,0,0,0-8.41168,3.80925,32.75118,32.75118,0,0,0-4.27716,3.32362,1.37971,1.37971,0,0,0-.52645,1.577c1.01069,2.77968,1.10054,5.86487,2.78214,8.42911a2.81255,2.81255,0,0,1,.48957,1.30861c.058,1.06667.75894,1.83311,1.134,2.74611a1.415,1.415,0,0,0,1.51608.96072c.40677-.02826.81879.023,1.22909.03533a21.96709,21.96709,0,0,0,9.1671-1.71478,8.24545,8.24545,0,0,1,3.92679-.80177,3.32585,3.32585,0,0,1,3.05685,2.89976c.00877,2.61722-1.07415,5.44282-4.34586,5.86664a3.397,3.397,0,0,0-1.23786.54218,17.61733,17.61733,0,0,1-5.16464,1.52582,24.84641,24.84641,0,0,0-5.75456,1.95672,6.41358,6.41358,0,0,0-2.85436,7.88519,9.27044,9.27044,0,0,0,5.1858,5.61234,34.2952,34.2952,0,0,0,6.28625,2.10685c1.89294.35143,3.75776.8724,5.61011,1.4022.70615.20132,1.58478.45562,1.68521,1.358.22716,2.04151.36447,4.083-.854,5.94613a6.67552,6.67552,0,0,1-4.14329,2.71963,75.43588,75.43588,0,0,1-7.66684,1.70419,6.51573,6.51573,0,0,0-5.54854,4.94127,6.01876,6.01876,0,0,0,.18494,4.93773c.94561,1.58057,1.95983,3.20882,3.91613,3.85694a4.84621,4.84621,0,0,1,1.39287,1.05254c.22011.18719.37152.46269.6973.49095,2.00738.17306,3.71013,1.3969,5.68758,1.66534a4.09853,4.09853,0,0,1,2.51629,1.11963c.803.81943,1.86482-.19956,2.74345.39206,1.29778.87064,2.91773,1.238,3.91974,2.58189.50711.68167,1.0125,1.27681.37324,2.18808a2.34668,2.34668,0,0,1-2.6536,1.20087c-1.77669-.56689-3.54461-1.14613-5.37418-1.54348-1.66578-.362-2.3525.17483-2.09189,1.79955a22.5449,22.5449,0,0,1-.05632,8.03706,62.99949,62.99949,0,0,1-2.652,8.12536c-1.10579,3.2618-3.02512,6.1863-3.88973,9.577-.75362,2.95451-1.6693,5.82249-1.49846,8.95714a23.17986,23.17986,0,0,0,3.719,10.84324,23.69081,23.69081,0,0,0,2.70115,3.45958,33.72962,33.72962,0,0,0,9.91719,8.15539,38.48637,38.48637,0,0,0,8.68114,3.52493c3.02692.67991,6.02212.9554,8.95223-.27019,3.18015-1.3298,5.15055-3.8905,6.62794-6.8927a35.0212,35.0212,0,0,1,5.6911-9.01719,2.15794,2.15794,0,0,1,2.61491-.70993c1.74325.66578,3.50584,1.30154,5.29843,1.81545,3.07448.87946,6.20183,1.5788,9.26392,2.49888,2.56917.77174,5.16293,1.53113,7.76545,2.068,3.76481.7788,7.48723,1.75894,11.2731,2.43355,4.30355.76644,8.57719,1.70949,12.916,2.26577,3.0657.39206,6.1032.93245,9.1953,1.192,3.09029.25784,6.16477.54923,9.71118.5298a42.84314,42.84314,0,0,0,8.14575-.37439,26.58483,26.58483,0,0,0,9.37844-3.27239,10.79589,10.79589,0,0,0,4.3775-4.7841C200.95935,244.09319,200.72162,240.8155,200.47864,237.58548Zm-29.29037-69.38786a64.40936,64.40936,0,0,1,.20781-7.18585,3.40719,3.40719,0,0,0-.25356-2.4,1.54577,1.54577,0,0,1-.12854-1.185c.29939-1.89492.91922-3.77924.206-5.71478a.87756.87756,0,0,1,.01935-.51567c.90511-2.93862.45965-5.92668.273-8.89533a18.14284,18.14284,0,0,0-.2324-3.33421c-.15322-.61987.21478-.96425.87863-1.019a2.02678,2.02678,0,0,1,2.254.99426,7.34736,7.34736,0,0,1,1.10578,2.93685,4.73322,4.73322,0,0,0,.7114,2.5095,4.54826,4.54826,0,0,1,.66385,3.19115c-.23592,1.80133.52293,3.45252.62508,5.2097.19552,3.32714.5881,6.64192.83289,9.97082A93.5855,93.5855,0,0,1,178.517,174.195c-.19363,3.96466-.00877,7.96818-.78354,11.90283a19.25656,19.25656,0,0,0-.125,2.45827c-.18666,2.93862-1.32418,5.68475-1.74686,8.57923-.12845.87593.11625,1.94436-1.02127,2.57835a14.949,14.949,0,0,1-2.17469-5.15495c-1.23433-3.9735-1.20088-8.07768-1.64987-12.11652a30.87668,30.87668,0,0,1,.15141-8.26134A38.991,38.991,0,0,0,171.18827,168.19762Zm-10.62679,30.6701c-.17436,2.43531-.49129,4.79292-2.49866,6.52007-.66738.57394-1.28549,1.298-2.28036.87593a2.97742,2.97742,0,0,1-2.09542-2.32935c-.40325-2.21633-.14789-4.445-.41382-6.65958-.17609-1.45519.18133-1.7501,1.6147-1.89669a8.11983,8.11983,0,0,1,.94561-.00529,5.26107,5.26107,0,0,1,3.64495,1.245A2.31577,2.31577,0,0,1,160.56148,198.86772Zm-1.6693-19.98581a6.45319,6.45319,0,0,1-2.85789,2.4565,5.07038,5.07038,0,0,1-1.694.34791c-1.55839-.00177-1.60241-.06-1.458-1.6936.04763-.52449.007-1.05783.007-1.58586a13.61545,13.61545,0,0,0-.27823-4.02472,1.29064,1.29064,0,0,1-.04575-.8618c.95438-1.70949,1.31894-3.75451,2.89134-5.1161a2.83177,2.83177,0,0,1,3.085.20485,4.47761,4.47761,0,0,1,1.67282,2.20221C161.0158,173.71813,160.86964,176.41657,158.89218,178.88191Zm-8.31839-33.08421a3.98578,3.98578,0,0,1,1.48092-1.45342,12.52743,12.52743,0,0,1,5.89186-2.0415c1.69046-.25076,2.194.22428,2.50744,1.90375.08632.45739.08632.93068.13739,1.51522a7.87179,7.87179,0,0,1-1.9845,4.99248c-.97028.99955-1.88588,2.07505-2.84379,3.09933-1.164,1.24679-2.65016.92184-3.277-.68521a1.93023,1.93023,0,0,1-.17781-.67815c.0141-1.66709-1.08119-3.08166-1.07062-4.747a.85413.85413,0,0,0-.09681-.3338C150.91186,146.85729,150.28154,146.46348,150.57379,145.7977ZM88.50492,233.02744a14.59405,14.59405,0,0,1-3.0921,5.61587c-1.178,1.22208-2.86322,1.21854-4.485,1.49934-1.259.02119-1.86646-.77881-1.36287-2.05739,1.11636-2.82913,1.72742-5.80661,2.60958-8.70461.3416-1.11788.891-1.36689,1.84891-.72053a4.16984,4.16984,0,0,1,.76772.71877,11.12938,11.12938,0,0,0,2.97766,2.43707C88.27243,232.09146,88.7197,232.39168,88.50492,233.02744Zm7.54354-27.02156a20.33815,20.33815,0,0,0-.40325,4.72582c.01583,1.52936-.42259,1.88962-1.91228,1.68477a3.22809,3.22809,0,0,1-2.35078-1.03665,1.99105,1.99105,0,0,0-2.356-.65518c-.891.24548-1.68521.355-2.34553-.55982a2.67441,2.67441,0,0,1-.31693-2.97571,14.82353,14.82353,0,0,0,1.421-4.1342c.604-2.88035,2.65893-4.27019,5.26859-5.00131,1.30122-.36557,3.14489,1.17438,3.3227,2.69667a15.45984,15.45984,0,0,1,.01057,1.76247A14.21791,14.21791,0,0,1,96.04846,206.00588Zm6.47292-46.47755a11.26329,11.26329,0,0,1-2.474-.84062c-.82231-.33553-.96848-.90242-.67615-1.70418a4.203,4.203,0,0,1,.70435-1.40574,13.00437,13.00437,0,0,1,6.3479-4.1095,42.74187,42.74187,0,0,1,9.1389-1.24148c2.10952-.12717,2.3666.21545,2.48113,2.3788.02287.40971.00352.82119.00352,1.17086-.22716,1.59293.32045,3.09049.18134,4.61986a5.93083,5.93083,0,0,1-.64976,2.8768,1.53418,1.53418,0,0,1-1.89293.77882c-2.143-.50155-4.32471-.83356-6.48883-1.2468C106.97119,160.37954,104.756,159.89389,102.52138,159.52833ZM126.90943,225.001a6.79635,6.79635,0,0,1-4.77189-.37262,24.45414,24.45414,0,0,0-3.0111-.92892,1.99145,1.99145,0,0,1-1.68874-2.80441,31.76844,31.76844,0,0,0,.76428-6.97569,34.88228,34.88228,0,0,0-.38038-8.04766,15.5435,15.5435,0,0,0-.97553-3.00043,29.578,29.578,0,0,1-1.39984-3.76687,12.04875,12.04875,0,0,0-2.22576-3.75452A83.26716,83.26716,0,0,0,105.573,185.734a1.37462,1.37462,0,0,1-.537-1.06843c.08452-.07064.162-.19073.2606-.21369,3.97254-.90242,7.81653-2.36643,11.96163-2.5342,1.67807-.06888,2.65007.6958,2.86846,2.98983a62.16492,62.16492,0,0,1,.52293,6.99866c-.06337,3.40837.38562,6.78673.3962,10.19157a69.69852,69.69852,0,0,0,1.0689,8.87062c.20773,1.56644.98077,2.94568,1.104,4.53685.10043,1.29447,1.201,2.23929,1.74153,3.41014a11.08015,11.08015,0,0,0,2.62368,3.65386C128.67563,223.55286,128.32346,224.48176,126.90943,225.001Zm2.835-89.49906a32.01906,32.01906,0,0,1-13.01986-.853,47.85586,47.85586,0,0,1-7.99958-2.86268,25.62048,25.62048,0,0,1-5.45165-3.07458,20.6469,20.6469,0,0,1-3.11325-3.69978c1.51609-.19956,2.28028-1.28917,3.49878-1.66182a102.96049,102.96049,0,0,1,10.37684-2.99336,65.55691,65.55691,0,0,1,12.70647-1.17085,87.5167,87.5167,0,0,1,15.16283,1.3033c.42259.07593.62335.27374.597.69052-.044.70286-.06689,1.40926-.16379,2.10507a13.55884,13.55884,0,0,1-5.21744,9.20437A15.61022,15.61022,0,0,1,129.74445,135.50191Zm6.46595,63.63425c-.17789-1.20972-.82231-2.24636-.9033-3.53554-.07928-1.28388-.02649-2.566-.111-3.84458-.35218-5.28387-.2852-10.5748-.21659-15.86044.07051-5.2821.17961-10.5695.52826-15.83747.17257-2.58189.1497-5.15319.22544-7.72977.044-1.50817.12854-1.60354,1.60233-1.63355.76247-.01591,1.52674.01942,2.28741-.00884.88043-.03355,1.23089.37439,1.33123,1.2415.38914,3.36776.9315,6.71609,1.13571,10.105a50.65229,50.65229,0,0,1,.04058,9.80306,1.30843,1.30843,0,0,0,.05279.85828,4.20157,4.20157,0,0,1,.30463,2.59072,46.85829,46.85829,0,0,0-.01763,5.44811c.03345,1.87195.01763,3.74921.02992,5.6247.02992,4.29315.023,8.588.00533,12.883-.01238,2.875.30816,5.72714.53179,8.58629.09509,1.20971.01582,2.43355.01582,3.894-1.826-.8989-2.28208-2.559-3.30516-3.7351C137.54868,205.45843,136.68931,202.35734,136.2104,199.13616Z" fill="#fff"/>
          <path d="M186.205,470.353c-3.02693-3.12405-6.78288-5.15847-10.59867-7.06576-2.08313-1.04193-4.32118-1.77659-6.4976-2.62956-.48957-.1925-1.14284-.2914-1.23794-.84062-.11624-.66579.57762-.93775,1.01431-1.30154a2.26911,2.26911,0,0,1,.3134-.159c3.41787-2.0927,7.27416-3.19116,10.88042-4.84236,3.071-1.40751,6.00631-3.1064,6.84452-6.91212a20.44044,20.44044,0,0,0,.90684-6.05032,11.38587,11.38587,0,0,0-3.25409-7.698,21.83163,21.83163,0,0,0-6.0609-4.106,35.22611,35.22611,0,0,0-10.70434-3.19116c-1.51789-.17483-3.04283-.06534-4.53957-.32318a30.96955,30.96955,0,0,0-6.4571-.415c-4.138.16424-8.28314.24724-12.4.78587-2.08665.27373-4.23486.21368-6.27749.5969a60.93689,60.93689,0,0,1-10.06335,1.28742,26.25118,26.25118,0,0,1-2.76985.31611,1.72354,1.72354,0,0,0-1.22908.59514,15.1181,15.1181,0,0,1-3.36853,2.2181,13.45148,13.45148,0,0,0-3.77185,3.06931,2.04765,2.04765,0,0,0-.55638,1.26092,7.5623,7.5623,0,0,0,5.0766,7.75627,21.81474,21.81474,0,0,0,10.611.23664c4.12566-.76644,8.27961-1.40573,12.36306-2.48829,2.74164-.72759,5.59248-1.17615,8.38528-1.76423a63.60045,63.60045,0,0,1,13.03216-1.37571,13.20135,13.20135,0,0,1,3.09563.54745c.84518.2031.928.62516.35045,1.2468a4.18,4.18,0,0,1-.81.67461c-1.72218,1.10021-3.307,2.39116-5.09242,3.41014-3.33688,1.90022-6.58925,3.94525-10.007,5.71125-1.097.56688-2.31028.89183-3.33688,1.53818a50.88673,50.88673,0,0,1-6.84272,3.14172,141.15676,141.15676,0,0,1-15.00437,5.38276c-3.45837,1.079-6.93256,2.11037-10.39446,3.17879a3.17718,3.17718,0,0,0-2.52154,2.18631,5.62878,5.62878,0,0,1-1.06176,1.60352c-1.66054,2.27638-2.54983,4.7011-1.73981,7.57261a4.37609,4.37609,0,0,0,3.33688,3.24061,12.866,12.866,0,0,0,5.74218.10949,25.417,25.417,0,0,1,5.06955-.37086c.82231.00883,1.11293.29845,1.04775,1.17792-.38209,5.22912.76419,10.00968,4.23839,14.08561a28.50479,28.50479,0,0,0,6.348,5.76952c1.57774.99426,3.23646,1.87372,4.80715,2.89271a2.82375,2.82375,0,0,0,.78886.36908c2.0919.55807,4.18207,1.11082,6.22822,1.82605a10.4956,10.4956,0,0,0,2.72582.63752c2.27151.15012,4.43735.87064,6.69131,1.10729,2.03025.21368,4.013.90419,5.96048.54745a17.95958,17.95958,0,0,0,7.41508-.77174c4.34578-1.46931,8.674-3.03927,12.15878-6.31167a20.67009,20.67009,0,0,0,4.60113-5.6565,19.27629,19.27629,0,0,0,1.981-8.498A18.27125,18.27125,0,0,0,186.205,470.353ZM152.421,492.4103a17.921,17.921,0,0,1-7.4573-1.44107,20.35414,20.35414,0,0,1-8.00138-6.3205,5.88909,5.88909,0,0,1-.87339-4.52272c.13559-.93069.99316-1.41457,1.76612-1.82959a7.16436,7.16436,0,0,1,4.07115-.69579c1.731-.468,2.83854.54569,3.94081,1.94612a58.04519,58.04519,0,0,1,6.31626,10.04677c.2588.51921.63393.98013.92446,1.487C153.63064,491.99,153.42291,492.435,152.421,492.4103Zm22.39117-7.00219a15.23538,15.23538,0,0,1-4.85993,4.75583,9.32233,9.32233,0,0,1-4.82133,1.33686,1.16379,1.16379,0,0,1-1.34352-1.04193,32.5107,32.5107,0,0,0-3.90564-8.92713,16.9965,16.9965,0,0,0-3.91794-4.25783A25.86619,25.86619,0,0,0,145.057,471.4885a19.858,19.858,0,0,0-2.95118-.34966,2.8594,2.8594,0,0,1-1.92285-.70287,7.09183,7.09183,0,0,1,3.15022-2.26578,23.77728,23.77728,0,0,1,5.72979-1.54878,38.273,38.273,0,0,1,11.18858-.26667,16.8886,16.8886,0,0,1,4.26658.90949,25.63056,25.63056,0,0,1,7.32352,3.6468,11.80134,11.80134,0,0,1,4.44791,6.13684A9.57152,9.57152,0,0,1,174.81215,485.40811Z" fill="#fff"/>
          <path d="M131.47193,329.31743a11.55443,11.55443,0,0,0-4.49909.38c-1.47525.51345-3.094.59476-4.626.96521-3.46527.83789-6.88548,1.89555-10.38045,2.56937a30.41885,30.41885,0,0,1-11.68953.34448,13.04473,13.04473,0,0,1-4.36439-1.75626c-2.24015-1.38114-2.85982-3.86212-1.6635-6.42522a12.44351,12.44351,0,0,1,3.94968-4.637,47.61515,47.61515,0,0,1,11.10771-5.93964c4.71578-1.89807,9.46182-3.72209,14.21436-5.52622,3.60682-1.36923,7.08737-3.02646,10.62805-4.5464a131.874,131.874,0,0,1,14.33674-5.19866,84.67832,84.67832,0,0,1,11.27256-2.652c4.77864-.73787,9.56078-.99261,14.2584.47887a16.56962,16.56962,0,0,1,9.87169,8.2138,23.83222,23.83222,0,0,1,1.5987,3.71479c.30595.89738.1504,1.40755-.7888,1.76067-1.96475.73872-3.923,1.5082-5.83127,2.38091-1.85741.84944-3.92289,1.19241-5.64142,2.37582a4.08966,4.08966,0,0,1-.98322.36514,85.182,85.182,0,0,0-9.1869,3.79932c-1.88887.91817-3.90832,1.59852-5.70911,2.659-2.64305,1.55646-5.57047,2.64328-7.90448,4.72917a6.94691,6.94691,0,0,1-1.21361.65835,40.12657,40.12657,0,0,0-11.55119,9.87088,25.33177,25.33177,0,0,0-5.29792,14.101,28.15962,28.15962,0,0,0,1.88781,13.37088,18.44918,18.44918,0,0,0,4.26036,6.60533,10.4608,10.4608,0,0,0,4.32553,2.58209c2.09692.5674,4.09243,1.44243,6.36821,1.55917a82.11592,82.11592,0,0,1,11.12229,1.67414c2.23426.42653,4.47316.83285,6.71823,1.19707a18.91092,18.91092,0,0,1,7.23119,2.485,10.71466,10.71466,0,0,1,4.907,6.6278c1.00571,4.23776.99454,3.7525-2.517,6.06437-4.58764,3.02027-9.83884,3.87307-15.25244,3.96654-7.8524.13561-15.14317-2.0675-22.14044-5.37347a37.99972,37.99972,0,0,1-15.274-12.60133,30.06542,30.06542,0,0,1-5.51945-15.72007c-.52533-8.90882,1.848-17.06,6.267-24.69538.52679-.91016,1.07027-1.81316,1.612-2.71367a30.63947,30.63947,0,0,1,4.83243-5.97777A3.85035,3.85035,0,0,0,131.47193,329.31743Z" fill="#fff"/>
          <path d="M170.52462,325.42521a3.9014,3.9014,0,0,1,2.14786.425c.42659.19426.84552.407,1.27883.58457,2.63164,1.07852,2.70444,1.17412,5.0297-.53547,2.91681-2.1445,8.136-1.64178,11.05873.9949a19.29029,19.29029,0,0,1,4.82609,6.82624c.56769,1.33932,1.30779,2.87768.91469,4.55788a9.08242,9.08242,0,0,0-.03444,2.28606,9.06623,9.06623,0,0,1-1.17735,3.989c-.23418.52114-.67091.57436-1.128.69366-1.66708.43512-3.10961-.34647-4.57236-.88353-.97824-.3592-1.86088-.97333-2.8061-1.43237-.69769-.3388-.70521-.71993-.38223-1.39764,1.36924-2.873,1.51744-5.73928-.271-8.53058a4.7354,4.7354,0,0,0-1.09514-1.35972,2.13491,2.13491,0,0,0-2.2786-.48479,2.40476,2.40476,0,0,0-1.28612,1.98861,3.882,3.882,0,0,0,.461,2.1971,7.86017,7.86017,0,0,1,.688,5.78829,3.09475,3.09475,0,0,1-3.64712,2.213,8.1718,8.1718,0,0,1-5.02635-3.81233,37.65293,37.65293,0,0,1-3.22622-8.3222,11.68669,11.68669,0,0,0-1.45712-3.17558c-1.12779-1.65581-.75748-2.427,1.21427-2.60725C169.98819,325.40687,170.22428,325.42521,170.52462,325.42521Z" fill="#fff"/>
        </g>
      </g>
    </g>
  </g>
</svg>
