<svg xmlns="http://www.w3.org/2000/svg" viewBox="0 0 400 88.06163">
  <g id="ee55bf14-c074-4e88-bfa2-f3e68794099d" data-name="レイヤー 2">
    <g id="b820d950-067c-4169-8909-8f501c84d56d" data-name="レイヤー 4">
      <g id="ba5e50a3-7ac1-4389-b75b-e7b4a468dbe7" data-name="グループ 101">
        <path id="a9c75819-9c0d-4681-a800-9543f219a57f" data-name="パス 85" d="M10.39841,11.82142a2.58275,2.58275,0,0,0-.10319-.32926c-.47375-.90831-.929-1.829-1.44506-2.72182A10.66357,10.66357,0,0,1,7.68482,5.63668a4.67574,4.67574,0,0,1,.34472-3.3628A3.56819,3.56819,0,0,1,10.55836.2591a8.72182,8.72182,0,0,1,5.423.707,9.14424,9.14424,0,0,1,3.42989,2.64234c.49649.69157,1.03217,1.35627,1.48941,2.08084a.90417.90417,0,0,0,1.03217.45A19.05044,19.05044,0,0,1,24.889,5.78428a10.28373,10.28373,0,0,1,5.05764,1.33251c.88764.51609,1.80112.99812,2.71668,1.4564a3.342,3.342,0,0,0,2.9933.07947c1.70512-.78754,3.40614-1.603,5.09683-2.406,1.54825-.73078,3.05933-1.4822,4.61583-2.16756.87732-.386,1.80113-.6513,2.71152-.98778.60692-.22912,1.18594-.51608,1.80112-.72253,1.3614-.46345,2.72185-.92069,4.11626-1.32221.9599-.28075,1.94255-.47891,2.92514-.674a23.66654,23.66654,0,0,1,6.51914-.257A10.557,10.557,0,0,1,70.83589,4.141a18.597,18.597,0,0,1,1.57925,2.4514A2.793,2.793,0,0,1,72.45331,9.08,4.99977,4.99977,0,0,1,69.46,12.12073a15.00645,15.00645,0,0,1-5.42612.91864,23.71421,23.71421,0,0,0-4.55082.48616,14.1147,14.1147,0,0,0-3.242,1.07551,3.62606,3.62606,0,0,0-1.80113,2.65989c-.02583.6193.07743.82572.68744.93618.98265.18475,1.97557.3241,2.96647.46862,1.68552.257,3.3752.46861,5.05764.74316a19.279,19.279,0,0,1,2.665.57388,8.63094,8.63094,0,0,1,4.74794,3.177,6.25163,6.25163,0,0,1,1.09309,2.76828c.17236,1.25512.43248,2.49786.55533,3.754.1672,1.67211.257,3.34421.33439,5.0349.033.63789.22913,1.23241.20645,1.8961-.11044,2.97368-.11869,5.95045-.16,8.93031,0,.32205,0,.65131-.01757.9754-.13419,2.62171-.21678,5.24856-.4294,7.8651-.14452,1.7547-.46858,3.4939-.74111,5.2434a33.206,33.206,0,0,1-.65128,3.65075c-.47066,1.72887-1.0425,3.42989-1.65144,5.11954-.28589.803-.39632.772-1.26545.66885-.67711-.08255-1.348-.10322-2.02509-.18474-.72252-.08256-1.44505-.23946-2.182-.29622a24.68327,24.68327,0,0,0-4.92963-.17236c-.9795.11869-2.00139-.11044-2.99948-.06193-1.52758.07431-3.05107.257-4.57457.386a30.4325,30.4325,0,0,0-5.2145.99088,1.13515,1.13515,0,0,1-.51608.07225c-.898-.20644-1.39964.42424-2.05816.88765a2.82523,2.82523,0,0,0,1.48424.94133c1.04974.27249,2.10975.51608,3.16668.75349a8.97415,8.97415,0,0,0,1.04766.17753c1.34181.129,2.696.257,4.04406.3468,1.46875.09806,2.94789.15482,4.41972.24463,2.17376.129,4.34229.34476,6.51712.37777a23.29023,23.29023,0,0,1,3.84379.51608,14.63388,14.63388,0,0,1,4.57148,1.51521,1.26233,1.26233,0,0,1,.69462.97024,7.51313,7.51313,0,0,1-1.39138,6.25905,5.34117,5.34117,0,0,1-1.49974,1.16531,11.77259,11.77259,0,0,1-4.57148,1.54825,48.18382,48.18382,0,0,1-4.95439.18474,43.48535,43.48535,0,0,1-7.026-.643c-1.67727-.288-3.38554-.4552-5.06281-.75142s-3.34421-.69773-5.004-1.05179c-1.12194-.23637-2.248-.45311-3.37-.71528-1.34181-.30964-2.67536-.66369-4.01615-1.00842-.65645-.16719-1.3098-.33442-1.96114-.5295-1.88372-.56355-3.7767-1.1168-5.66041-1.72373a1.17773,1.17773,0,0,0-1.38931.41286,18.05207,18.05207,0,0,0-2.78686,4.37329,7.77534,7.77534,0,0,1-2.23052,2.89934,5.96389,5.96389,0,0,1-4.63133.996A16.83192,16.83192,0,0,1,12.378,86.09711a17.78321,17.78321,0,0,1-6.66883-6.14654,10.29276,10.29276,0,0,1-1.734-7.16528c.1156-.86393.51608-1.68761.7122-2.55462a45.359,45.359,0,0,1,1.96114-4.82332c.49649-1.379.929-2.77858,1.33254-4.18854a8.83658,8.83658,0,0,0,.0516-3.85929c-.1517-.91036.17753-1.22207,1.06-.98778s1.71337.42936,2.54942.71528a1.1292,1.1292,0,0,0,1.21694-.257c.51608-.46345.53776-.81851.09494-1.37072a4.83868,4.83868,0,0,0-2.39256-1.412.996.996,0,0,0-.48407.01754c-.803-.30964-1.44506-.57905-2.09634-.78962A11.62044,11.62044,0,0,1,5.38808,52.465,6.78011,6.78011,0,0,1,2.35452,49.7483a3.21312,3.21312,0,0,1-.06709-2.33062,3.34836,3.34836,0,0,1,2.83228-2.57217,36.66378,36.66378,0,0,0,3.79219-.83914,3.49175,3.49175,0,0,0,2.16752-1.40477,4.04622,4.04622,0,0,0,.37781-2.99327c-.03818-.257-.51609-.54809-.85363-.65336a19.30216,19.30216,0,0,0-2.73728-.68948,9.875,9.875,0,0,1-3.80971-1.3511,3.94083,3.94083,0,0,1-1.76188-5.28677,4.17848,4.17848,0,0,1,.28072-.47378,3.82514,3.82514,0,0,1,2.087-1.253c1.03216-.31893,2.11183-.49646,3.15118-.79788a22.05817,22.05817,0,0,0,2.54942-.92894,2.89005,2.89005,0,0,0,1.4564-2.73732,1.67823,1.67823,0,0,0-1.572-1.42231,6.62424,6.62424,0,0,0-2.05816.42423,11.60147,11.60147,0,0,1-5.27127.77205.82571.82571,0,0,1-.56358-.352,11.2019,11.2019,0,0,1-.59969-1.35626,5.56313,5.56313,0,0,0-.257-.65852,19.69852,19.69852,0,0,1-1.4564-4.32169.739.739,0,0,1,.29622-.86393,25.43815,25.43815,0,0,1,2.151-1.66694c1.56167-.98778,3.3752-1.38414,4.95439-2.279.772-.43765,1.5204-.89282,2.27077-1.36351A5.23637,5.23637,0,0,0,10.39841,11.82142Zm33.54024,6.159a36.55078,36.55078,0,0,0-7.92086-.75863,32.61033,32.61033,0,0,0-6.92585.66369c-1.47707.30964-2.86631.84122-4.29379,1.28608a17.55658,17.55658,0,0,0-2.12525.99812A6.54907,6.54907,0,0,0,24.4482,22.171a15.84035,15.84035,0,0,0,3.02839,1.54825c.95991.35714,1.87748.84843,2.858,1.122a16.52293,16.52293,0,0,0,5.94012.7122,9.8056,9.8056,0,0,0,3.80769-.96507,6.64621,6.64621,0,0,0,3.52483-4.17822,5.95367,5.95367,0,0,0,.33131-2.42868Zm.06709,45.65789.20645-.11044c0-.58626.0155-1.17564,0-1.7619-.06709-1.80113-.18578-3.58679-.224-5.38171-.03818-1.85788,0-3.7158,0-5.57369,0-.49646-.09494-.99812-.08977-1.49457.02066-1.49458.05676-2.99328.08977-4.48168a.17928.17928,0,0,0,0-.08981,5.85974,5.85974,0,0,1-.12386-2.25836c-.05884-1.5823-.07225-3.17185-.18786-4.748a27.75556,27.75556,0,0,0-.45825-3.31842c-.0846-.43453.18994-1.0652-.353-1.28608a3.85327,3.85327,0,0,0-1.39447-.07742c-.83605,0-.91348.07226-.91348.90831,0,2.1531-.10319,4.29381-.257,6.43141-.12077,1.82384-.129,3.65284-.1517,5.47772-.02784,1.7134-.02066,3.42472,0,5.14533.0155,1.28608.04334,2.58763.10319,3.882a11.50141,11.50141,0,0,0,.22913,1.54824c.08775.4552.22087.90832.34473,1.36039a11.16008,11.16008,0,0,0,1.155,3.22861c.4294.66885.90831,1.30467,1.38206,1.94252a7.48442,7.48442,0,0,0,.643.65752Zm16.30822-5.873a3.66776,3.66776,0,0,0,.3623-.72253c.32923-1.65147.64611-3.2854.94958-4.93684a11.28824,11.28824,0,0,0,.09494-1.317c.13418-1.91156.33956-3.819.37263-5.72647.04127-2.00445-.04851-4.011-.1466-6.01238-.07742-1.6721-.23945-3.34421-.3829-5.01631-.064-.78754-.21879-1.56683-.257-2.35438a3.66478,3.66478,0,0,0-.38807-1.87338,4.46408,4.46408,0,0,1-.29622-1.01154,14.041,14.041,0,0,0-.59143-1.65147,1.00021,1.00021,0,0,0-1.13536-.49646c-.32923.03305-.47891.19508-.45.51609.0671.674.1982,1.35109.1982,2.02511a12.60383,12.60383,0,0,1-.17237,4.03886,1.44407,1.44407,0,0,0,0,.51609,10.51517,10.51517,0,0,1,.05884,1.13539,6.70126,6.70126,0,0,0,0,2.77032,1.89525,1.89525,0,0,1-.04851.78754c-.02268.23429-.06192.46862-.07433.70187-.11044,2.26353.09493,4.53535-.1032,6.80506a36.68161,36.68161,0,0,0,.45517,7.317c.07742.68949.35714,1.35627.46241,2.05813a5.01821,5.01821,0,0,0,1.091,2.44418ZM24.986,50.09829a4.83188,4.83188,0,0,0,.257.41286c.898,1.09306,1.829,2.15619,2.6991,3.273a11.44128,11.44128,0,0,1,2.62168,4.45071,1.38248,1.38248,0,0,0,.162.30964,8.69932,8.69932,0,0,1,.99292,3.54032,23.88409,23.88409,0,0,1-.3623,6.17442c-.1672.85668.05159,1.2582.87423,1.48736.481.13419.9599.28592,1.43264.43453a3.50936,3.50936,0,0,0,2.49783.17753c.65852-.257.80821-.70187.29313-1.19936a9.97672,9.97672,0,0,1-1.3098-1.7547,10.177,10.177,0,0,1-1.286-3.23894,25.28842,25.28842,0,0,1-.61927-4.09357c-.1827-2.4772-.257-4.94718-.38291-7.41715-.04643-.85464-.08977-1.70619-.17753-2.55462-.098-.929-.63068-1.43782-1.412-1.34181-1.10336.13419-2.21295.29109-3.303.51609-.97748.20644-1.93222.52229-2.97882.8185Zm6.5759-15.45462h.04851V34.109c-.033-1.1777-.17236-1.36351-1.3418-1.28609a22.20931,22.20931,0,0,0-4.43314.60485A6.23334,6.23334,0,0,0,22.674,35.40126c-.87013.99087-.66885,1.54825.58626,1.96111a3.65428,3.65428,0,0,0,.51609.12386c.46341.07226.929.129,1.39447.21573,1.7237.3396,3.44746.6967,5.16908,1.03217.71529.13419,1.09309-.07226,1.22727-.75349a10.006,10.006,0,0,0,0-3.32358ZM20.7871,59.0224h-.03817v-.257c0-1.58747-.97749-2.22536-2.406-1.59472a1.79568,1.79568,0,0,1-.257.08773,1.75476,1.75476,0,0,0-1.28605,1.11372c-.43456,1.1168-.90006,2.22535-1.23861,3.37517a1.13068,1.13068,0,0,0,1.4048,1.4719,1.252,1.252,0,0,1,1.20869.30138,2.40588,2.40588,0,0,0,1.08275.51608c.81539.1827,1.04975-.05676,1.09825-.89281s.14452-1.69586.22913-2.54224c.07226-.5295.13935-1.05488.20021-1.57921ZM53.033,30.5346a4.86367,4.86367,0,0,0,0-.61206c-.11044-.90006-.45825-1.22207-1.3418-1.08789a6.451,6.451,0,0,0-3.1801,1.20349c-.55533.44487-.58626.56355-.257,1.23241a2.08337,2.08337,0,0,1,.13418.32205c.17237.772.3344,1.54825.51608,2.29966a2.24023,2.24023,0,0,0,.15687.51608.90729.90729,0,0,0,1.1564.5559l.0017-.0006a.93932.93932,0,0,0,.41289-.29829c.51609-.53467.962-1.11372,1.48733-1.62877a3.527,3.527,0,0,0,.91348-2.503ZM49.17376,48.43031a.98437.98437,0,0,0,.17236.12077.44521.44521,0,0,0,.17236.0516,2.70013,2.70013,0,0,0,2.40289-1.00121,4.5136,4.5136,0,0,0,1.12194-3.819,2.55455,2.55455,0,0,0-.99292-1.7134,1.49973,1.49973,0,0,0-1.56167-.12077,7.9721,7.9721,0,0,0-1.46673,2.5732c-.05884.10322,0,.288,0,.43249.04643.6193.11044,1.23861.13627,1.84758.04126.545.02066,1.10131.02066,1.63081ZM13.71786,72.09993c-.51608,1.67727-1.01667,3.32874-1.50283,4.98639-.15686.51608.02785.85155.545.85155a3.00263,3.00263,0,0,0,2.51849-.83089,14.2729,14.2729,0,0,0,1.39964-2.51849.57286.57286,0,0,0-.255-.769h0c-.58626-.4397-1.14984-.91036-1.69585-1.39447a1.03221,1.03221,0,0,0-1.00325-.30964ZM50.61056,55.4903a3.75834,3.75834,0,0,0-.481,0c-.65645.08256-.83089.257-.78446.90831.0671,1.1426.19511,2.28212.27247,3.41955.03925.64615.49132.898.98057,1.11681s.833-.11353,1.16843-.40152a4.36911,4.36911,0,0,0,1.28605-3.26165,1.2221,1.2221,0,0,0-.58418-1.19836,2.57008,2.57008,0,0,0-1.85272-.5708Z" fill="#fff"/>
        <path id="f9c10074-3fac-43fa-af13-5485115b0f8f" data-name="パス 86" d="M215.80567,84.15046h-.353a20.82117,20.82117,0,0,1-5.76052-.7029,7.23071,7.23071,0,0,0-1.41507-.07743,4.33487,4.33487,0,0,1-1.36038-.29108,17.63668,17.63668,0,0,0-2.31312-.45312c-.51608-.0898-1.04659-.14452-1.54825-.28075-1.52758-.41286-3.05107-.85876-4.57973-1.28608a25.90425,25.90425,0,0,1-2.54942-.72253,13.67271,13.67271,0,0,1-1.74436-1.03217c-1.13536-.66885-2.29245-1.32221-3.42473-2.00136a6.16238,6.16238,0,0,1-.99291-.736c-1.34181-1.23861-2.72185-2.44418-3.99347-3.754a12.56525,12.56525,0,0,1-2.02509-2.66814,18.83767,18.83767,0,0,1-1.47391-3.57337,19.8424,19.8424,0,0,1-.772-3.7158,16.16673,16.16673,0,0,1,.0671-3.17494c.07226-.79787-.033-1.04454-.83605-1.05179a18.91492,18.91492,0,0,0-5.006.40669,14.5312,14.5312,0,0,1-2.29245.08772,7.01859,7.01859,0,0,1-2.9613-.3726,3.9057,3.9057,0,0,1-2.48749-2.44623,9.57908,9.57908,0,0,1-.257-3.68689,3.86,3.86,0,0,1,.5966-1.54825c.56875-.9599,1.21177-1.87855,1.80112-2.8302a3.56473,3.56473,0,0,0,.4449-.86393,2.02833,2.02833,0,0,1,1.38414-1.36659,34.62733,34.62733,0,0,1,4.81818-1.4564c.63068-.13419,1.23238-.40152,1.84963-.5966,1.68036-.53466,3.39581-.96507,5.02665-1.62876,1.16534-.46861,2.38021-.64614,3.55065-1.03216.72253-.22913,1.412-.58422,2.12526-.8536,2.09117-.79788,4.18851-1.572,6.27968-2.36468a2.0533,2.0533,0,0,0,.64611-.27766,13.567,13.567,0,0,1,3.11093-1.42749c.66368-.31893,1.32221-.643,1.98073-.96507a4.86169,4.86169,0,0,1,.8598-.448c1.58952-.41286,2.856-1.54825,4.41254-2.01686a10.55813,10.55813,0,0,1,2.80437-1.60813c1.54825-.85669,2.93756-1.93739,4.48889-2.76s2.78687-1.95285,4.24736-2.8302a5.264,5.264,0,0,0,1.03216-.85155c.30964-.30964.22088-.64819-.162-.86393a.99344.99344,0,0,0-.257-.095c-.929-.1569-1.84756-.3726-2.77861-.45a26.36711,26.36711,0,0,0-2.92306,0c-.55326.02271-1.09826.14452-1.65145.21574a5.42939,5.42939,0,0,1-.78754.06709,15.96585,15.96585,0,0,0-3.76428.42423c-2.00965.448-4.02547.87735-6.05572,1.18907a14.93829,14.93829,0,0,0-2.39256.579,1.61564,1.61564,0,0,1-.51608.13418,22.53064,22.53064,0,0,0-4.19368.929c-1.6391.32926-3.30295.579-4.94721.88456-1.07034.20024-2.12525.47378-3.19969.64614a25.69087,25.69087,0,0,1-2.97673.31893c-1.21178.0516-2.4204.0258-3.63735,0a7.8011,7.8011,0,0,1-7.03938-4.14,5.32606,5.32606,0,0,1-.41906-3.79733c.18477-.84122.9599-1.315,1.54825-1.88576.34164-.32205.69153-.62756,1.05484-.93619a2.14131,2.14131,0,0,1,.57077-.39635,14.85381,14.85381,0,0,0,3.80252-2.39256,1.63307,1.63307,0,0,1,1.12711-.40669,4.0388,4.0388,0,0,0,1.91156-.257,1.65164,1.65164,0,0,1,.61927-.04851,19.93125,19.93125,0,0,0,4.65716-.41906c.7122-.15482,1.46156-.15482,2.19235-.23946a2.53381,2.53381,0,0,0,.772-.14965,6.14938,6.14938,0,0,1,2.33579-.41286c1.23862-.064,2.45449-.22913,3.68894-.35714A3.12111,3.12111,0,0,0,196.11,12.965a32.27638,32.27638,0,0,0,3.85928-.29622,45.75727,45.75727,0,0,1,6.52947-.257c.6121-.02788,1.22728-.21883,1.83414-.20645a30.53478,30.53478,0,0,1,4.49714.257c1.14777.20024,2.29037.12386,3.42472.257a36.22852,36.22852,0,0,1,6.06606,1.11372,33.03755,33.03755,0,0,1,6.05157,2.45656,15.75477,15.75477,0,0,1,5.49522,4.47856,2.74563,2.74563,0,0,1,.83089,1.69069.97934.97934,0,0,0,.15687.41286,8.82459,8.82459,0,0,1,.82572,3.93151,13.39244,13.39244,0,0,1-.92073,5.08857.73918.73918,0,0,0-.07742.257c.06193,1.52349-1.03217,2.42147-1.97557,3.2957a17.58671,17.58671,0,0,1-3.30294,2.31516,20.26642,20.26642,0,0,1-3.0284,1.21177c-1.189.44487-2.39256.84431-3.58675,1.28608a5.12934,5.12934,0,0,0-.62444.322l-3.34421,1.765a.82532.82532,0,0,0-.22913.13418c-.36747.32719-.97024.5708-.898,1.11372s.69154.63581,1.15294.803c.833.30964,1.6566.62548,2.48239.94961.98057.386,1.93531.86185,2.9458,1.17564a17.91614,17.91614,0,0,1,2.76305,1.52658c1.46673.74833,2.85087,1.64423,4.27319,2.48236a1.03335,1.03335,0,0,1,.224.14452,28.23271,28.23271,0,0,1,5.07623,5.40237,15.15428,15.15428,0,0,1,1.80112,4.18854,14.259,14.259,0,0,1,.64612,4.7934,16.88515,16.88515,0,0,1-.87423,5.28676,9.44855,9.44855,0,0,0-.353,1.00325,9.99862,9.99862,0,0,1-2.62685,4.23189,7.81238,7.81238,0,0,0-.60176.75863,3.39912,3.39912,0,0,1-1.38206,1.32737.94488.94488,0,0,0-.34265.27767,12.50059,12.50059,0,0,1-4.36088,2.87663,37.96934,37.96934,0,0,1-3.4908,1.65148,25.0814,25.0814,0,0,1-5.35594,1.41714C218.32107,84.03694,216.98135,84.11745,215.80567,84.15046ZM192.70786,53.23915a3.18129,3.18129,0,0,0,1.85272.56872,7.58365,7.58365,0,0,1,2.1015.18786c1.00325.22912,1.98074.55838,2.95614.88251a21.29762,21.29762,0,0,1,6.002,3.3112,35.89389,35.89389,0,0,1,3.529,3.19972,9.89249,9.89249,0,0,1,1.44506,1.88576c.56875.91553,1.0466,1.87855,1.54825,2.83021.20645.38293.36539.79787.545,1.19835.15687.34476.30964.69258.46858,1.03217a4.10527,4.10527,0,0,1,.30964.63065c.20645.75862.40357,1.52349.58626,2.28419a.87426.87426,0,0,0,.929.80818h.04334a7.99926,7.99926,0,0,0,2.18409-.23429,8.34272,8.34272,0,0,0,4.08016-2.25424c.79479-.78755,1.51316-1.6391,2.26454-2.47a7.29387,7.29387,0,0,0,1.4564-2.49786,8.78739,8.78739,0,0,0,.5966-3.7158,7.96162,7.96162,0,0,0-1.13536-3.74882,12.75544,12.75544,0,0,0-2.2842-2.79408,18.99086,18.99086,0,0,0-3.41439-2.31516,7.25241,7.25241,0,0,0-2.67844-1.07242c-.11044,0-.20645-.11043-.30964-.1569a11.71651,11.71651,0,0,0-2.03957-.78445,34.12712,34.12712,0,0,0-4.79028-.6967,32.50582,32.50582,0,0,0-8.534.47891,14.28744,14.28744,0,0,0-7.155,2.76516A3.71555,3.71555,0,0,0,192.70786,53.23915Zm12.06086,19.52444a4.53165,4.53165,0,0,0-.24153-.91552c-.6482-1.17565-1.32738-2.341-2.01167-3.496-.77413-1.28608-1.56683-2.55978-2.31513-3.85928a26.28823,26.28823,0,0,0-3.24719-4.26594,1.77435,1.77435,0,0,0-1.47706-.64614c-.772.031-1.54825-.02063-2.31513,0a5.12572,5.12572,0,0,0-2.75486.80817c-.61927.42424-1.317.84122-1.3614,1.734a5.66856,5.66856,0,0,0,1.189,4.19059,19.30118,19.30118,0,0,0,4.26594,3.87991,34.12443,34.12443,0,0,0,4.75518,2.26152.98332.98332,0,0,0,.257.07431c.84639.08772,1.69069.17753,2.53708.257.50165.04334.99808.10322,1.49457.10322a12.20659,12.20659,0,0,0,1.22211-.12385Z" fill="#fff"/>
        <path id="a15e16ef-8abc-4e3c-8eb8-9ab29b748a1b" data-name="パス 87" d="M115.025,35.683a5.67715,5.67715,0,0,0-2.41839-.02788c-1.14468.257-2.28936.48616-3.432.77205-2.01992.51608-4.03681,1.07034-6.05881,1.572-.91348.224-1.84756.37572-2.78063.51608-.579.095-1.17044.10322-1.74745.20644a14.97452,14.97452,0,0,1-6.65849-.3726,6.90121,6.90121,0,0,1-2.8302-1.56683,2.12826,2.12826,0,0,1-.77413-1.52762,5.27347,5.27347,0,0,1,1.21694-3.76123,15.18972,15.18972,0,0,1,4.70768-3.66109A72.31636,72.31636,0,0,1,103.794,23.6748c3.56816-1.37588,7.13948-2.76,10.64579-4.2969,2.72184-1.186,5.46221-2.341,8.26659-3.31841,2.5515-.89282,5.16807-1.62568,7.78975-2.31516a34.352,34.352,0,0,1,9.06863-1.315,16.34656,16.34656,0,0,1,5.91738.88973,11.82343,11.82343,0,0,1,6.56248,5.873,20.39877,20.39877,0,0,1,1.03217,2.54428c.21362.61931.12385.75863-.49133,1.00842-1.49457.60693-3.03356,1.12713-4.48889,1.81662a20.43528,20.43528,0,0,0-3.7251,1.59471,3.17874,3.17874,0,0,1-.83088.28592,67.99875,67.99875,0,0,0-6.40562,2.67847c-1.3418.66886-2.73527,1.219-4.10082,1.829a.83111.83111,0,0,0-.16512.0671c-1.5049,1.03216-3.24618,1.69585-4.70258,2.7662a48.00168,48.00168,0,0,0-4.29063,2.84463c-1.26854,1.14984-2.598,2.22019-3.83554,3.39583A17.99646,17.99646,0,0,0,118.17,42.24866a15.45642,15.45642,0,0,0-2.74044,5.66041,16.44616,16.44616,0,0,0-.60692,4.26077c0,.40669-.07226.81542-.08259,1.22208a17.8773,17.8773,0,0,0,1.253,7.06414,12.90237,12.90237,0,0,0,3.13574,5.06277,9.62762,9.62762,0,0,0,2.31513,1.54825,17.84182,17.84182,0,0,0,3.16151,1.17565,17.29842,17.29842,0,0,0,2.59283.31893,11.42157,11.42157,0,0,1,1.22211.14965,18.95717,18.95717,0,0,0,3.113.40668,14.87654,14.87654,0,0,1,1.74437.43765c.94132.18787,1.89606.37261,2.858.49442a26.79006,26.79006,0,0,1,6.94337,1.574,7.798,7.798,0,0,1,4.32169,4.08841,9.58167,9.58167,0,0,1,.84947,3.22861,1.317,1.317,0,0,1-.56358,1.19936,15.86942,15.86942,0,0,1-7.29327,3.39584,26.86921,26.86921,0,0,1-9.42677.257,35.02252,35.02252,0,0,1-8.48954-2.34921,31.78173,31.78173,0,0,1-4.86461-2.29245q-1.605-1.00739-3.12126-2.14793a30.91665,30.91665,0,0,1-2.77036-2.31516,22.70786,22.70786,0,0,1-4.7005-6.59348,22.08255,22.08255,0,0,1-1.94772-10.494,25.13278,25.13278,0,0,1,.66369-5.2558,32.91848,32.91848,0,0,1,3.787-9.37206c.85464-1.3738,1.70827-2.75073,2.665-4.04919a29.41706,29.41706,0,0,1,2.14069-2.31516C114.56464,36.33434,114.75042,36.03913,115.025,35.683Z" fill="#fff"/>
        <path id="ff4ada09-18f2-415f-bdb9-d000f7cee00c" data-name="パス 88" d="M160.366,42.51081a19.559,19.559,0,0,1-.257,2.18715,7.32776,7.32776,0,0,1-.70294,1.69068.76887.76887,0,0,1-.53567.37777,5.67663,5.67663,0,0,1-1.65661.02788,13.9346,13.9346,0,0,1-3.882-1.65664c-.38089-.20644-.38089-.46861-.18994-.80817a6.63723,6.63723,0,0,0,.772-3.49594,5.76975,5.76975,0,0,0-1.45123-3.34421,1.72888,1.72888,0,0,0-1.74953-.62548,1.83934,1.83934,0,0,0-1.01049,1.734,3.02315,3.02315,0,0,0,.257,1.09306,5.80523,5.80523,0,0,1,.70294,3.146,7.85578,7.85578,0,0,1-.28589,1.54825,2.31517,2.31517,0,0,1-2.64959,1.05488,6.0971,6.0971,0,0,1-3.496-2.91277,26.47824,26.47824,0,0,1-1.5875-3.916c-.38089-1.03217-.6926-2.05813-1.07242-3.08721a5.31907,5.31907,0,0,0-.60693-.9754c-.60692-.91036-.41906-1.41715.66369-1.61327a4.38661,4.38661,0,0,1,2.67844.352,15.75851,15.75851,0,0,0,2.12009.865,1.34173,1.34173,0,0,0,.90831-.14656,8.567,8.567,0,0,0,1.1736-.78446,5.95148,5.95148,0,0,1,5.23-.65852,7.58335,7.58335,0,0,1,4.02547,3.01495,32.80068,32.80068,0,0,1,1.92914,3.05419,1.58873,1.58873,0,0,1,.162.58938c.03409.17237-.02066.386.06193.51609A4.8253,4.8253,0,0,1,160.366,42.51081Z" fill="#fff"/>
        <path id="beca8ad5-7380-4d13-b800-df656344512f" data-name="パス 89" d="M268.47819,64.99244a24.2338,24.2338,0,0,0,2.632.11043,12.27464,12.27464,0,0,0-1.14569-2.51744l4.62925-.71425h-7.00637V77.53429a29.94314,29.94314,0,0,0,.18371,4.22156h-5.78735a39.93891,39.93891,0,0,0,.20644-4.58074v-16.878a26.89641,26.89641,0,0,0-.14143-3.24,36.56206,36.56206,0,0,0,3.66008.1414h8.51953V55.56775h-8.84359a41.10573,41.10573,0,0,0-4.54156.21778V50.52148a36.93473,36.93473,0,0,0,4.54156.21366h8.84359a15.07868,15.07868,0,0,0-.20644-2.41836h5.92878a14.72423,14.72423,0,0,0-.20645,2.41836h9.1264a36.865,36.865,0,0,0,4.54155-.21366v5.26405a41.02739,41.02739,0,0,0-4.54155-.21778h-9.1264v1.63081h9.26682a25.66348,25.66348,0,0,0,3.3432-.1414,27.81046,27.81046,0,0,0-.14861,3.24V76.45982c0,4.202-1.10443,5.15362-5.82244,5.15362-.963,0-2.12834-.034-3.4113-.10322a13.65376,13.65376,0,0,0-1.20762-5.07724,32.42927,32.42927,0,0,0,3.70135.24771c1.03216,0,1.27578-.18373,1.27578-.92894V61.86189h-7.32836l4.58383.71424c-.17545.34785-.17545.34785-.60277,1.34181-.17652.35506-.31688.64614-.60693,1.17668a26.31692,26.31692,0,0,0,2.95614-.11044v4.51573c-.99292-.06914-1.52758-.11043-3.05624-.11043h-3.16258v1.70719h3.13259a19.57164,19.57164,0,0,0,2.83846-.10322v4.5116a21.82234,21.82234,0,0,0-2.95715-.10322h-3.0139v1.23861c0,1.8868.06917,3.13263.17135,4.41562h-5.60774a38.84278,38.84278,0,0,0,.20644-4.41562V75.40183h-2.342c-1.52866,0-2.09325.0423-3.23585.10322v-4.5116a27.89026,27.89026,0,0,0,3.34213.10322h2.23461V69.38948h-3.32474a21.74669,21.74669,0,0,0-2.49474.11043Zm9.27507.11043a16.61893,16.61893,0,0,0,1.31806-3.23172h-4.20093a16.62653,16.62653,0,0,1,1.35214,3.23172Z" fill="#fff"/>
        <path id="aaa1b04a-3fc5-4537-a666-6fba63921154" data-name="パス 90" d="M315.50469,61.864a21.77029,21.77029,0,0,0,5.18351,8.38118,25.52254,25.52254,0,0,0,9.21,5.78735,23.3676,23.3676,0,0,0-3.55274,5.73059,30.26761,30.26761,0,0,1-7.927-5.47047,24.91979,24.91979,0,0,1-5.582-7.9229,22.3489,22.3489,0,0,1-4.05332,6.42524,26.93979,26.93979,0,0,1-6.03613,5.08857,31.63405,31.63405,0,0,1-3.6941,1.87959,24.23516,24.23516,0,0,0-3.43814-5.32494,22.43947,22.43947,0,0,0,9.35142-6.0774A15.07676,15.07676,0,0,0,308.874,61.8681h-7.14774a34.34228,34.34228,0,0,0-5.01221.21779V56.09934a41.47663,41.47663,0,0,0,4.96572.21778h7.63806c.04233-1.42439.04233-2.23465.04233-3.4113a20.94459,20.94459,0,0,0-.24878-3.819h6.49438a33.92976,33.92976,0,0,0-.2828,6.00514v1.20765h8.09839a43.91149,43.91149,0,0,0,5.01222-.21779v5.98655a39.91571,39.91571,0,0,0-4.9668-.21778Z" fill="#fff"/>
        <path id="fa6d3322-b4ad-44ef-aac6-9327e1b62d00" data-name="パス 91" d="M340.351,69.89007a49.90064,49.90064,0,0,1-3.02216,8.88592c-.18371.46654-.63786,1.42131-1.35214,2.87251l-4.72526-4.04919a6.65781,6.65781,0,0,0,.9589-1.27575,40.00434,40.00434,0,0,0,3.66008-9.55063Zm-5.90195-12.71939a44.59415,44.59415,0,0,1,6.643,4.3702l-3.09033,4.54153a42.25949,42.25949,0,0,0-6.643-4.76035Zm1.3563-8.92a47.39617,47.39617,0,0,1,6.52846,4.51573l-3.43814,4.4383a41.24227,41.24227,0,0,0-6.46754-4.93583Zm21.06749,16.35156a19.05419,19.05419,0,0,0,2.12727,5.79872,18.19156,18.19156,0,0,0,5.971,5.8947,22.85887,22.85887,0,0,0-3.63324,5.18355,23.76936,23.76936,0,0,1-6.81227-7.89194,28.31084,28.31084,0,0,1-2.919-8.985H348.31a42.90188,42.90188,0,0,1-1.4244,9.69619,21.90873,21.90873,0,0,1-3.66008,7.60189,18.78454,18.78454,0,0,0-4.58383-4.01514c3.55683-4.93583,4.366-9.016,4.366-21.98513,0-3.09029-.03509-4.50748-.17237-6.29622a29.59693,29.59693,0,0,0,4.15242.18682h12.4655a25.31172,25.31172,0,0,0,3.84277-.18682c-.11043,1.27162-.15686,2.54841-.14143,3.819v7.56784a33.42454,33.42454,0,0,0,.14143,3.76636,33.14968,33.14968,0,0,0-3.48771-.1414Zm.84431-4.87079V54.647h-9.26676v1.60813c0,1.27266,0,2.29245-.07635,3.47635Z" fill="#fff"/>
        <path id="b72cd2fc-0e20-467a-a00f-22c5d57e1b12" data-name="パス 92" d="M381.6284,50.12512a9.0525,9.0525,0,0,0-.14143-1.84551h5.86376a9.16755,9.16755,0,0,0-.14861,1.91055v1.058h7.78566A39.95807,39.95807,0,0,0,400,51.03447v5.47771c-1.4254-.10322-3.33495-.17548-4.90178-.17548H375.0576v1.55546c0,12.33128-1.14676,18.7689-4.20193,23.95244a18.08135,18.08135,0,0,0-4.3743-4.4383c2.41838-4.33511,3.09032-8.99224,3.09032-20.81981,0-2.67435-.03817-4.26286-.10319-5.51589,1.38313.11868,2.91072.1796,4.68709.1796h7.46052Zm1.60091,10.87179a31.32776,31.32776,0,0,0-.14552-3.87784h5.50455c-.07327.71425-.10319,1.23862-.13728,2.41836h6.87628a31.37943,31.37943,0,0,0,4.01924-.17961v5.26405c-1.20762-.10322-2.52573-.17548-3.84278-.17548h-7.06313v2.55978h6.18474a26.59173,26.59173,0,0,0,3.26269-.1414,33.69617,33.69617,0,0,0-.17135,3.97694v6.04022a39.82651,39.82651,0,0,0,.21778,4.87079h-5.65732v-1.3831H381.264v1.34905h-5.57372a36.40336,36.40336,0,0,0,.21363-4.51573V70.0552c0-1.3418-.04234-2.29245-.11459-3.1863a26.91867,26.91867,0,0,0,3.23585.1414h4.20193Zm-1.96114,14.45962h11.0132V71.96884h-11.008Z" fill="#fff"/>
      </g>
    </g>
  </g>
</svg>
