<svg xmlns="http://www.w3.org/2000/svg" viewBox="0 0 200 400">
  <g id="a159cbf1-e801-4325-973f-aaf8391efc36" data-name="レイヤー 2">
    <g id="e09d2f9a-526e-47d8-a394-92baf044b046" data-name="レイヤー 4">
      <g id="bc19ad20-9100-4649-8dbe-e646bed82425" data-name="グループ 74">
        <g id="a278ed65-d475-4b77-89cc-298c353b1c19" data-name="長方形 26">
          <rect x="1.5" y="1.50012" width="197" height="397" fill="#fff"/>
          <path d="M197,3V397H3V3H197m3-3H0V400H200V0Z" fill="#222"/>
        </g>
        <g id="af79257b-24a6-4c8a-a94c-bd512aa22094" data-name="線 1">
          <path d="M177.19238,77.13977H100a1,1,0,0,1,0-2h77.19238a1,1,0,0,1,0,2Z" fill="#222"/>
        </g>
        <g id="b2b4dcce-887d-41e2-b9fd-4a4ea42c948c" data-name="線 2">
          <path d="M177.19238,116.004H100a1,1,0,0,1,0-2h77.19238a1,1,0,0,1,0,2Z" fill="#222"/>
        </g>
        <g id="e9559fdf-d1a0-475e-ac6e-f6ffbde04720" data-name="線 3">
          <path d="M177.19238,154.86926H100a1,1,0,0,1,0-2h77.19238a1,1,0,0,1,0,2Z" fill="#222"/>
        </g>
        <g id="ee011b69-b601-4e10-ab73-f0b0c2289ba0" data-name="線 4">
          <path d="M22.27246,77.13977a.99943.99943,0,0,1-1-1V9.95813a1,1,0,0,1,2,0V76.13977A.99942.99942,0,0,1,22.27246,77.13977Z" fill="#222"/>
        </g>
        <g id="b2d1421a-1d87-4666-9277-c662755a8089" data-name="線 5">
          <path d="M61.13672,77.13977a.99942.99942,0,0,1-1-1V9.95813a1,1,0,1,1,2,0V76.13977A.99943.99943,0,0,1,61.13672,77.13977Z" fill="#222"/>
        </g>
        <g id="aad3e7c8-b799-4e52-b780-cd753129cfe9" data-name="線 6">
          <path d="M100.001,77.13977a.99942.99942,0,0,1-1-1V9.95813a1,1,0,1,1,2,0V76.13977A.99943.99943,0,0,1,100.001,77.13977Z" fill="#222"/>
        </g>
        <g id="a47d9684-c702-45e5-9f2c-e69bf1c0fb24" data-name="線 7">
          <path d="M177.19238,193.7345H100a1,1,0,0,1,0-2h77.19238a1,1,0,0,1,0,2Z" fill="#222"/>
        </g>
        <g id="ece75011-084d-4924-a0db-e6821727769d" data-name="線 8">
          <path d="M177.19238,232.59778H100a1,1,0,0,1,0-2h77.19238a1,1,0,0,1,0,2Z" fill="#222"/>
        </g>
        <g id="abf13718-a9d5-456b-ad40-1cd88f1eae55" data-name="線 9">
          <path d="M177.19238,271.463H100a1,1,0,0,1,0-2h77.19238a1,1,0,0,1,0,2Z" fill="#222"/>
        </g>
        <g id="a9150174-9982-4335-9bfa-d5dc16fdae50" data-name="線 10">
          <path d="M177.19238,310.32727H100a1,1,0,0,1,0-2h77.19238a1,1,0,0,1,0,2Z" fill="#222"/>
        </g>
        <g id="be451474-4032-434b-b807-a2fd7f930886" data-name="線 11">
          <path d="M177.19238,349.1925H100a1,1,0,0,1,0-2h77.19238a1,1,0,1,1,0,2Z" fill="#222"/>
        </g>
        <g id="eab60557-1092-4c9e-9331-c2d94c6a8926" data-name="グループ 56">
          <path id="a3dee041-ba08-44ba-81f2-4b7d1b5f3ad4" data-name="パス 116" d="M115.02836,328.75932a7.65136,7.65136,0,1,1,0-.01953Zm-14.322,0a6.31507,6.31507,0,1,0-.00122-.012v.012Zm7.78,4.717a.63894.63894,0,0,1-.64868.62915.5975.5975,0,0,1-.07226-.00513c-.4231,0-.721-.22412-.721-.624v-8.2c0-.27294-.04712-.37011-.3-.37011h-.062l-1.12988.01806h-.032a.6001.6001,0,0,1-.56762-.63086c.00073-.01367.00195-.02758.00366-.04126,0-.384.188-.67211.564-.688l1.69507-.032h.063c.94092,0,1.207.33594,1.207,1.3Z"/>
        </g>
        <g id="a026fd35-c118-48c2-88b2-a6d06721787b" data-name="グループ 57">
          <path id="bb561100-265d-4303-8e34-cdbcd7d4c9cd" data-name="パス 117" d="M115.02836,289.89507a7.65235,7.65235,0,1,1,0-.01758Zm-14.322,0a6.31551,6.31551,0,1,0-.00122-.012v.012Zm9.96094,3.83789c.36109,0,.5481.28808.5481.63989a.58528.58528,0,0,1-.5481.655h-5.96094c-.533,0-.8-.271-.8-.8479,0-.8.675-2.66895,2.93188-4.10889l.864-.56006c1.47412-.927,1.8191-1.39111,1.8191-2.34912,0-.91211-.76807-1.47192-1.91407-1.47192a1.98406,1.98406,0,0,0-2.14892,1.728.63811.63811,0,0,1-.658.479,1.09741,1.09741,0,0,1-.219-.01489.67411.67411,0,0,1-.54907-.624,1.21663,1.21663,0,0,1,.031-.22412,3.34407,3.34407,0,0,1,3.60791-2.60693c2.02392,0,3.32495,1.03906,3.32495,2.8,0,1.45605-.67407,2.208-2.19995,3.135l-.81592.512a5.37911,5.37911,0,0,0-2.572,2.86206Z"/>
        </g>
        <g id="b2b039e7-ef72-40f2-bf0a-4f81128f4d85" data-name="グループ 58">
          <path id="bdbb8a66-c465-4e0e-97c1-e6cb1b4f06fd" data-name="パス 118" d="M115.31937,251.02617a7.64954,7.64954,0,1,1,0-.02075Zm-14.6001,0a6.93995,6.93995,0,1,0,6.93994-6.93994h0a6.93282,6.93282,0,0,0-6.939,6.927v.01294Zm5.96411.43189c-.36792,0-.52807-.28809-.52807-.624,0-.32007.15991-.63891.5-.63891h.032l.78394.031h.12793a1.72642,1.72642,0,0,0,1.967-1.759,1.67257,1.67257,0,0,0-1.89991-1.679,1.923,1.923,0,0,0-2.01489,1.343.5997.5997,0,0,1-.592.384,1.347,1.347,0,0,1-.36792-.064.682.682,0,0,1-.46411-.60791.6472.6472,0,0,1,.0481-.239c.46411-1.2,1.47192-2.0481,3.437-2.0481,2.01611,0,3.32788,1.05493,3.32788,2.76807a2.286,2.286,0,0,1-1.8999,2.46093,2.42,2.42,0,0,1,2.22729,2.59839l-.00342.04053c0,1.74292-1.376,2.9751-3.74292,2.9751-1.93506,0-3.15088-.73609-3.679-2.0791a.93.93,0,0,1-.0481-.272.65677.65677,0,0,1,.544-.624,1.078,1.078,0,0,1,.3-.0481.626.626,0,0,1,.624.43189,2.1259,2.1259,0,0,0,2.28711,1.3269c1.29492,0,2.207-.7,2.207-1.854,0-1.18311-.81494-1.84009-2.239-1.84009h-.15992Z" fill="#c00"/>
        </g>
        <g id="b6b94309-e40d-4195-848c-49397182417e" data-name="グループ 59">
          <path id="a85ab50f-55cd-4a01-8c49-64146ffdb366" data-name="パス 119" d="M115.31937,212.16606a7.651,7.651,0,1,1,0-.01977Zm-14.6001,0a7.57877,7.57877,0,1,0,.001-.012v.012Zm3.14893,2.7a.77387.77387,0,0,1-.86011-.677.7647.7647,0,0,1-.00293-.155,1.69922,1.69922,0,0,1,.46411-1.136l4.04493-5.468a1.34086,1.34086,0,0,1,1.21508-.656.726.726,0,0,1,.81592.81592V213.618h1.21411c.386,0,.5459.24.5459.60693s-.15991.64111-.5459.64111H109.5452v2.0149c0,.3999-.239.60791-.687.60791-.417,0-.657-.209-.657-.60791V214.866Zm1.26392-2.12793a8.758,8.758,0,0,1-.8.9441c.28808-.01612.832-.0481,1.0559-.0481h2.83008v-3.325c0-.6709.03394-1.39111.06494-2.14307-.354.57593-.8479,1.32788-1.21606,1.83911Z" fill="#c00"/>
        </g>
        <g id="f72ce8d7-64f7-4782-84de-8013614cde3f" data-name="グループ 60">
          <path id="eb884a6b-b89f-4b79-8288-62f87afa1bf0" data-name="パス 120" d="M115.31937,173.30132a7.64954,7.64954,0,1,1,0-.02075Zm-14.6001,0a6.93995,6.93995,0,1,0,6.93994-6.93994h0a6.93282,6.93282,0,0,0-6.939,6.927v.01294Zm4.10889-4.25293a.87469.87469,0,0,1,.94189-.8999H110.409a.56514.56514,0,0,1,.51318.61254l-.00122.01148a.57425.57425,0,0,1-.50219.63794l-.00977.001h-4.10889a.23619.23619,0,0,0-.26855.19825.23969.23969,0,0,0-.00244.04174l-.2251,2.28711a5.65741,5.65741,0,0,1-.11206.66993,3.05194,3.05194,0,0,1,2.31909-.9441,3.19111,3.19111,0,0,1,3.3772,2.99317,3.24811,3.24811,0,0,1-.0044.44678,3.42436,3.42436,0,0,1-3.66088,3.6289,3.50026,3.50026,0,0,1-3.39112-1.758.78032.78032,0,0,1-.1001-.353.68286.68286,0,0,1,.39991-.60694,1.03664,1.03664,0,0,1,.416-.10009.55713.55713,0,0,1,.543.35205,2.19972,2.19972,0,0,0,2.08008,1.2,2.16651,2.16651,0,0,0,2.238-2.33594,2.06567,2.06567,0,0,0-2.14307-2.269,2.1511,2.1511,0,0,0-1.87109.90991c-.25611.3-.43189.416-.7.416a.736.736,0,0,1-.176-.01612.62979.62979,0,0,1-.64111-.61865c-.00049-.01782,0-.03564.00122-.05347v-.08007Z" fill="#c00"/>
        </g>
        <g id="a19ac04d-b91c-4d43-943e-f8c1a94b52df" data-name="グループ 61">
          <path id="b7b60f63-475f-420a-ab96-3bc43ccbc0a9" data-name="パス 121" d="M115.31937,134.43706a7.65051,7.65051,0,1,1,0-.0188Zm-14.6001,0a6.93995,6.93995,0,1,0,6.93994-6.93994h0a6.93282,6.93282,0,0,0-6.939,6.927v.01294Zm7.26-1.615a3.17637,3.17637,0,0,1,3.42115,3.406,3.38916,3.38916,0,0,1-3.20337,3.565,3.43929,3.43929,0,0,1-.36158,0c-2.479,0-3.967-1.80494-3.967-5.2,0-3.45508,1.312-5.54908,4.061-5.54908a3.077,3.077,0,0,1,3.04,1.77588.573.573,0,0,1,.0791.3.63415.63415,0,0,1-.49512.57593.71915.71915,0,0,1-.32007.064.64824.64824,0,0,1-.592-.352,1.752,1.752,0,0,0-1.824-1.15088c-1.62891,0-2.542,1.45508-2.58911,4.1731a2.89282,2.89282,0,0,1,2.752-1.60791Zm-2.479,3.45288a2.236,2.236,0,0,0,2.18359,2.28711c.03467.00073.06909.00073.10352,0a2.14771,2.14771,0,0,0,2.207-2.31909,2.06177,2.06177,0,0,0-2.176-2.2229,2.21911,2.21911,0,0,0-2.31543,2.11841c-.002.04638-.00268.093-.0017.13964Z"/>
        </g>
        <g id="f2c5fd71-52a8-4c3a-9195-ee91083bccc7" data-name="グループ 62">
          <path id="a8d7b28f-1216-46ef-becf-5ee4dbd36991" data-name="パス 122" d="M115.31937,95.57207a7.64954,7.64954,0,1,1,0-.02075Zm-14.6001,0a6.93995,6.93995,0,1,0,6.93994-6.93994h0a6.93282,6.93282,0,0,0-6.939,6.927v.01294Zm3.709-3.437a.659.659,0,0,1,0-1.311h6.02905c.59106,0,.83081.271.83081.73609a1.74185,1.74185,0,0,1-.479,1.13305,20.8981,20.8981,0,0,0-3.24707,7.89991.6892.6892,0,0,1-.7168.66015c-.01709-.00073-.03418-.0022-.05127-.00415h-.064c-.43091-.01611-.73609-.22412-.73609-.63891a.62.62,0,0,1,.01709-.176,23.35942,23.35942,0,0,1,3.6001-8.3Z"/>
        </g>
        <g id="f44b6844-89e0-4d62-b264-be6ac0577e6b" data-name="グループ 63">
          <path id="e2255548-17ee-4058-9b93-2f7914b9f19d" data-name="パス 123" d="M88.22831,68.48027a7.66,7.66,0,1,1-7.66016-7.65991h.00122a7.65006,7.65006,0,0,1,7.65894,7.64111Zm-14.6001,0a6.93994,6.93994,0,1,0,6.93994-6.93994h0a6.93209,6.93209,0,0,0-6.939,6.925v.01489Zm3.47-2.719c0-1.53491,1.24805-2.6709,3.47-2.6709,2.14209,0,3.5,1.12012,3.5,2.63892a2.231,2.231,0,0,1-1.87207,2.415,2.5,2.5,0,0,1,2.2561,2.62208c0,1.8999-1.408,3.071-3.885,3.071-2.447,0-3.87109-1.167-3.87109-3.05493a2.55509,2.55509,0,0,1,2.28711-2.63794,2.243,2.243,0,0,1-1.884-2.3833Zm1.05493,4.94092c0,1.18408.8999,1.8999,2.416,1.8999s2.429-.73609,2.429-1.8999-.94189-1.887-2.429-1.887c-1.45484.001-2.415.721-2.415,1.88794Zm.36792-4.8c0,1.08789.81592,1.679,2.063,1.679,1.231,0,2.063-.57593,2.063-1.679,0-.9751-.81494-1.62989-2.07788-1.62989-1.23194.00293-2.04785.65894-2.04785,1.63282Z"/>
        </g>
        <g id="be371046-7ff8-480c-99a0-b47a3f0a26dd" data-name="グループ 64">
          <path id="bf6a1655-277a-48d3-912b-4c85423331b9" data-name="パス 124" d="M49.3621,68.48027a7.64954,7.64954,0,1,1,0-.02075Zm-14.6001,0a6.93994,6.93994,0,1,0,6.93994-6.93994h0a6.9321,6.9321,0,0,0-6.93872,6.92529v.01465Zm6.748,1.56812a3.25,3.25,0,0,1-3.407-3.085q-.00805-.16115,0-.322a3.35038,3.35038,0,0,1,3.615-3.551c2.446,0,3.89991,1.759,3.89991,5.11694,0,3.615-1.248,5.62891-3.96607,5.62891a3.1002,3.1002,0,0,1-3.1001-1.76.50007.50007,0,0,1-.063-.25488.65011.65011,0,0,1,.46412-.60791.9534.9534,0,0,1,.35107-.064.63339.63339,0,0,1,.593.352,1.84,1.84,0,0,0,1.887,1.1001c1.887,0,2.46094-1.9519,2.49512-4.158a2.93611,2.93611,0,0,1-2.76782,1.60449Zm-1.98388-3.471a2.11762,2.11762,0,0,0,2.19189,2.28589,2.28712,2.28712,0,1,0,.0481-4.574,2.14592,2.14592,0,0,0-2.2417,2.0459,2.18039,2.18039,0,0,0,.00268.24292Z"/>
        </g>
        <g id="e124e20e-aeae-4277-b00c-d7fa5ebd1d5b" data-name="グループ 65">
          <path id="a7a3bb89-c7bc-4612-a994-e4d9a3e9bfe2" data-name="パス 125" d="M132.24027,97.25127a9.22584,9.22584,0,0,1-.54492,2.06689,7.18816,7.18816,0,0,1-1.46582,2.3169,3.09689,3.09689,0,0,0-.73389-.70508,5.60977,5.60977,0,0,0,1.57422-2.61206,21.35312,21.35312,0,0,0,.52-5.864c0-1.22706-.01514-1.759-.05322-2.2649a11.263,11.263,0,0,0,1.3999.06592h5.01123A10.70285,10.70285,0,0,0,139.335,90.189a11.69993,11.69993,0,0,0-.0542,1.37207v8.77a1.01239,1.01239,0,0,1-.37305.93311,1.92876,1.92876,0,0,1-1.06494.17407c-.43994,0-1-.01294-1.6001-.053a3.62147,3.62147,0,0,0-.21191-.907,13.33432,13.33432,0,0,0,1.8999.13306c.38721,0,.49512-.08008.49512-.41309V97.25322Zm6.18408-.8V94.07915H132.4805c-.01416.73291-.041,1.24-.147,2.37207Zm0-3.1709V91.06743H132.4932L132.48,92.9605v.32007Z"/>
          <path id="a4fb9e1e-9bc2-462b-a4e1-2167ab6307cc" data-name="パス 126" d="M144.07181,90.86821a7.81363,7.81363,0,0,0-.06787-1.37207h.90723a9.15778,9.15778,0,0,0-.06592,1.35889v1.26489h.36084a5.02733,5.02733,0,0,0,.86523-.053v.82593a4.368,4.368,0,0,0-.854-.053h-.34521a5.71618,5.71618,0,0,0,1.25195,2.3999,3.22771,3.22771,0,0,0-.415.73291,7.1502,7.1502,0,0,1-.918-1.97192c.04,1.15894.05322,1.426.05322,1.93188v4.2a10.33818,10.33818,0,0,0,.082,1.52h-.935a11.20381,11.20381,0,0,0,.082-1.5459v-3.759c0-.572.02685-1.23706.06592-2.052a12.58379,12.58379,0,0,1-1.49219,3.959,2.67942,2.67942,0,0,0-.521-.72,12.68994,12.68994,0,0,0,1.853-4.68995h-.5332a7.18718,7.18718,0,0,0-.93311.06592V92.0706a5.59913,5.59913,0,0,0,.93311.053h.62695Zm1.50489,9.38111a9.47752,9.47752,0,0,0,1.37207.08007h6.18408a9.1928,9.1928,0,0,0,1.3999-.08007v.906a10.84219,10.84219,0,0,0-1.41309-.06592h-6.18505a10.17426,10.17426,0,0,0-1.35791.06592Zm3.86376-9.38111a9.78321,9.78321,0,0,1-.45312,1.30493h.53516a7.42274,7.42274,0,0,0,1.06494-.04c-.02686.52-.02686.52-.06592,1.89307a33.20443,33.20443,0,0,1-.35986,4.7561c-.186.84009-.44,1.04-1.27979,1.04a11.42451,11.42451,0,0,1-1.15918-.06591,2.451,2.451,0,0,0-.146-.812,6.38262,6.38262,0,0,0,1.27978.15992c.49219,0,.53223-.08106.68115-1.25391a45.05528,45.05528,0,0,0,.227-5.01h-1.17382c-.01319,0-.27979.01294-.78711.0271a8.752,8.752,0,0,0,.82714-2H147.1641a13.04621,13.04621,0,0,0-1.38477.06592v-.87793a9.79706,9.79706,0,0,0,1.3999.0791H152.979a9.35229,9.35229,0,0,0,1.41211-.0791v.87793a13.27357,13.27357,0,0,0-1.3999-.06592Zm-2.477,7.209c-.26709,0-.45312.01294-.73291.0271.01319-.25391.02588-.50708.02588-.813V94.25224a6.14235,6.14235,0,0,0-.041-.74609,7.083,7.083,0,0,0,.814.041h.87891a7.01189,7.01189,0,0,0,.86523-.041,5.19475,5.19475,0,0,0-.0249.708V97.4251c0,.21289.01416.3999.0249.67993-.37207-.0271-.50488-.0271-.73193-.0271Zm0-.667h1.07911V94.19927h-1.07911Zm7.26123-4.33105a12.94176,12.94176,0,0,1-1.185,3.97192,5.945,5.945,0,0,0,1.65087,1.85108,2.36373,2.36373,0,0,0-.46679.72,8.18222,8.18222,0,0,1-1.6001-1.87891,8.58049,8.58049,0,0,1-1.74707,1.94507,1.89984,1.89984,0,0,0-.519-.613,6.77834,6.77834,0,0,0,1.86523-2.012,10.24038,10.24038,0,0,1-1.03906-3.55908,3.60738,3.60738,0,0,0-.41309.041v-.78589a6.78966,6.78966,0,0,0,1.05176.053h1.48c.27979,0,.50684-.01294.75879-.0271Zm-2.34521.426a8.10461,8.10461,0,0,0,.74707,2.8,9.10474,9.10474,0,0,0,.75977-2.8Z"/>
        </g>
        <g id="ff9adf60-cf85-4117-82a1-6c15e485122c" data-name="グループ 66">
          <path id="b3523671-a95e-4b6e-b8d6-e56f3e048ba4" data-name="パス 127" d="M132.24027,136.11431a9.20037,9.20037,0,0,1-.54492,2.06689,7.19767,7.19767,0,0,1-1.46582,2.31909,3.0729,3.0729,0,0,0-.73389-.707,5.59932,5.59932,0,0,0,1.57422-2.61206,21.34526,21.34526,0,0,0,.52-5.863c0-1.22705-.01514-1.76-.05322-2.26489a11.26234,11.26234,0,0,0,1.3999.06494h5.01123a10.70215,10.70215,0,0,0,1.38721-.06494,11.59453,11.59453,0,0,0-.0542,1.37207v8.76807a1.01237,1.01237,0,0,1-.37305.9331,1.91787,1.91787,0,0,1-1.06494.17407c-.43994,0-1-.01293-1.6001-.053a3.63562,3.63562,0,0,0-.21191-.906,13.19264,13.19264,0,0,0,1.8999.13306c.38721,0,.49512-.08008.49512-.41309V136.1165Zm6.18408-.8v-2.367H132.4805c-.01416.73194-.041,1.239-.147,2.37207Zm0-3.17212v-2.21192H132.4932l-.01318,1.89405v.323Z"/>
          <path id="f57cde6f-cc85-41aa-bd43-8a797d914c13" data-name="パス 128" d="M144.07181,129.73223a7.81353,7.81353,0,0,0-.06787-1.37207h.90723a9.1741,9.1741,0,0,0-.06592,1.3601v1.2649h.36084a5.15574,5.15574,0,0,0,.86523-.053v.8269a4.34874,4.34874,0,0,0-.854-.053h-.34521a5.7302,5.7302,0,0,0,1.25195,2.3999,3.1976,3.1976,0,0,0-.415.73194,7.11625,7.11625,0,0,1-.918-1.97193c.04,1.15894.05322,1.426.05322,1.93189v4.2a10.39442,10.39442,0,0,0,.082,1.519h-.935a11.22134,11.22134,0,0,0,.082-1.54712v-3.75708c0-.573.02685-1.239.06592-2.052a12.58057,12.58057,0,0,1-1.49219,3.958,2.71619,2.71619,0,0,0-.521-.72,12.69525,12.69525,0,0,0,1.853-4.689h-.5332a6.94,6.94,0,0,0-.93311.0669v-.84009a5.73385,5.73385,0,0,0,.93311.053h.62695Zm1.50489,9.3811a9.27488,9.27488,0,0,0,1.37207.08008h6.18408a8.98,8.98,0,0,0,1.3999-.08008v.907a10.75758,10.75758,0,0,0-1.41309-.06689h-6.18505a10.135,10.135,0,0,0-1.35791.06689Zm3.86376-9.3811a9.80977,9.80977,0,0,1-.45312,1.30688h.53516a7.67906,7.67906,0,0,0,1.06494-.04c-.02686.519-.02686.519-.06592,1.89307a33.27545,33.27545,0,0,1-.35986,4.7561c-.186.84009-.44,1.03906-1.27979,1.03906a10.88045,10.88045,0,0,1-1.15918-.06689,2.451,2.451,0,0,0-.146-.812,6.38333,6.38333,0,0,0,1.27978.15991c.49219,0,.53223-.08008.68115-1.25195a45.18882,45.18882,0,0,0,.227-5.011h-1.17382c-.01319,0-.27979.01294-.78711.0249a8.69935,8.69935,0,0,0,.82714-2H147.1641a13.37838,13.37838,0,0,0-1.38477.0669v-.87891a9.723,9.723,0,0,0,1.3999.08008H152.979a9.28606,9.28606,0,0,0,1.41211-.08008v.87891a13.6101,13.6101,0,0,0-1.3999-.0669Zm-2.477,7.21093c-.26709,0-.45312.012-.73291.02491.01319-.252.02588-.50708.02588-.812v-3.04a6.12618,6.12618,0,0,0-.041-.74511,7.36872,7.36872,0,0,0,.814.04h.87891a7.36993,7.36993,0,0,0,.86523-.04,5.18036,5.18036,0,0,0-.0249.707v3.21c0,.21509.01416.3999.0249.67993-.37207-.0249-.50488-.0249-.73193-.0249Zm0-.667h1.07911v-3.21191h-1.07911Zm7.26123-4.33105a12.93593,12.93593,0,0,1-1.185,3.97094,5.95382,5.95382,0,0,0,1.65087,1.85205,2.361,2.361,0,0,0-.46679.72,8.16989,8.16989,0,0,1-1.6001-1.8789,8.62466,8.62466,0,0,1-1.74707,1.94507,1.86927,1.86927,0,0,0-.519-.613,6.797,6.797,0,0,0,1.86523-2.012,10.24037,10.24037,0,0,1-1.03906-3.55909,3.84038,3.84038,0,0,0-.41309.04v-.78711a6.58409,6.58409,0,0,0,1.05176.053h1.48c.27979,0,.50684-.012.75879-.0249Zm-2.34521.426a8.11553,8.11553,0,0,0,.74707,2.8,9.10474,9.10474,0,0,0,.75977-2.8Z"/>
        </g>
        <g id="b83ab869-698d-4cbd-aff4-22c87f1eb305" data-name="グループ 67">
          <path id="abc3565a-c16c-440c-a567-7994e8da87b1" data-name="パス 129" d="M132.58207,174.50908a5.46825,5.46825,0,0,0-.31787.814,8.97473,8.97473,0,0,1-1.27979,2.4309,9.633,9.633,0,0,0,4.44482.656,50.83267,50.83267,0,0,0,5.627-.2561,9.87811,9.87811,0,0,0-.58985,2.383c-.99121.032-3.023.064-4,.064a18.545,18.545,0,0,1-4.98877-.384,6.0227,6.0227,0,0,1-2.04785-.863,10.50467,10.50467,0,0,1-2.686,1.583,7.10964,7.10964,0,0,0-1.2002-2.12793,7.69891,7.69891,0,0,0,2.35108-.991c-.17676-.2561-.24024-.35108-.51319-.8a10.42019,10.42019,0,0,1-.94384.8,6.9226,6.9226,0,0,0-.94288-2.095,5.5106,5.5106,0,0,0,2.04688-2.542h-.16016a11.98755,11.98755,0,0,0-1.47119.06494v-2.01612a11.75,11.75,0,0,0,1.47119.064h.76905v-.52808h-.51026a8.52127,8.52127,0,0,0-1.26513.0481v-1.84009c.4331.03394.688.05,1.26513.05h.51123v-.512h-.55908a12.92381,12.92381,0,0,0-1.49023.064v-2a12.29741,12.29741,0,0,0,1.49023.063h.55908v-.095a4.25783,4.25783,0,0,0-.08008-.87988h2.38282a4.00081,4.00081,0,0,0-.08008.87988v.095h.479a9.286,9.286,0,0,0,1.29981-.062v1.98193c-.35205-.032-.73584-.04809-1.18408-.04809h-.5918v.512h.64013a8.84533,8.84533,0,0,0,1.03907-.05v1.824a9.11537,9.11537,0,0,0-1.03907-.032H130.377v.52808h1.1001a6.24631,6.24631,0,0,0,.84619-.0481v1.98194a4.07375,4.07375,0,0,0-.84619-.0481H129.75a5.48121,5.48121,0,0,1-.19288.52808h.72022a6.67537,6.67537,0,0,0,1.24805-.08008Zm-3.87012.90991a4.78663,4.78663,0,0,0,.65723,1.072,4.569,4.569,0,0,0,.63916-1.072Zm6.57324-6.508a6.96114,6.96114,0,0,0,.208-.66993h-1.728a12.46746,12.46746,0,0,0-1.26318.0459V166.097a11.96284,11.96284,0,0,0,1.791.08008h4.62305a12.80938,12.80938,0,0,0,1.87109-.08008v2.208a17.36033,17.36033,0,0,0-1.855-.064h-1.23193a4.6885,4.6885,0,0,1-.19092.66993h1.375c.99414,0,1.24805,0,1.6001-.032-.03223.39991-.04883.688-.04883,1.32691v6.156a9.89654,9.89654,0,0,0,.04883,1.408c-.44824-.031-.87988-.04809-1.376-.04809h-5.37207c-.56006,0-.81591.01806-1.12011.032.03418-.544.04785-.84692.04785-1.4231v-6a14.472,14.472,0,0,0-.04785-1.45507,11.35856,11.35856,0,0,0,1.26318.032Zm-.3999,1.728h-.5v5.30811h.5Zm1.26514,0v.815h.72021v-.815Zm0,3.03809h.72021v-.8479h-.72021Zm.72021,1.375h-.72021v.8999h.72021Zm1.26318.8999h.50635v-5.3081H138.128Z" fill="#c00"/>
          <path id="f5b2238e-4249-4a66-9a09-e907de97f940" data-name="パス 130" d="M142.26517,167.56914c.27295.01489.481.01489.60889.01489.415,0,.99023-.032,2.73291-.144,2.2998-.14307,3.855-.2229,6.89209-.335l1.648-.06494.67187-.03c.543-.01612.63916-.03394.72022-.03394a1.33254,1.33254,0,0,0,.36621-.062l.144,2.89307a2.43892,2.43892,0,0,0-.44824-.032,7.50134,7.50134,0,0,0-3.66309,1.12012,4.59367,4.59367,0,0,0-2.541,3.62988,2.04287,2.04287,0,0,0,1.34277,1.98291,8.4443,8.4443,0,0,0,3.05518.57593c.12695,0,.24023,0,.479-.01611l-.36816,3.03711a3.99949,3.99949,0,0,0-.58985-.0791,12.15457,12.15457,0,0,1-4.04785-.89991,4.54643,4.54643,0,0,1-2.86084-4.3811,5.4765,5.4765,0,0,1,1.35889-3.615,6.59056,6.59056,0,0,1,1.56689-1.36011l-.752.082c-.352.03-.91211.07789-3.8999.32007a17.47756,17.47756,0,0,0-2.25391.3Zm11.33789,3.646a10.29708,10.29708,0,0,1,1.55078,2.31909l-1.53418.7a9.95454,9.95454,0,0,0-1.55078-2.36792Zm2.14307-.927a11.09175,11.09175,0,0,1,1.56787,2.25293l-1.48779.688a11.376,11.376,0,0,0-1.519-2.3Z" fill="#c00"/>
          <path id="b0fb187f-c14f-452b-87d4-611af21c44fa" data-name="パス 131" d="M160.2161,166.54424a17.87093,17.87093,0,0,0,2.2998.11206c1.42286,0,3.2002-.063,4.813-.19092a3.22208,3.22208,0,0,0,1.21485-.22412l1.312,1.93506a17.40919,17.40919,0,0,0-2.57422,2.095c-.84815.72-1.13477.96-2.207,1.74389a7.6642,7.6642,0,0,1,2.19092-.28808,4.92349,4.92349,0,0,1,3.42187,1.08691,3.55157,3.55157,0,0,1,1.167,2.76807,4.18143,4.18143,0,0,1-2.20507,3.75708,8.71363,8.71363,0,0,1-4.23877,1.00708c-2.7002,0-4.34913-1.071-4.34913-2.84692,0-1.48707,1.32618-2.55909,3.18116-2.55909a3.684,3.684,0,0,1,3.60009,2.4939,1.79275,1.79275,0,0,0,1.26221-1.741c0-1.12011-1.08594-1.8081-2.86084-1.8081a9.20092,9.20092,0,0,0-4.92578,1.47192,11.77724,11.77724,0,0,0-1.53516,1.2l-1.48681-2.43091a35.29651,35.29651,0,0,0,6.82812-5.2771c-.84814.1001-1.48681.126-3.74316.239-.43115.01806-.73389.04907-1.05518.08105Zm3.96582,10.427a.55212.55212,0,0,0-.62061.47363.494.494,0,0,0-.00439.05347c0,.43188.51221.69995,1.376.69995a2.41021,2.41021,0,0,0,.52783-.0481c-.20654-.76416-.65479-1.178-1.27881-1.178Z" fill="#c00"/>
        </g>
        <g id="a6fc3134-4015-45f8-b8ca-3d4d55d88b73" data-name="グループ 68">
          <path id="b6b7ebfb-b2e6-4a09-b695-c283a81bd93d" data-name="パス 132" d="M132.58207,213.37309a5.42894,5.42894,0,0,0-.31787.81592,8.97479,8.97479,0,0,1-1.27979,2.43091,9.62937,9.62937,0,0,0,4.44482.655,51.25071,51.25071,0,0,0,5.627-.25391,9.8678,9.8678,0,0,0-.58985,2.38208c-.99121.031-3.023.064-4,.064a18.6063,18.6063,0,0,1-4.98877-.384,5.992,5.992,0,0,1-2.04785-.864,10.508,10.508,0,0,1-2.686,1.584,7.10964,7.10964,0,0,0-1.2002-2.12793,7.72207,7.72207,0,0,0,2.35108-.991c-.17676-.25708-.24024-.35205-.51319-.8a10.65109,10.65109,0,0,1-.94384.8,6.93868,6.93868,0,0,0-.94288-2.1001,5.49773,5.49773,0,0,0,2.04688-2.542h-.16016a12.38872,12.38872,0,0,0-1.47119.06494v-2.01611a11.70642,11.70642,0,0,0,1.47119.064h.76905v-.5271h-.51026a8.58806,8.58806,0,0,0-1.26513.0481v-1.84009c.4331.032.688.0481,1.26513.0481h.51123v-.512h-.55908a13.14992,13.14992,0,0,0-1.49023.064v-2a12.19935,12.19935,0,0,0,1.49023.064h.55908v-.095a4.279,4.279,0,0,0-.08008-.88208h2.38282a4.02206,4.02206,0,0,0-.08008.88208v.095h.479a9.24947,9.24947,0,0,0,1.29981-.064v1.98291c-.35205-.031-.73584-.0481-1.18408-.0481h-.5918v.512h.64013a9.28862,9.28862,0,0,0,1.03907-.0481v1.823a9.52333,9.52333,0,0,0-1.03907-.031H130.377v.5271h1.1001a6.2463,6.2463,0,0,0,.84619-.04809v1.98291a4.0236,4.0236,0,0,0-.84619-.0481H129.75c-.064.208-.1001.28809-.19288.53h.72022a6.65563,6.65563,0,0,0,1.24805-.082Zm-3.87012.91211a4.834,4.834,0,0,0,.65723,1.072,4.59094,4.59094,0,0,0,.63916-1.072Zm6.57324-6.509a6.908,6.908,0,0,0,.208-.6709h-1.728c-.60693,0-.92676.01612-1.26318.04712v-2.189a11.99557,11.99557,0,0,0,1.791.0791h4.62305a12.879,12.879,0,0,0,1.87109-.0791v2.207a17.75107,17.75107,0,0,0-1.855-.064h-1.23193a4.6376,4.6376,0,0,1-.19092.6709h1.375c.99414,0,1.24805,0,1.6001-.031-.03223.3999-.04883.687-.04883,1.3269v6.156a9.89635,9.89635,0,0,0,.04883,1.40795c-.44824-.032-.87988-.04907-1.376-.04907h-5.37207c-.56006,0-.81591.01807-1.12011.033.03418-.54394.04785-.8479.04785-1.42407v-6a14.42852,14.42852,0,0,0-.04785-1.45288,11.91681,11.91681,0,0,0,1.26318.031Zm-.3999,1.728h-.5v5.30908h.5Zm1.26514,0v.81494h.72021v-.81494Zm0,3.03808h.72021v-.8479h-.72021Zm.72021,1.375h-.72021v.89991h.72021Zm1.26318.89991h.50635V209.5081H138.128Z" fill="#c00"/>
          <path id="bfdfb476-8e5e-46c3-b8b2-da4d849f61bd" data-name="パス 133" d="M142.26517,206.43315c.27295.01612.481.01612.60889.01612.415,0,.99023-.033,2.73291-.145,2.2998-.14307,3.855-.22095,6.89209-.333l1.648-.06494.67187-.032c.543-.0149.63916-.032.72022-.032a1.3349,1.3349,0,0,0,.36621-.064l.144,2.8999a2.2973,2.2973,0,0,0-.44824-.03394,7.51833,7.51833,0,0,0-3.66309,1.12012,4.59962,4.59962,0,0,0-2.541,3.63111,2.04164,2.04164,0,0,0,1.34277,1.98193,8.41153,8.41153,0,0,0,3.05518.57593c.12695,0,.24023,0,.479-.01612l-.36816,3.03907a3.75527,3.75527,0,0,0-.58985-.08008,12.08072,12.08072,0,0,1-4.04785-.8999,4.545,4.545,0,0,1-2.86084-4.38208,5.4794,5.4794,0,0,1,1.35889-3.614,6.585,6.585,0,0,1,1.56689-1.36011l-.752.082c-.352.031-.91211.08007-3.8999.32006a17.07874,17.07874,0,0,0-2.25391.3Zm11.33789,3.646a10.27,10.27,0,0,1,1.55078,2.31909l-1.53418.7a9.949,9.949,0,0,0-1.55078-2.36694Zm2.14307-.928a11.12374,11.12374,0,0,1,1.56787,2.25391l-1.48779.687a11.43058,11.43058,0,0,0-1.519-2.30005Z" fill="#c00"/>
          <path id="ae0c6f73-c43d-4bbf-9f20-8a40486fe32d" data-name="パス 134" d="M160.2161,205.41118a18.27842,18.27842,0,0,0,2.2998.11206c1.42286,0,3.2002-.064,4.813-.19311a3.19194,3.19194,0,0,0,1.21485-.22413l1.312,1.93506a17.3621,17.3621,0,0,0-2.57422,2.1001c-.84815.72-1.13477.958-2.207,1.74292a7.64734,7.64734,0,0,1,2.19092-.28809,4.91723,4.91723,0,0,1,3.42187,1.0879,3.54953,3.54953,0,0,1,1.167,2.76709,4.17842,4.17842,0,0,1-2.20507,3.75805,8.69909,8.69909,0,0,1-4.23877,1.00611c-2.7002,0-4.34913-1.071-4.34913-2.84693,0-1.48706,1.32618-2.55908,3.18116-2.55908a3.68215,3.68215,0,0,1,3.60009,2.5,1.80007,1.80007,0,0,0,1.26221-1.74292c0-1.12012-1.08594-1.80811-2.86084-1.80811a9.19253,9.19253,0,0,0-4.92578,1.47193,11.77724,11.77724,0,0,0-1.53516,1.2l-1.48681-2.43091a35.176,35.176,0,0,0,6.82812-5.2771c-.84814.1001-1.48681.12793-3.74316.24-.43115.01807-.73389.0481-1.05518.08008Zm3.96582,10.425a.55212.55212,0,0,0-.62061.47363.494.494,0,0,0-.00439.05347c0,.4331.51221.70605,1.376.70605a2.44058,2.44058,0,0,0,.52783-.04809C165.25419,216.25127,164.80594,215.83623,164.18192,215.83623Z" fill="#c00"/>
        </g>
        <g id="f296f781-bbdd-49de-9908-84f14cde84ae" data-name="グループ 69">
          <path id="afcc6990-3fea-44d1-940f-50bf6d128b6a" data-name="パス 135" d="M132.58207,252.23906a5.46976,5.46976,0,0,0-.31787.81494,8.97479,8.97479,0,0,1-1.27979,2.43091,9.63587,9.63587,0,0,0,4.44482.654,50.89181,50.89181,0,0,0,5.627-.2539,9.86768,9.86768,0,0,0-.58985,2.38208c-.99121.032-3.023.064-4,.064a18.58674,18.58674,0,0,1-4.98877-.384,5.99214,5.99214,0,0,1-2.04785-.864,10.54585,10.54585,0,0,1-2.686,1.584,7.09321,7.09321,0,0,0-1.2002-2.12793,7.71076,7.71076,0,0,0,2.35108-.991c-.17676-.2561-.24024-.352-.51319-.8a10.42019,10.42019,0,0,1-.94384.8,6.89363,6.89363,0,0,0-.94288-2.095,5.5172,5.5172,0,0,0,2.04688-2.542h-.16016a12.43825,12.43825,0,0,0-1.47119.063v-2.01489a11.61275,11.61275,0,0,0,1.47119.064h.76905v-.52808h-.51026a8.58806,8.58806,0,0,0-1.26513.0481v-1.84009c.4331.033.688.0481,1.26513.0481h.51123v-.51h-.55908a13.31866,13.31866,0,0,0-1.49023.063v-2a11.96215,11.96215,0,0,0,1.49023.064h.55908v-.095a4.25783,4.25783,0,0,0-.08008-.87988h2.38282a4.00081,4.00081,0,0,0-.08008.87988v.095h.479a9.03443,9.03443,0,0,0,1.29981-.064v1.98388c-.35205-.032-.73584-.04809-1.18408-.04809h-.5918v.51h.64013a8.95093,8.95093,0,0,0,1.03907-.0481v1.823a9.52333,9.52333,0,0,0-1.03907-.031H130.377v.52808h1.1001a5.90657,5.90657,0,0,0,.84619-.05v1.98389a4.07375,4.07375,0,0,0-.84619-.0481H129.75c-.064.208-.1001.28589-.19288.52808h.72022a6.80144,6.80144,0,0,0,1.24805-.08008ZM128.712,253.15a4.78663,4.78663,0,0,0,.65723,1.072,4.569,4.569,0,0,0,.63916-1.072Zm6.57324-6.509a6.87384,6.87384,0,0,0,.208-.66993h-1.728a12.193,12.193,0,0,0-1.26318.0481v-2.18994a12.062,12.062,0,0,0,1.791.08008h4.62305a12.91357,12.91357,0,0,0,1.87109-.08008v2.207a17.618,17.618,0,0,0-1.855-.064h-1.23193a4.68837,4.68837,0,0,1-.19092.66992h1.375c.99414,0,1.24805,0,1.6001-.031-.03223.3999-.04883.688-.04883,1.32691v6.156a9.89654,9.89654,0,0,0,.04883,1.408c-.44824-.03-.87988-.04809-1.376-.04809h-5.37207c-.56006,0-.81591.01806-1.12011.032.03418-.544.04785-.8479.04785-1.4231v-6a14.47227,14.47227,0,0,0-.04785-1.45508,11.91682,11.91682,0,0,0,1.26318.031Zm-.3999,1.728h-.5V253.679h.5Zm1.26514,0v.81592h.72021v-.81592Zm0,3.03907h.72021v-.8479h-.72021Zm.72021,1.375h-.72021v.8999h.72021Zm1.26318.8999h.50635v-5.31006H138.128Z" fill="#c00"/>
          <path id="e67e65c7-9b83-49ca-bf14-ad488c19533d" data-name="パス 136" d="M142.26517,245.2979c.27295.01489.481.01489.60889.01489.415,0,.99023-.032,2.73291-.144,2.2998-.144,3.855-.2229,6.89209-.334l1.648-.06494.67187-.031c.543-.01612.63916-.033.72022-.033a1.28771,1.28771,0,0,0,.36621-.064l.144,2.895a2.39674,2.39674,0,0,0-.44824-.032,7.50637,7.50637,0,0,0-3.66309,1.12012,4.59247,4.59247,0,0,0-2.541,3.6289,2.04436,2.04436,0,0,0,1.34277,1.98389,8.43824,8.43824,0,0,0,3.05518.575c.12695,0,.24023,0,.479-.01489l-.36816,3.03711a4.1368,4.1368,0,0,0-.58985-.08008,12.095,12.095,0,0,1-4.04785-.8999,4.54348,4.54348,0,0,1-2.86084-4.38111,5.48237,5.48237,0,0,1,1.35889-3.615,6.58548,6.58548,0,0,1,1.56689-1.35888l-.752.08008c-.352.032-.91211.08007-3.8999.321a17.64733,17.64733,0,0,0-2.25391.3Zm11.33789,3.646a10.30764,10.30764,0,0,1,1.55078,2.31811l-1.53418.7a9.96975,9.96975,0,0,0-1.55078-2.36792Zm2.14307-.927a11.09175,11.09175,0,0,1,1.56787,2.25293l-1.48779.688a11.376,11.376,0,0,0-1.519-2.3Z" fill="#c00"/>
          <path id="e217b77c-9250-4442-83f1-396dde512500" data-name="パス 137" d="M160.2161,244.27593a17.87093,17.87093,0,0,0,2.2998.11206c1.42286,0,3.2002-.064,4.813-.19312a3.19347,3.19347,0,0,0,1.21485-.22412l1.312,1.936a17.227,17.227,0,0,0-2.57422,2.095c-.84815.72-1.13477.96-2.207,1.74389a7.6642,7.6642,0,0,1,2.19092-.28808,4.91408,4.91408,0,0,1,3.42187,1.08691,3.54955,3.54955,0,0,1,1.167,2.76709,4.18257,4.18257,0,0,1-2.20507,3.759,8.71352,8.71352,0,0,1-4.23877,1.00708c-2.7002,0-4.34913-1.071-4.34913-2.84692,0-1.48706,1.32618-2.55908,3.18116-2.55908a3.684,3.684,0,0,1,3.60009,2.49512,1.79374,1.79374,0,0,0,1.26221-1.74292c0-1.1189-1.08594-1.80689-2.86084-1.80689a9.19786,9.19786,0,0,0-4.92578,1.471,11.77724,11.77724,0,0,0-1.53516,1.2l-1.48681-2.43091a35.30593,35.30593,0,0,0,6.82812-5.2771c-.84814.1001-1.48681.126-3.74316.239-.43115.01709-.73389.04809-1.05518.081Zm3.96582,10.425a.553.553,0,0,0-.62061.47583.46679.46679,0,0,0-.00439.05224c0,.43189.51221.7,1.376.7a2.44058,2.44058,0,0,0,.52783-.04809c-.20654-.7649-.65479-1.18091-1.27881-1.18091Z" fill="#c00"/>
        </g>
        <g id="ab933ec1-c493-4748-a5bb-d858bf3444ff" data-name="グループ 70">
          <path id="a25b1bd7-0a13-4b4b-9255-2b65786c9017" data-name="パス 138" d="M132.24027,291.57427a9.226,9.226,0,0,1-.54492,2.06689,7.18816,7.18816,0,0,1-1.46582,2.3169,3.10592,3.10592,0,0,0-.73389-.70606,5.60977,5.60977,0,0,0,1.57422-2.61206,21.35312,21.35312,0,0,0,.52-5.864c0-1.22608-.01514-1.759-.05322-2.26612a11.21764,11.21764,0,0,0,1.3999.0669h5.01123a10.61907,10.61907,0,0,0,1.38721-.0669,11.73339,11.73339,0,0,0-.0542,1.374v8.76806a1.01239,1.01239,0,0,1-.37305.93311,1.93034,1.93034,0,0,1-1.06494.17309c-.43994,0-1-.01294-1.6001-.053a3.62165,3.62165,0,0,0-.21191-.907,13.33286,13.33286,0,0,0,1.8999.13306c.38721,0,.49512-.08008.49512-.41406v-2.94507Zm6.18408-.8v-2.37207H132.4805c-.01416.73291-.041,1.24-.147,2.37207Zm0-3.16992v-2.21289H132.4932l-.01318,1.89306v.32007Z"/>
          <path id="e0d923ef-0321-48ea-b264-5c8f5e43129f" data-name="パス 139" d="M144.07181,285.19121a7.81358,7.81358,0,0,0-.06787-1.37207h.90723a9.15778,9.15778,0,0,0-.06592,1.35889v1.26489h.36084a5.05148,5.05148,0,0,0,.86523-.053v.82788a4.20528,4.20528,0,0,0-.854-.05493h-.34521a5.70932,5.70932,0,0,0,1.25195,2.3999,3.22771,3.22771,0,0,0-.415.73291,7.15034,7.15034,0,0,1-.918-1.97192c.04,1.15893.05322,1.425.05322,1.93188v4.2a10.4059,10.4059,0,0,0,.082,1.52h-.935a11.20358,11.20358,0,0,0,.082-1.54589v-3.759c0-.572.02685-1.23706.06592-2.052a12.58066,12.58066,0,0,1-1.49219,3.958,2.67957,2.67957,0,0,0-.521-.72,12.69,12.69,0,0,0,1.853-4.68994h-.5332a7.14341,7.14341,0,0,0-.93311.06591v-.84008a5.626,5.626,0,0,0,.93311.053h.62695Zm1.50489,9.3811a9.47753,9.47753,0,0,0,1.37207.08008h6.18408a9.19281,9.19281,0,0,0,1.3999-.08008v.907a10.7992,10.7992,0,0,0-1.41309-.0669h-6.18505a10.13334,10.13334,0,0,0-1.35791.0669Zm3.86376-9.3811a9.7837,9.7837,0,0,1-.45312,1.30493h.53516a7.42274,7.42274,0,0,0,1.06494-.04c-.02686.52-.02686.52-.06592,1.894a33.28918,33.28918,0,0,1-.35986,4.75708c-.186.83789-.44,1.03906-1.27979,1.03906a11.2794,11.2794,0,0,1-1.15918-.06592,2.451,2.451,0,0,0-.146-.812,6.366,6.366,0,0,0,1.27978.15991c.49219,0,.53223-.08105.68115-1.25293a45.07012,45.07012,0,0,0,.227-5.011h-1.17382c-.01319,0-.27979.01294-.78711.02588a8.72109,8.72109,0,0,0,.82714-2H147.1641a13.38116,13.38116,0,0,0-1.38477.0669v-.87891a9.79561,9.79561,0,0,0,1.3999.0791H152.979a9.35229,9.35229,0,0,0,1.41211-.0791v.87891a13.6101,13.6101,0,0,0-1.3999-.0669Zm-2.477,7.209c-.26709,0-.45312.01294-.73291.02588.01319-.25293.02588-.50708.02588-.813V288.575a6.14213,6.14213,0,0,0-.041-.74609,7.36871,7.36871,0,0,0,.814.04h.87891a7.31621,7.31621,0,0,0,.86523-.04,5.18036,5.18036,0,0,0-.0249.707v3.21093c0,.21289.01416.39991.0249.67994-.37207-.02588-.50488-.02588-.73193-.02588Zm0-.667h1.07911v-3.21h-1.07911Zm7.26123-4.33105a12.94176,12.94176,0,0,1-1.185,3.97192,5.94516,5.94516,0,0,0,1.65087,1.85108,2.36663,2.36663,0,0,0-.46679.72,8.1773,8.1773,0,0,1-1.6001-1.87793,8.58575,8.58575,0,0,1-1.74707,1.94506,1.8998,1.8998,0,0,0-.519-.613,6.77825,6.77825,0,0,0,1.86523-2.012,10.22875,10.22875,0,0,1-1.03906-3.55688,3.21313,3.21313,0,0,0-.41309.04v-.78711a6.7909,6.7909,0,0,0,1.05176.053h1.48c.27979,0,.50684-.01294.75879-.0271Zm-2.34521.427a8.10467,8.10467,0,0,0,.74707,2.8,9.10474,9.10474,0,0,0,.75977-2.8Z"/>
        </g>
        <g id="fcc6c2ed-3f94-4c08-9614-964b6795a935" data-name="グループ 71">
          <path id="b02f583a-f3a6-47cc-8054-bbc44b8eb170" data-name="パス 140" d="M132.24027,330.43608a9.18882,9.18882,0,0,1-.54492,2.06592,7.19767,7.19767,0,0,1-1.46582,2.31909,3.0729,3.0729,0,0,0-.73389-.707,5.60853,5.60853,0,0,0,1.57422-2.61206,21.33821,21.33821,0,0,0,.52-5.86206c0-1.22705-.01514-1.759-.05322-2.26611a11.21621,11.21621,0,0,0,1.3999.06494h5.01123a10.6615,10.6615,0,0,0,1.38721-.06494,11.69993,11.69993,0,0,0-.0542,1.37207V333.514a1.01216,1.01216,0,0,1-.37305.93311,1.91366,1.91366,0,0,1-1.06494.17407c-.43994,0-1-.01391-1.6001-.054a3.61416,3.61416,0,0,0-.21191-.906,13.12292,13.12292,0,0,0,1.8999.13306c.38721,0,.49512-.08008.49512-.41309v-2.94507Zm6.18408-.8V327.264H132.4805c-.01416.73194-.041,1.239-.147,2.37207Zm0-3.17212V324.252H132.4932l-.01318,1.894v.31812Z"/>
          <path id="a8fd030a-c0b7-409c-b941-923e3e60e537" data-name="パス 141" d="M144.07181,324.05425a7.81358,7.81358,0,0,0-.06787-1.37207h.90723a9.1741,9.1741,0,0,0-.06592,1.3601v1.2649h.36084a5.15574,5.15574,0,0,0,.86523-.053v.8269a4.34951,4.34951,0,0,0-.854-.053h-.34521a5.72179,5.72179,0,0,0,1.25195,2.39991,3.20378,3.20378,0,0,0-.415.73291,7.15292,7.15292,0,0,1-.918-1.9729c.04,1.15893.05322,1.425.05322,1.93188v4.2a10.32661,10.32661,0,0,0,.082,1.519h-.935a11.20358,11.20358,0,0,0,.082-1.54589v-3.75708c0-.573.02685-1.239.06592-2.052a12.5753,12.5753,0,0,1-1.49219,3.957,2.71624,2.71624,0,0,0-.521-.72,12.687,12.687,0,0,0,1.853-4.689h-.5332a6.97693,6.97693,0,0,0-.93311.06592v-.84009a5.73385,5.73385,0,0,0,.93311.053h.62695Zm1.50489,9.383a9.55077,9.55077,0,0,0,1.37207.07911h6.18408a9.19208,9.19208,0,0,0,1.3999-.07911v.905a10.844,10.844,0,0,0-1.41309-.06592h-6.18505a10.17594,10.17594,0,0,0-1.35791.06592Zm3.86376-9.383a9.80977,9.80977,0,0,1-.45312,1.30688h.53516a7.64048,7.64048,0,0,0,1.06494-.04c-.02686.519-.02686.519-.06592,1.894a33.20454,33.20454,0,0,1-.35986,4.7561c-.186.84009-.44,1.03906-1.27979,1.03906a10.88045,10.88045,0,0,1-1.15918-.06689,2.45094,2.45094,0,0,0-.146-.812,6.40075,6.40075,0,0,0,1.27978.15991c.49219,0,.53223-.08008.68115-1.252a45.18853,45.18853,0,0,0,.227-5.011h-1.17382c-.01319,0-.27979.01294-.78711.0249a8.69935,8.69935,0,0,0,.82714-2H147.1641a13.38115,13.38115,0,0,0-1.38477.06689v-.87792a9.8683,9.8683,0,0,0,1.3999.08007H152.979a9.41736,9.41736,0,0,0,1.41211-.08007v.87792a13.61291,13.61291,0,0,0-1.3999-.06689Zm-2.477,7.21093c-.26709,0-.45312.012-.73291.02491.01319-.252.02588-.50708.02588-.812v-3.04a6.1424,6.1424,0,0,0-.041-.7461,7.36872,7.36872,0,0,0,.814.04h.87891a7.31622,7.31622,0,0,0,.86523-.04,5.18047,5.18047,0,0,0-.0249.707v3.21c0,.21509.01416.39991.0249.67994-.37207-.02491-.50488-.02491-.73193-.02491Zm0-.667h1.07911v-3.21191h-1.07911Zm7.26123-4.33105a12.93593,12.93593,0,0,1-1.185,3.97094,5.954,5.954,0,0,0,1.65087,1.85206,2.34866,2.34866,0,0,0-.46679.72,8.19961,8.19961,0,0,1-1.6001-1.87891,8.62466,8.62466,0,0,1-1.74707,1.94507,1.86937,1.86937,0,0,0-.519-.613,6.7968,6.7968,0,0,0,1.86523-2.012,10.24038,10.24038,0,0,1-1.03906-3.55908,3.83783,3.83783,0,0,0-.41309.04v-.78711a6.61336,6.61336,0,0,0,1.05176.053h1.48c.27979,0,.50684-.012.75879-.0249Zm-2.34521.425a8.12933,8.12933,0,0,0,.74707,2.8,9.10481,9.10481,0,0,0,.75977-2.8Z"/>
        </g>
        <g id="e81b98f3-2322-4bf5-a093-0456708dd3cb" data-name="グループ 72">
          <path id="fa82a9e6-4085-4217-b79e-8db6fc2c0636" data-name="パス 142" d="M77.73832,26.011a9.19825,9.19825,0,0,1-.54712,2.0669,7.19022,7.19022,0,0,1-1.46509,2.31689,3.12064,3.12064,0,0,0-.73291-.706,5.61716,5.61716,0,0,0,1.573-2.61206,21.33537,21.33537,0,0,0,.519-5.863c0-1.22705-.01392-1.76-.054-2.26709a11.26791,11.26791,0,0,0,1.3999.0669h5.011a10.69987,10.69987,0,0,0,1.387-.0669,11.666,11.666,0,0,0-.053,1.373v8.76806a1.01339,1.01339,0,0,1-.374.93311,1.92208,1.92208,0,0,1-1.06494.1731c-.43994,0-1-.01294-1.60009-.053a3.71691,3.71691,0,0,0-.21289-.906,13.15629,13.15629,0,0,0,1.905.134c.387,0,.4939-.08007.4939-.41406V26.00981Zm6.1831-.8v-2.373H77.97733c-.01294.73291-.03906,1.24-.146,2.373Zm0-3.17212V19.827H77.99149L77.9766,21.719v.32007Z"/>
          <path id="b27a9673-5f8e-452c-9c64-cff51bcc2b33" data-name="パス 143" d="M76.23221,32.961a8.05509,8.05509,0,0,0-.06592-1.37208h.905a8.88732,8.88732,0,0,0-.06591,1.35791v1.26709h.3601a5.14829,5.14829,0,0,0,.867-.053v.82592a4.23957,4.23957,0,0,0-.854-.053h-.34692a5.72376,5.72376,0,0,0,1.25293,2.3999,3.205,3.205,0,0,0-.41406.73291,7.1354,7.1354,0,0,1-.91993-1.97193c.04,1.158.054,1.42505.054,1.93189v4.2a10.33535,10.33535,0,0,0,.08008,1.52h-.93408a11.33812,11.33812,0,0,0,.08105-1.54712V38.44243c0-.574.0249-1.24.06494-2.052a12.50047,12.50047,0,0,1-1.49194,3.958,2.66543,2.66543,0,0,0-.52-.72,12.66948,12.66948,0,0,0,1.85205-4.689h-.532a7.14554,7.14554,0,0,0-.93311.06494v-.83789a5.73391,5.73391,0,0,0,.93311.053h.626Zm1.50611,9.3811a9.44361,9.44361,0,0,0,1.37207.08008h6.18408a9.12989,9.12989,0,0,0,1.3999-.08008v.907a10.74271,10.74271,0,0,0-1.41211-.06689H79.09818a10.0954,10.0954,0,0,0-1.35791.06689Zm3.864-9.3811a10.09047,10.09047,0,0,1-.4541,1.30688h.53491a7.29277,7.29277,0,0,0,1.063-.042c-.0249.52-.0249.52-.06494,1.894a33.28922,33.28922,0,0,1-.36011,4.75708c-.188.84009-.43994,1.03906-1.28,1.03906a11.27651,11.27651,0,0,1-1.15893-.06689,2.43736,2.43736,0,0,0-.147-.812,6.38578,6.38578,0,0,0,1.28.15991c.492,0,.532-.08106.679-1.25293a44.58938,44.58938,0,0,0,.22705-5.01h-1.1731c-.012,0-.28.012-.78491.0249a8.7886,8.7886,0,0,0,.8269-2H79.323a13.31981,13.31981,0,0,0-1.385.0669V32.147a9.75684,9.75684,0,0,0,1.39991.0791h5.8a9.36339,9.36339,0,0,0,1.41309-.0791v.87891a13.67146,13.67146,0,0,0-1.3999-.0669Zm-2.478,7.209c-.26806,0-.45288.01294-.73291.0271.01294-.25293.0249-.5061.0249-.812V36.346a6.21124,6.21124,0,0,0-.04-.74707,7.35116,7.35116,0,0,0,.813.04h.87989a7.37549,7.37549,0,0,0,.866-.04,4.95508,4.95508,0,0,0-.0271.707v3.21093c0,.21411.01294.39991.0271.67993-.37207-.02709-.50708-.02709-.73193-.02709Zm0-.667h1.0791v-3.21H79.1243Zm7.261-4.33008a12.89273,12.89273,0,0,1-1.187,3.97192,5.9904,5.9904,0,0,0,1.65307,1.852,2.31173,2.31173,0,0,0-.467.72,8.2433,8.2433,0,0,1-1.6001-1.87988,8.58627,8.58627,0,0,1-1.74707,1.94409,1.886,1.886,0,0,0-.52-.613,6.78658,6.78658,0,0,0,1.86695-2.01A10.20769,10.20769,0,0,1,83.345,35.59892a3.21238,3.21238,0,0,0-.41309.04v-.78711a6.79424,6.79424,0,0,0,1.052.053h1.479c.28,0,.50708-.01294.76-.0249Zm-2.345.427a8.09937,8.09937,0,0,0,.74707,2.8,9.06738,9.06738,0,0,0,.759-2.8Z"/>
        </g>
        <g id="b0f88109-87ae-4086-843e-c9d59c487623" data-name="グループ 73">
          <path id="b057fa72-d013-4a01-a669-87938527e3b2" data-name="パス 144" d="M38.87113,26.011a9.23985,9.23985,0,0,1-.54492,2.0669,7.18219,7.18219,0,0,1-1.467,2.31689,3.07921,3.07921,0,0,0-.731-.706,5.60166,5.60166,0,0,0,1.572-2.61206,21.26,21.26,0,0,0,.52-5.863c0-1.22705-.01489-1.76-.054-2.26709a11.26816,11.26816,0,0,0,1.39991.0669h5.009a10.71479,10.71479,0,0,0,1.38794-.0669,11.31015,11.31015,0,0,0-.05493,1.373v8.76806a1.00991,1.00991,0,0,1-.374.93311,1.92174,1.92174,0,0,1-1.06494.1731c-.439,0-1-.01294-1.60009-.053a3.70368,3.70368,0,0,0-.21192-.906,13.12266,13.12266,0,0,0,1.905.134c.387,0,.49292-.08007.49292-.41406V26.00981Zm6.18408-.8v-2.373H39.11112c-.01294.73291-.03906,1.24-.147,2.373Zm0-3.17212V19.827h-5.929l-.0149,1.89209v.32007Z"/>
          <path id="bceb9103-0a9d-4e54-ab67-1acfe02010eb" data-name="パス 145" d="M37.36722,32.961a8.05509,8.05509,0,0,0-.06592-1.37208h.905a8.82717,8.82717,0,0,0-.06689,1.35791v1.26709h.36108a5.13825,5.13825,0,0,0,.866-.053v.82592a4.24636,4.24636,0,0,0-.853-.053h-.34692a5.72187,5.72187,0,0,0,1.252,2.3999,3.18884,3.18884,0,0,0-.41211.73291,7.08342,7.08342,0,0,1-.9209-1.97193c.042,1.158.053,1.42505.053,1.93189v4.2a10.27111,10.27111,0,0,0,.082,1.52h-.93408a11.258,11.258,0,0,0,.08008-1.54712V38.44243c0-.574.0271-1.24.06689-2.052a12.54585,12.54585,0,0,1-1.49194,3.958,2.70322,2.70322,0,0,0-.521-.72,12.6996,12.6996,0,0,0,1.853-4.689h-.533a7.14526,7.14526,0,0,0-.9331.06494v-.83789a5.73379,5.73379,0,0,0,.9331.053h.626Zm1.50489,9.3811a9.479,9.479,0,0,0,1.37207.08008h6.18408a9.12989,9.12989,0,0,0,1.3999-.08008v.907a10.77231,10.77231,0,0,0-1.41406-.06689H40.231a10.1679,10.1679,0,0,0-1.36011.06689Zm3.866-9.3811a10.30215,10.30215,0,0,1-.4541,1.30688h.533a7.32081,7.32081,0,0,0,1.06494-.042c-.0271.52-.0271.52-.06689,1.894a33.50424,33.50424,0,0,1-.35791,4.75708c-.188.84009-.44,1.03906-1.28,1.03906a11.296,11.296,0,0,1-1.15992-.06689,2.41266,2.41266,0,0,0-.147-.812,6.40321,6.40321,0,0,0,1.28.15991c.49194,0,.533-.08106.67993-1.25293a44.76279,44.76279,0,0,0,.22705-5.01H41.88407c-.01392,0-.28.012-.78711.0249a8.75128,8.75128,0,0,0,.8269-2H40.4578a13.31968,13.31968,0,0,0-1.385.0669V32.147a9.72072,9.72072,0,0,0,1.3999.0791h5.8a9.378,9.378,0,0,0,1.41406-.0791v.87891a13.67146,13.67146,0,0,0-1.3999-.0669Zm-2.479,7.209c-.26709,0-.4541.01294-.73291.0271.01294-.25293.0271-.5061.0271-.812V36.346a6.5295,6.5295,0,0,0-.04-.74707,7.35122,7.35122,0,0,0,.813.04h.87793a7.39215,7.39215,0,0,0,.86694-.04,5.02719,5.02719,0,0,0-.02588.707v3.21093c0,.21411.01294.39991.02588.67993-.373-.02709-.50708-.02709-.73193-.02709Zm0-.667h1.08008v-3.21H40.25907Zm7.261-4.33008a12.93516,12.93516,0,0,1-1.185,3.97192,5.981,5.981,0,0,0,1.6521,1.852,2.32616,2.32616,0,0,0-.46705.72A8.237,8.237,0,0,1,45.92,39.837,8.58321,8.58321,0,0,1,44.17484,41.782a1.9028,1.9028,0,0,0-.52-.613,6.783,6.783,0,0,0,1.865-2.01,10.24032,10.24032,0,0,1-1.03906-3.55908,3.19537,3.19537,0,0,0-.41211.04v-.78711a6.82541,6.82541,0,0,0,1.052.053h1.479c.28,0,.50611-.01294.75806-.0249Zm-2.344.427a8.10353,8.10353,0,0,0,.74512,2.8,9.02507,9.02507,0,0,0,.76-2.8Z"/>
        </g>
        <g id="ad17f5df-04ce-497d-8551-b68b130a74b8" data-name="線 12">
          <rect y="360.5304" width="200" height="4" fill="#222"/>
        </g>
        <g id="b3e03b8f-e19e-4504-aa61-121c791946ab" data-name="道路" style="isolation: isolate">
          <g style="isolation: isolate">
            <path d="M22.833,380.34485a6.32559,6.32559,0,0,0,1.16211.07031h1.3164a7.831,7.831,0,0,0,1.0791-.05664,13.78987,13.78987,0,0,0-.05664,1.583v3.05371a1.75664,1.75664,0,0,0,1.20508.85449,15.65057,15.65057,0,0,0,3.418.22461,40.18079,40.18079,0,0,0,5.085-.2666,7.86057,7.86057,0,0,0-.53222,2.19922c-1.65332.042-3.72657.07031-5.07129.07031a10.106,10.106,0,0,1-3.85157-.47656,3.08673,3.08673,0,0,1-1.20507-.91016,9.10973,9.10973,0,0,1-1.63868,1.31641,1.56953,1.56953,0,0,0-.28027.22461l-.9248-2.24219a6.2322,6.2322,0,0,0,1.76562-1.06445v-2.53516h-.60254a4.96192,4.96192,0,0,0-.86816.07031Zm5.47656-3.72559a8.12369,8.12369,0,0,0-.64453-.99511l2.03125-.44825a13.45847,13.45847,0,0,1,.84082,1.44336h.99414a7.03778,7.03778,0,0,0,.74219-1.44336l2.15722.37793c-.29394.49024-.3916.67285-.6582,1.06543h.50391a7.95074,7.95074,0,0,0,1.38672-.085v1.90528c-.46192-.042-.8545-.05567-1.38672-.05567H32.13379c-.14063.26563-.18262.34961-.25195.49024h1.87695a10.11943,10.11943,0,0,0,1.16211-.042c-.02832.30762-.042.64453-.042,1.26075v4.21582a11.45693,11.45693,0,0,0,.05664,1.27539c-.127,0-.127,0-.36426-.01465-.042,0-.67285-.01367-.74317-.01367H28.54785c-.084,0-.49023.01367-1.21875.02832.02832-.29493.042-.8545.042-1.31739V380.0929a11.34859,11.34859,0,0,0-.05566-1.24707c.41992.02832.62988.02832,1.24609.02832h1.1211a5.04534,5.04534,0,0,0,.2373-.49024H28.09961c-.58887,0-1.05078.01367-1.40137.042v-.53222L25.14355,379.42a14.22449,14.22449,0,0,0-2.50683-2.63281l1.583-1.4707a14.05792,14.05792,0,0,1,2.47851,2.47851V376.5343a9.31947,9.31947,0,0,0,1.457.085Zm1.06445,4.16016h3.44629v-.44824H29.374Zm0,1.61035h3.44629v-.43359H29.374Zm0,1.63867h3.44629v-.46191H29.374Z"/>
            <path d="M39.32617,380.41516h-.79883c-.44824,0-.72851.01367-1.23242.05567.042-.49024.05567-.82618.05567-1.44239v-2.01758c0-.57421-.01368-.99414-.05567-1.44238.49024.042.79785.05567,1.42871.05567h2.24121a13.53388,13.53388,0,0,0,1.457-.05567,13.51543,13.51543,0,0,0-.05665,1.44238v.67286a5.92611,5.92611,0,0,0,2.10157-2.62012l2.2832.3789c-.22461.40625-.252.44825-.36426.65821h1.21875a6.37573,6.37573,0,0,0,1.13477-.07031l.96582,1.23242c-.19531.33691-.19531.33691-.47559.82715a13.211,13.211,0,0,1-1.55469,2.1289,11.7402,11.7402,0,0,0,2.46485.95215,9.70668,9.70668,0,0,0-.67188,2.11523l-.36425-.13964v3.65527a13.36374,13.36374,0,0,0,.06933,1.583H47.01562v-.57422H45.02734v.58887H42.91211a11.2505,11.2505,0,0,0,.06934-1.35938v-3.78223l-.4336.1543a4.64444,4.64444,0,0,0-.4209-1.45605v1.69433a8.02489,8.02489,0,0,0-.95215-.05566v1.51269c.36426-.084.64454-.168,1.3584-.37793v1.94629c-1.42871.44825-2.92675.82715-4.86035,1.2334a5.72423,5.72423,0,0,0-.64453.168l-.43359-2.17187a6.54193,6.54193,0,0,0,.68652-.042v-3.291a6.98179,6.98179,0,0,0-.085-1.373h1.76562a7.54235,7.54235,0,0,0-.07031,1.28906v3.10938c.18262-.02832.23828-.042.43457-.084Zm0-1.7793h1.16211v-1.20507H39.32617Zm2.52149,2.85743a10.69994,10.69994,0,0,0,2.66113-1.23243,6.94208,6.94208,0,0,1-.8125-.95214c-.30859.2373-.43457.32128-.79883.57421a6.36978,6.36978,0,0,0-.53223-.9248v.07031a12.08007,12.08007,0,0,0,.042,1.42871c-.36426-.02832-.61621-.042-1.06446-.042h-.168v1.3584a5.64778,5.64778,0,0,0,.82618-.042Zm6.17675,1.20507a13.98137,13.98137,0,0,1-1.90527-1.0791,11.1183,11.1183,0,0,1-1.77832,1.0791Zm-2.87109-4.791c-.07031.084-.09863.1123-.168.19629a5.17994,5.17994,0,0,0,.98047,1.02246,5.349,5.349,0,0,0,.95215-1.21875Zm-.126,7.998h1.98828v-1.30274H45.02734Z"/>
          </g>
        </g>
      </g>
    </g>
  </g>
</svg>
