<svg xmlns="http://www.w3.org/2000/svg" viewBox="0 0 145 417.89214">
  <g id="e838c4ec-7219-474c-b803-dec014db5c64" data-name="レイヤー 2">
    <g id="acb2326c-570b-49af-a334-ab9259188736" data-name="レイヤー 4">
      <g>
        <path d="M144.82493,151.8197a2.27645,2.27645,0,0,0-.98573-1.96975,19.438,19.438,0,0,0-4.26457-1.97677c-2.22636-.60271-4.51407-1.00685-6.74567-1.54453a57.7071,57.7071,0,0,0-7.96682-.9225c-3.30167-.32682-6.63319-.26884-9.94369-.59391-3.37194-.33034-6.77373-.1107-10.14918-.485-2.89052-.31979-5.80207-.47267-8.682-.86978a48.3778,48.3778,0,0,1-5.4436-1.24933,10.998,10.998,0,0,1-4.35946-1.62007c-.46031-.36373-.67472-.738-.06324-1.0701,1.07359-.58337,1.87314-1.86959,3.4247-1.31258a2.30771,2.30771,0,0,0,1.19834-.1845,72.244,72.244,0,0,1,10.3073-1.98029c3.184-.39184,6.37322-.66244,9.57467-.76963,1.8081-.06149,3.66013.31453,5.412.13706,3.35614-.34264,6.62272.16868,9.92962.33209,1.47246.072,2.84127.69232,4.31373.615a22.26862,22.26862,0,0,1,4.16968.42c1.32317.17923,1.37765.246,2.00492-1.02968a51.7179,51.7179,0,0,0,3.52834-10.7484c.59218-2.43714.88209-4.94634,1.37937-7.3993.66416-3.27.82761-6.58575,1.32137-9.86631.61672-4.10467.58334-8.26558.8065-12.40187.28468-5.25735.28819-10.52349.28468-15.78962a37.97892,37.97892,0,0,1,.16164-6.12538,5.81445,5.81445,0,0,0-.01236-2.52676c-.60092-1.664-.36893-3.3491-.53941-5.00433-.39183-3.82529-.39707-7.691-1.165-11.48112-.427-2.10155-.5201-4.254-1.36881-6.2888a14.00156,14.00156,0,0,0-6.01467-6.61562c-4.12224-2.48457-8.85424-3.075-13.479-3.84987-3.95707-.66244-7.98441-.86977-11.93977-1.58669-1.76769-.32157-1.95215-.74679-1.75533-2.511.15812-1.42152,1.24758-2.19818,1.845-3.30342a2.94109,2.94109,0,0,1,1.52162-1.36528,33.00454,33.00454,0,0,1,6.58051-2.16654,48.96279,48.96279,0,0,1,9.16876-.96994,29.5345,29.5345,0,0,0,10.51648-1.80986,9.86475,9.86475,0,0,0,5.96723-5.94616,6.00869,6.00869,0,0,0-.30579-5.57539,33.37213,33.37213,0,0,0-5.34-6.90378A21.05,21.05,0,0,0,128.72955.72007a9.94975,9.94975,0,0,0-2.01367-.53242,75.11769,75.11769,0,0,0-10.50421-.007,57.992,57.992,0,0,0-11.93445,2.53553,62.00247,62.00247,0,0,0-6.11128,2.019,14.20536,14.20536,0,0,1-3.02583,1.288c-1.93808.29518-3.5582,1.37932-5.34519,2.03123-3.08554,1.12458-5.99708,2.72884-8.97718,4.13805-3.41234,1.61306-6.81062,3.25422-10.2318,4.84619a6.72932,6.72932,0,0,1-5.911-.116c-1.84319-.861-3.58634-1.93111-5.361-2.91334a22.76872,22.76872,0,0,0-6.52954-2.28076c-1.81514-.37779-3.76377-.81531-5.55077-.28641-1.37765.4094-2.771.31979-4.12223.67649a1.27747,1.27747,0,0,1-1.61832-.70813c-1.0209-2.20871-2.83252-3.8411-4.24526-5.76517a2.54574,2.54574,0,0,0-.83645-.88207C34.49087,3.93562,33.18177,2.124,31.09431,1.553c-1.62011-.4428-3.12595-1.31433-4.862-1.33718C24.94605.19994,23.65634.25091,22.37015.207c-2.91686-.10191-4.65821,1.787-6.37494,3.7181a3.02446,3.02446,0,0,0-.34439.79247c-1.45839,3.31044-.78539,6.62792.45867,9.7117a38.65866,38.65866,0,0,0,3.84631,7.626c.79775,1.15267.78548,1.35123-.37776,2.09977a42.56225,42.56225,0,0,1-6.30991,3.71635,82.23184,82.23184,0,0,0-8.39384,3.79013A32.66863,32.66863,0,0,0,.6062,34.96841a1.37071,1.37071,0,0,0-.52534,1.56911C1.08941,39.30325,1.17907,42.373,2.8571,44.92433a2.79332,2.79332,0,0,1,.48854,1.302c.05791,1.06132.75733,1.82391,1.13158,2.73234a1.41218,1.41218,0,0,0,1.51287.95589c.40591-.02812.81705.02284,1.22648.03515a21.97646,21.97646,0,0,0,9.14766-1.70617,8.24826,8.24826,0,0,1,3.91846-.79774,3.31445,3.31445,0,0,1,3.05037,2.8852c.00875,2.60409-1.07187,5.4155-4.33665,5.8372a3.39458,3.39458,0,0,0-1.23522.53945,17.61863,17.61863,0,0,1-5.1537,1.51817,24.84328,24.84328,0,0,0-5.74235,1.9469,6.37282,6.37282,0,0,0-2.84831,7.84562,9.23429,9.23429,0,0,0,5.1748,5.58417,34.29116,34.29116,0,0,0,6.27292,2.09627c1.88893.34967,3.74979.868,5.59821,1.39517.70466.2003,1.58143.45333,1.68164,1.35122.22668,2.03126.3637,4.06251-.85223,5.91629a6.66272,6.66272,0,0,1-4.1345,2.706,75.465,75.465,0,0,1-7.65058,1.69564,6.49527,6.49527,0,0,0-5.53678,4.91646,5.97285,5.97285,0,0,0,.18455,4.913c.9436,1.57264,1.95567,3.19271,3.90783,3.83758a4.83491,4.83491,0,0,1,1.38992,1.04726c.21964.18625.37073.46036.69582.48848,2.00312.1722,3.70225,1.38989,5.67551,1.657a4.09545,4.09545,0,0,1,2.511,1.114c.80126.81531,1.86086-.19856,2.73763.39009,1.295.86627,2.91154,1.23175,3.91143,2.56893.506.67825,1.01035,1.27041.37245,2.1771a2.34427,2.34427,0,0,1-2.648,1.19485c-1.77292-.564-3.53709-1.14038-5.36278-1.53574-1.66224-.36022-2.34751.174-2.08746,1.79052a22.36758,22.36758,0,0,1-.05619,7.99672,62.55476,62.55476,0,0,1-2.64635,8.08458c-1.10344,3.24544-3.0187,6.15526-3.88148,9.529-.752,2.93968-1.66576,5.79327-1.49528,8.91219A23.01947,23.01947,0,0,0,11.49,158.63388a23.58148,23.58148,0,0,0,2.69542,3.44222,33.63726,33.63726,0,0,0,9.89616,8.11445,38.469,38.469,0,0,0,8.66273,3.50725c3.0205.67649,6.00935.9506,8.93325-.26884,3.1734-1.32313,5.13962-3.871,6.61388-6.8581a34.83152,34.83152,0,0,1,5.679-8.97194,2.15715,2.15715,0,0,1,2.60937-.70637c1.73955.66244,3.4984,1.295,5.28719,1.80634,3.068.875,6.18867,1.57088,9.24427,2.48634,2.56372.76787,5.152,1.52344,7.749,2.05761,3.75682.77489,7.47134,1.75011,11.24918,2.42134,4.29443.76259,8.559,1.7009,12.88861,2.2544,3.0592.39009,6.09026.92777,9.1758,1.18606,3.08374.25655,6.1517.54648,9.69059.52714a42.875,42.875,0,0,0,8.12847-.37251,26.57944,26.57944,0,0,0,9.35855-3.256,10.75313,10.75313,0,0,0,4.36822-4.76008C145.30463,158.29475,145.0674,155.03351,144.82493,151.8197ZM115.59668,82.78008a63.899,63.899,0,0,1,.20737-7.14979,3.3811,3.3811,0,0,0-.253-2.388,1.534,1.534,0,0,1-.12827-1.179c.29875-1.88542.91727-3.76028.20558-5.6861a.87068.87068,0,0,1,.0193-.51309c.90319-2.92387.45867-5.89693.27241-8.85069a18.00145,18.00145,0,0,0-.23191-3.31747c-.1529-.61676.21432-.95941.87676-1.01387a2.02463,2.02463,0,0,1,2.24919.98927,7.29753,7.29753,0,0,1,1.10344,2.92211,4.6992,4.6992,0,0,0,.70989,2.49691,4.51466,4.51466,0,0,1,.66244,3.17513c-.23542,1.7923.52183,3.43519.62375,5.18355.19511,3.31044.58686,6.60859.83113,9.92079a92.84592,92.84592,0,0,1,.16516,11.37745c-.19322,3.94477-.00876,7.9282-.78188,11.8431a19.10474,19.10474,0,0,0-.12475,2.44593c-.18626,2.92388-1.32137,5.65622-1.74315,8.53617-.12818.87154.116,1.93461-1.0191,2.56542a14.85087,14.85087,0,0,1-2.17008-5.12908c-1.23171-3.95356-1.19834-8.03714-1.64637-12.05571a30.63289,30.63289,0,0,1,.15109-8.21988A38.68294,38.68294,0,0,0,115.59668,82.78008Zm-10.60425,30.51617c-.174,2.42309-.49025,4.76887-2.49337,6.48734-.666.57107-1.28276,1.29151-2.27552.87155a2.96572,2.96572,0,0,1-2.091-2.31767c-.40239-2.2052-.14757-4.4227-.41294-6.62616-.17571-1.44788.18095-1.74132,1.61128-1.88716a8.1249,8.1249,0,0,1,.9436-.00527,5.25955,5.25955,0,0,1,3.63722,1.23878A2.302,2.302,0,0,1,104.99243,113.29625Zm-1.66576-19.8855a6.43432,6.43432,0,0,1-2.85183,2.44417,5.07253,5.07253,0,0,1-1.69039.34616c-1.55508-.00176-1.599-.05975-1.455-1.6851.04753-.52186.007-1.05252.007-1.5779a13.50847,13.50847,0,0,0-.27764-4.00452,1.28062,1.28062,0,0,1-.04564-.85747c.95235-1.70092,1.31613-3.73568,2.8852-5.09043a2.83259,2.83259,0,0,1,3.07851.20382,4.45674,4.45674,0,0,1,1.66928,2.19115C105.44578,88.27288,105.29993,90.95778,103.32667,93.41075ZM95.02592,60.49257a3.97185,3.97185,0,0,1,1.47778-1.44612,12.5247,12.5247,0,0,1,5.87937-2.03126c1.68686-.2495,2.18938.22316,2.50211,1.8942.08614.45509.08614.926.13711,1.50761a7.81977,7.81977,0,0,1-1.9803,4.96743c-.96822.99453-1.88188,2.06463-2.83776,3.08377-1.16152,1.24054-2.64454.91722-3.27009-.68177a1.91616,1.91616,0,0,1-.17743-.67474c.01407-1.65873-1.0789-3.0662-1.06835-4.72316a.84786.84786,0,0,0-.09661-.33213C95.36327,61.54685,94.73429,61.155,95.02592,60.49257Zm-61.93724,86.792a14.50856,14.50856,0,0,1-3.08554,5.58769c-1.17552,1.21595-2.85715,1.21243-4.47547,1.49182-1.25633.02108-1.86249-.77491-1.36-2.04707,1.114-2.81494,1.72376-5.77746,2.604-8.66092.34087-1.11227.88912-1.36,1.845-.71691a4.15562,4.15562,0,0,1,.76609.71515,11.0993,11.0993,0,0,0,2.97134,2.42485C32.85668,146.35325,33.303,146.652,33.08868,147.28453Zm7.52754-26.88594a20.17842,20.17842,0,0,0-.40239,4.7021c.01579,1.52168-.4217,1.88014-1.90823,1.67631a3.22543,3.22543,0,0,1-2.34579-1.03145,1.99036,1.99036,0,0,0-2.351-.65189c-.88912.24425-1.68163.35319-2.34056-.557a2.65481,2.65481,0,0,1-.31625-2.96079,14.71978,14.71978,0,0,0,1.418-4.11345c.60273-2.86588,2.65329-4.24875,5.25742-4.97621,1.29847-.36372,3.13822,1.16849,3.31565,2.68314a15.33727,15.33727,0,0,1,.01056,1.75363A14.10776,14.10776,0,0,1,40.61622,120.39859Zm6.45919-46.2443a11.26141,11.26141,0,0,1-2.46874-.8364c-.82057-.33385-.96642-.89789-.67471-1.69563a4.177,4.177,0,0,1,.70285-1.39868,12.98024,12.98024,0,0,1,6.33444-4.08887,42.76792,42.76792,0,0,1,9.11952-1.23525c2.10505-.12653,2.36158.21436,2.47586,2.36686.02283.40765.00352.81707.00352,1.165-.22668,1.58494.31977,3.075.18095,4.59667a5.88691,5.88691,0,0,1-.64837,2.86237,1.5326,1.5326,0,0,1-1.88893.7749c-2.13842-.499-4.31553-.82937-6.47506-1.24053C51.51578,75.00123,49.30529,74.518,47.07541,74.15429Zm24.33633,65.14406a6.8001,6.8001,0,0,1-4.76177-.37076,24.45454,24.45454,0,0,0-3.00472-.92425A1.98145,1.98145,0,0,1,61.9601,135.213a31.52131,31.52131,0,0,0,.76266-6.94068,34.60787,34.60787,0,0,0-.37957-8.00727,15.43437,15.43437,0,0,0-.97346-2.98537,29.3733,29.3733,0,0,1-1.39687-3.748,11.981,11.981,0,0,0-2.221-3.73567,82.88833,82.88833,0,0,0-7.63127-9.56761,1.36636,1.36636,0,0,1-.53589-1.06306c.08434-.07029.16164-.18978.26-.21262,3.96411-.89789,7.79995-2.35456,11.93626-2.52149,1.67451-.06853,2.64445.69232,2.86238,2.97483a61.67676,61.67676,0,0,1,.52182,6.96353c-.06323,3.39127.3848,6.75268.39536,10.14043a69.15616,69.15616,0,0,0,1.06663,8.8261c.20729,1.55858.9787,2.9309,1.10164,4.51408.10022,1.288,1.19843,2.228,1.73784,3.393a11.02538,11.02538,0,0,0,2.61811,3.63552C73.1742,137.8575,72.82277,138.78175,71.41174,139.29835Zm2.829-89.04989a32.04129,32.04129,0,0,1-12.99225-.84871,47.846,47.846,0,0,1-7.98262-2.84831,25.587,25.587,0,0,1-5.44008-3.05916,20.55775,20.55775,0,0,1-3.10665-3.68121c1.51287-.19856,2.27544-1.2827,3.49136-1.65347a102.96892,102.96892,0,0,1,10.35484-2.97834,65.60224,65.60224,0,0,1,12.67952-1.165A87.57873,87.57873,0,0,1,86.37554,35.311c.4217.07555.622.27237.59569.687-.04392.69934-.06675,1.40219-.16344,2.09451a13.48184,13.48184,0,0,1-5.20637,9.15817A15.602,15.602,0,0,1,74.24075,50.24846ZM80.693,113.56334c-.17751-1.20364-.82057-2.23508-.90139-3.51779-.07911-1.27744-.02643-2.55311-.11076-3.82529-.35143-5.25735-.2846-10.52173-.21613-15.78084.07036-5.25558.17923-10.51645.52714-15.758.1722-2.56893.14938-5.12732.225-7.691.04393-1.5006.12827-1.59549,1.59893-1.62535.76085-.01583,1.52351.01933,2.28256-.00879.87857-.03338,1.22828.37251,1.3284,1.23527.38832,3.35086.92954,6.68238,1.13331,10.05433a50.25126,50.25126,0,0,1,.04049,9.75386,1.29835,1.29835,0,0,0,.05268.854,4.16941,4.16941,0,0,1,.304,2.57772,46.49042,46.49042,0,0,0-.01759,5.42076c.03338,1.86256.01759,3.7304.02986,5.59648.02986,4.2716.02291,8.545.00532,12.8183-.01235,2.86063.3075,5.69839.53066,8.5432.09489,1.20364.01579,2.42134.01579,3.87449-1.82217-.89439-2.27724-2.5461-3.29815-3.71635C82.02843,119.85388,81.17088,116.76835,80.693,113.56334Z" fill="#fff"/>
        <path d="M130.58158,383.419c-3.02051-3.10837-6.76849-5.13259-10.57619-7.0303-2.07871-1.0367-4.312-1.76768-6.48382-2.61637-.48853-.19153-1.14042-.28993-1.23531-.8364-.116-.66244.57639-.933,1.01215-1.295a2.267,2.267,0,0,1,.31274-.15815c3.41062-2.0822,7.25874-3.17515,10.85735-4.81807,3.06443-1.40044,5.99356-3.0908,6.83-6.87743a20.28328,20.28328,0,0,0,.90491-6.01995,11.31245,11.31245,0,0,0-3.24718-7.65935,21.78878,21.78878,0,0,0-6.04805-4.08534,35.22734,35.22734,0,0,0-10.68164-3.17514c-1.51467-.174-3.03637-.065-4.52994-.32156a30.99164,30.99164,0,0,0-6.4434-.41292c-4.12927.16341-8.26558.246-12.37374.78191-2.08222.27237-4.22588.21262-6.26417.59392a60.976,60.976,0,0,1-10.042,1.281,26.27182,26.27182,0,0,1-2.764.31453,1.7218,1.7218,0,0,0-1.22648.59215,15.09,15.09,0,0,1-3.36138,2.207,13.41546,13.41546,0,0,0-3.76385,3.05391,2.03462,2.03462,0,0,0-.5552,1.25459,7.524,7.524,0,0,0,5.06584,7.71734,21.82968,21.82968,0,0,0,10.58846.23546c4.11691-.7626,8.26205-1.39868,12.33684-2.47581,2.73583-.72394,5.58062-1.17024,8.3675-1.75537a63.64463,63.64463,0,0,1,13.00452-1.36881,13.20781,13.20781,0,0,1,3.08906.54471c.84339.20207.926.622.34971,1.24054a4.16848,4.16848,0,0,1-.8083.67122c-1.71852,1.0947-3.29995,2.37916-5.08162,3.393-3.32981,1.89068-6.57527,3.92545-9.98582,5.68259-1.09469.564-2.30538.88735-3.3298,1.53045a50.84845,50.84845,0,0,1-6.82821,3.126A141.128,141.128,0,0,1,72.698,372.089c-3.451,1.07361-6.91786,2.09978-10.37242,3.16285a3.16765,3.16765,0,0,0-2.51619,2.17533,5.59917,5.59917,0,0,1-1.05951,1.59547c-1.657,2.26495-2.54442,4.67751-1.73612,7.5346a4.361,4.361,0,0,0,3.32981,3.22435,12.87507,12.87507,0,0,0,5.73.10895,25.43533,25.43533,0,0,1,5.0588-.369c.82057.0088,1.11056.297,1.04553,1.172-.38129,5.20288.76257,9.95944,4.22939,14.01492a28.41518,28.41518,0,0,0,6.33453,5.74056c1.57439.98926,3.22959,1.86431,4.79694,2.87819a2.82161,2.82161,0,0,0,.7872.36723c2.08746.55526,4.1732,1.10525,6.215,1.81688a10.4992,10.4992,0,0,0,2.72.63433c2.26669.14936,4.42793.86626,6.67712,1.10173,2.02594.2126,4.00452.89965,5.94783.5447a17.97117,17.97117,0,0,0,7.39937-.76786c4.33655-1.46194,8.65561-3.024,12.133-6.28a20.57817,20.57817,0,0,0,4.59138-5.62811,19.13368,19.13368,0,0,0,1.97678-8.45534A18.15234,18.15234,0,0,0,130.58158,383.419ZM96.86919,405.36562a17.92814,17.92814,0,0,1-7.44148-1.43383,20.30162,20.30162,0,0,1-7.98442-6.28878,5.84558,5.84558,0,0,1-.87153-4.5c.1353-.926.99105-1.40747,1.76237-1.8204a7.16729,7.16729,0,0,1,4.06252-.69231c1.72727-.46564,2.83252.54295,3.93245,1.93636A57.72947,57.72947,0,0,1,96.632,402.563c.25825.5166.63259.97521.9225,1.4795C98.07628,404.94742,97.869,405.39023,96.86919,405.36562Zm22.34369-6.967a15.18237,15.18237,0,0,1-4.84963,4.732,9.32307,9.32307,0,0,1-4.8111,1.33015,1.1607,1.1607,0,0,1-1.34068-1.0367,32.29912,32.29912,0,0,0-3.89736-8.88233,16.92951,16.92951,0,0,0-3.90962-4.23645,25.83574,25.83574,0,0,0-10.88369-5.75638,19.87215,19.87215,0,0,0-2.94492-.34791,2.8584,2.8584,0,0,1-1.91878-.69934,7.07631,7.07631,0,0,1,3.14354-2.25441,23.78223,23.78223,0,0,1,5.71764-1.541,38.30192,38.30192,0,0,1,11.16485-.26533,16.89574,16.89574,0,0,1,4.25754.90493,25.60573,25.60573,0,0,1,7.308,3.62849,11.74406,11.74406,0,0,1,4.43849,6.10605A9.50109,9.50109,0,0,1,119.21288,398.39857Z" fill="#fff"/>
        <path d="M75.96457,243.09127a11.562,11.562,0,0,0-4.48955.37807c-1.47212.51087-3.08748.59177-4.61615.96036-3.45793.83369-6.87088,1.886-10.35843,2.55647a30.44086,30.44086,0,0,1-11.66475.34276,13.03872,13.03872,0,0,1-4.35513-1.74745c-2.2354-1.3742-2.85376-3.84274-1.66-6.393a12.39069,12.39069,0,0,1,3.9413-4.61377A47.5596,47.5596,0,0,1,53.846,228.66491c4.70578-1.88855,9.44176-3.70341,14.18422-5.49849,3.59917-1.36235,7.07234-3.01126,10.60551-4.52357a131.84259,131.84259,0,0,1,14.30634-5.17258,84.70727,84.70727,0,0,1,11.24865-2.63871c4.7685-.73417,9.5405-.98763,14.22816.47647a16.523,16.523,0,0,1,9.85075,8.17257,23.67714,23.67714,0,0,1,1.59532,3.69615c.3053.89288.15008,1.40049-.78713,1.75184-1.96058.735-3.9147,1.50063-5.8189,2.369-1.85348.84517-3.91457,1.18643-5.62946,2.36389a4.08915,4.08915,0,0,1-.98114.36332A85.13826,85.13826,0,0,0,107.481,233.805c-1.88486.91356-3.9,1.59049-5.697,2.64565-2.63744,1.54865-5.55866,2.63-7.88771,4.70544a6.93906,6.93906,0,0,1-1.211.655,40.01056,40.01056,0,0,0-11.52669,9.82134,25.1612,25.1612,0,0,0-5.28669,14.03021,27.9441,27.9441,0,0,0,1.88381,13.30377,18.35074,18.35074,0,0,0,4.25132,6.57218,10.44477,10.44477,0,0,0,4.31636,2.56913c2.09248.56455,4.08375,1.43519,6.35471,1.55134a82.16242,82.16242,0,0,1,11.0987,1.66575c2.22953.42439,4.46368.82867,6.704,1.19106a18.90738,18.90738,0,0,1,7.21586,2.4725,10.66358,10.66358,0,0,1,4.89663,6.59454c1.00358,4.21649.99243,3.73366-2.51165,6.03393-4.57791,3.00511-9.818,3.85363-15.2201,3.94663-7.83574.13493-15.111-2.05711-22.09349-5.3465A37.895,37.895,0,0,1,67.5263,293.67893a29.85887,29.85887,0,0,1-5.50774-15.64117c-.52422-8.86411,1.84411-16.97439,6.25372-24.57144.52567-.90559,1.068-1.80406,1.60854-2.70005A30.50148,30.50148,0,0,1,74.703,244.8185,3.83184,3.83184,0,0,0,75.96457,243.09127Z" fill="#fff"/>
        <path d="M114.93444,239.21858a3.90283,3.90283,0,0,1,2.1433.42289c.42569.19329.84372.405,1.27612.58164,2.62606,1.07311,2.69871,1.16823,5.019-.53278,2.91063-2.13374,8.11874-1.63354,11.03528.9899a19.19386,19.19386,0,0,1,4.81585,6.792c.56649,1.33259,1.305,2.86323.91276,4.535a9.011,9.011,0,0,0-.03437,2.27459,9.0014,9.0014,0,0,1-1.17485,3.969c-.23369.51852-.66949.57147-1.12558.69017-1.66355.433-3.103-.34472-4.56267-.87909-.97616-.35739-1.85693-.96844-2.80014-1.42518-.69622-.3371-.70372-.71632-.38142-1.39063,1.36633-2.8586,1.51422-5.71047-.2704-8.48776a4.71444,4.71444,0,0,0-1.09282-1.3529,2.13493,2.13493,0,0,0-2.27377-.48236,2.3923,2.3923,0,0,0-1.28339,1.97864,3.853,3.853,0,0,0,.46,2.18606,7.80059,7.80059,0,0,1,.68655,5.75925,3.08885,3.08885,0,0,1-3.63939,2.20191,8.15178,8.15178,0,0,1-5.01568-3.7932,37.398,37.398,0,0,1-3.21939-8.28043,11.61229,11.61229,0,0,0-1.454-3.15964c-1.12541-1.6475-.75588-2.41481,1.21168-2.59416C114.39914,239.20034,114.63473,239.21858,114.93444,239.21858Z" fill="#fff"/>
      </g>
    </g>
  </g>
</svg>
