<svg xmlns="http://www.w3.org/2000/svg" viewBox="0 0 700 700">
  <g id="ea6c9679-1197-4aee-a13c-3df5f52c9cfe" data-name="レイヤー 2">
    <g id="b6b9ce66-f70d-414b-b63f-901c5714c977" data-name="レイヤー 4">
      <g id="a120cb42-7be3-4171-a3e9-a2b8fc9e478c" data-name="グループ 40">
        <rect id="f67b0907-a35c-4f40-96fc-e2078d8b0d60" data-name="長方形 22" y="0.00192" width="699.99856" height="699.99808" fill="#ffd445"/>
        <path d="M436.49053,455.85886c3.77-34.3898,6.5-41.88978,35.57-69.10992,32.78-30.67985,44.82-44.67981,51.33973-81.25954,6.09008-34.20011,15.25-42.72987,25.86006-52.62,6.3701-5.9199,13.59006-12.64986,20.86006-25.20989,9.73-16.82,22.22994-42.39,35.4699-69.46978,12.93992-26.44988,26.30976-53.7999,37.87981-74.53983,20.92012-37.4999,36.33-41.59,52.64-45.92981.34985-.09009.63989-.18017.88989-.27.75-.23,1.24-.45019,2.25-.72021V29.57c-.60986.17993-1.41992.40991-2.25.64013-.97.28-1.96.55982-2.67993.75-17.01,4.51976-34.59,9.19993-56.94983,49.27989-11.66014,20.89985-25.08,48.33972-38.05,74.87968-13.18991,26.95989-25.63984,52.42979-35.24992,69.03985-6.74,11.65988-13.26,17.72993-19.56,23.6-11.53,10.73-21.48995,20.00971-27.98993,56.50961-6.13988,34.47989-17.71994,47.88-49.22988,77.37992-30.62982,28.66984-33.78,37.38979-37.74993,73.44975-3.87987,35.34-7.94993,52.99985-57.60974,68.32989-.49023.1499-.97021.2998-1.4602.45a57.2661,57.2661,0,0,1-1.25-5.78c-1.8-11.48995-.07983-20.28,1.58007-28.76994l.1399-.72c1.58007-8.07982,5.9702-37.91982,14.70993-97.36961,3.29-22.36,4.74022-32.51016,4.59008-38.88-.40992-17.88984-4.22-30.8-9.9099-45.07971,23.99995-9.03025,24.95991-9.53025,27.74995-11,.7-.37012,1.53-.81006,3.01-1.52,9.26-4.41014,12.74-19.57,9.09007-28.89-2.75-7.04-4.95019-12.14987-8.27-19.87983l-1.56006-3.63012c-3.52-8.20994-5.60008-17.46992,7.5-40.20985l.81982-1.40991c12.59006-21.89007,22.54-39.18007,47.96011-39.82,25.17988-.63012,61.61974,1.25,81.1197,2.43994,13.93015.92016,29.4101-14.75,31.99994-46.17981,1.1499-13.95992,1.53-23.33,1.79-29.52994.25-6.13011.3999-9.82005,1.05-11.24,1.47-3.24,6.61986-12.46994,8.82005-16.41011l.83984-1.52c2.78-5-.8999-16.42989-5.60009-20.69965-3.73-3.39013-16.71969-14.31-24.11982-19.86-4.74-3.55-12.66989-9.51-20.76-6.74-5.85985,1.99-10.08005,7.9199-12.90988,18.11982-4.29,15.52-9.10008,18.05-10.97,18.42011-2.76.52979-6.3701-1.84008-10.16014-6.70994-8.56-11-21.51-30.57-26.37982-38.01015-1.2002-1.82983-1.91016-2.92992-1.9502-2.98974h-7.6699c.13013.2.81006,1.27979,1.89013,2.98974,5.1599,8.15013,19.59981,30.74015,28.5998,42.29993,5.66014,7.28,11.39011,10.39011,17.03,9.28,7.02-1.38989,12.37009-9.04978,16.35006-23.41986,2.09985-7.58006,5.02-12.20993,8.42992-13.37008,4.58007-1.5498,10.6699,2.99023,14.40988,5.8,6.89012,5.17015,19.82,16,23.51,19.36006,2.94995,2.67992,4.84008,10.49,4.19018,12.13986l-.84009,1.5c-2.42992,4.3601-7.48,13.42013-9.07005,16.92012-1.22,2.66992-1.35986,6.16991-1.67992,13.84982-.25,6.13987-.63013,15.42989-1.77,29.23991-1.3999,17.05-9.89988,40.62-24.61006,39.77992-19.61983-1.18994-56.31971-3.08007-81.7198-2.46-29.34979.74-40.69987,20.47993-53.84974,43.32972l-.8,1.41015c-13.26,23.03-12.84006,34.83975-7.86986,46.43981l1.55981,3.64013c3.29,7.67991,5.47,12.73971,8.17992,19.67988,2.68017,6.84007-.2998,17.51-5.58983,20.03-1.61011.76-2.51,1.24-3.28,1.63989-2.42992,1.29-3.35009,1.78-27.11981,10.71994-1.01025-2.38988-2.05-4.83983-3.14013-7.37986-1.77-4.16991-3.6499-8.57-5.60986-13.33-5.16014-12.58005-22.78022-57.56967-32.9301-108.18965-2.81006-13.97994-3.87988-22.56-4.81-30.1298a182.43749,182.43749,0,0,0-6.81981-33.86,173.134,173.134,0,0,0-20.23995-45.44006C335.6609,43.74011,369.32075,23.82,404.64074,3q2.53491-1.5,5.08984-3H386.99063q-2.54993,1.5-5.09008,3Q337.246,29.29534,297.391,52.78989A151.4585,151.4585,0,0,0,282.98084,36.35C263.2509,16.88008,246.38106,8.08006,230.321,3c-3.67016-1.16992-7.31-2.13988-10.92014-3H195.18121c3.43994,1.02,6.78978,2.01025,10.07981,3,25.52,7.67015,47.12,15.46016,71.17979,39.99013A157.16038,157.16038,0,0,1,289.141,57.65c-77.62,45.72985-140.10982,82.61964-183.16979,108.37983-31.62982-52.12-50.26992-84.21-55.57-95.68993C38.76137,45.16,46.88147,16.22017,58.92124,3a31.15457,31.15457,0,0,1,3.12011-3H53.36143a37.75768,37.75768,0,0,0-2.92992,3c-5.81005,6.54-9.7202,15.17013-11.75,26.47991a74.00284,74.00284,0,0,0,5.36986,43.80017c6.57006,14.19967,31.64984,56.37973,55.89979,96.34959-31.86981,19.11006-52.0099,31.49991-58.38977,36.11a259.27953,259.27953,0,0,0-28.27,23.94988,111.27549,111.27549,0,0,0-10.29,12.24c-.77,1.0498-1.52,2.10986-2.25,3.18993v19.84c.68994-.87012,1.43994-1.83008,2.25-2.87011,5.3601-6.84984,13.06-16.75,19.55-22.13983a281.63948,281.63948,0,0,1,27.19989-22.88007c5.94994-4.3,25.9499-16.89985,57.14979-36.00991,15.19015,24.95013,29.31,47.84,37.37,60.93,3.04,4.92992,5.09008,8.25974,5.85009,9.5.36987.60987.76,1.27,1.16991,1.97,6.41991,10.89987,18.35006,31.16984,56.89979,32.55,15.75.55981,30.66009,1.06982,43.90006,1.52,19.87984.66992,35.59,1.21,45.17984,1.62988,15.75.67993,20.34,3.24,26.54,7.35985a24.49486,24.49486,0,0,1,3.63989,3.63011c4.78,5.38988,11.86008,13.34982,26.59,13.34982a58.41365,58.41365,0,0,0,17.51-3.06982c5.38988,13.53,8.99,25.68987,9.38011,42.13978.12988,5.85008-1.6101,17.69014-4.5,37.31-8.7202,59.30989-13.10007,89.07983-14.64011,96.93967l-.14013.72c-1.73,8.85007-3.68994,18.88008-1.62988,31.99991a61.98569,61.98569,0,0,0,1.54,7.04c-69.9398,20.91987-86.17975,17.27-147.61981-24.03-23.68989-15.91988-42.24991-26.38982-82.90974-26.8-32.96991-.32983-43.56-5.92991-128.02977-69.67974-.74-.55981-1.49-1.12988-2.25-1.69994v8.26c.76.57007,1.51,1.13989,2.25,1.7,82.97981,62.66,91.62994,68.03985,127.94969,68.41,38.71989.3999,56.44983,10.39987,79.09993,25.6198,38.90984,26.15008,60.7699,37.69985,88.62995,37.69985,17.4399,0,37.24992-4.52977,65.05968-12.83981a116.83456,116.83456,0,0,0,11.65012,22.39984c7.02977,10.78,15.22995,20.48994,24,30.14982L278.76087,696.99809l-2.34008,2.16015h20.62008l2.34008-2.16015L408.88072,596.0384c.68994.73,1.35986,1.46,2.05,2.18994,7.53978,8.05027,15.33981,16.38008,22.79976,25.29a28.571,28.571,0,0,1,6.3701,12.04c1.68994,7.25-.28,13.63009-2.63012,20.06-4.69994,12.85006-12.55,28.10978-20.37984,41.37977-.42017.73-.8501,1.45019-1.28,2.16015h11.17991c.44018-.72.87012-1.43994,1.3-2.16015a222.95458,222.95458,0,0,0,17.92989-38.17983c2.62011-7.1699,5.23-15.62984,2.9602-25.3698a38.03182,38.03182,0,0,0-8.31-15.91988c-7.6201-9.10008-15.51-17.52-23.14009-25.6701-.66992-.71-1.33008-1.42993-2-2.13988L697,330.37922l2.25-2.07006v-19.01L697,311.36926,406.24059,579.45861c-8.49-9.35007-16.36984-18.71015-23.04-28.92985a109.17437,109.17437,0,0,1-10.53-20.02c.44019-.13013.87012-.26026,1.32007-.40015C427.62068,513.55865,432.50055,492.19884,436.49053,455.85886ZM332.68093,295.50944a28.04887,28.04887,0,0,0-4.99022-4.81c-7.02-4.66991-12.90989-7.78-30.11982-8.53-9.62009-.42016-25.34-.95-45.2499-1.63012-13.23-.45-28.13007-.95-43.88-1.52-34.7199-1.23974-44.9899-18.67988-51.11977-29.09977-.42993-.74-.84008-1.42016-1.23-2.06-.75-1.25-2.82006-4.59008-5.8701-9.54q-20.77474-33.70486-37.34978-60.91975c43.56-26.63005,106.82962-64.71979,183.08947-110.05976A161.5365,161.5365,0,0,1,315.42071,110.53a174.35612,174.35612,0,0,1,6.52,32.39981c.96,7.73,2.04,16.48995,4.92015,30.81974,10.32005,51.43,28.20991,97.10984,33.44989,109.88984,1.97,4.8,3.85985,9.25,5.6599,13.44991,1.01,2.3601,1.98,4.63988,2.92016,6.8701C346.40063,310.94934,338.52076,302.08926,332.68093,295.50944Z" fill="#222"/>
        <g>
          <g id="a678137a-392f-4f88-89f1-dc438ebfcd94" data-name="グループ 25">
            <path d="M438.25054,3.18017C250.801,113.6098,80.17119,218.08949,61.00131,231.93955a259.00917,259.00917,0,0,0-27.14985,22.99994c-11.8,10.8-25.77,29.21989-30.43011,38.52992l-2.23-1.11011v-4.5c6.01-10.22,18.37008-26.15984,29.44013-36.28994a263.64774,263.64774,0,0,1,27.63984-23.40985C77.4212,214.32949,246.66109,110.68988,433.12066.79h3.72Z" fill="#fff"/>
          </g>
          <g id="a72c1df2-7224-475d-a762-779f9925a2ab" data-name="グループ 29">
            <g id="fa4a1efc-fca2-43d6-a8f4-76a443f5e1d5" data-name="グループ 26">
              <path id="afe54778-4ead-49f5-8c15-fff81389a242" data-name="パス 21" d="M.75247,298.2172v-9.60886c1.60888-3.21606,2.72412-4.637,6.07006-9.37693l3.80492,2.689A184.89254,184.89254,0,0,0,.75247,298.2172Z" fill="#222"/>
            </g>
            <g id="b94ec887-49c1-43ac-a6f9-fd5e59a4fb21" data-name="グループ 27">
              <path id="a396d93d-502c-44e5-b056-e8708668bc1d" data-name="パス 22" d="M29.08957,259.56032l-3.33691-3.25195c1.68506-1.727,3.325-3.323,4.8789-4.74388,0,0,7.2119-7.16307,17.04489-15.22286l2.95189,3.605c-9.647,7.91087-16.71188,14.91891-16.78194,14.989C32.28854,256.3633,30.71042,257.89626,29.08957,259.56032Zm45.28482-36.48184-2.51611-3.925c6.41307-4.11009,14.78708-9.39987,24.89985-15.707l2.467,3.956C89.13144,213.70351,80.76842,218.97449,74.37439,223.07848Zm49.83-31.16788-2.446-3.9641q11.651-7.1887,25.0539-15.39986l2.435,3.97191q-13.37692,8.19578-25.04389,15.39181Zm50.11684-30.72086-2.426-3.978q12.06918-7.36082,25.11884-15.278l2.41894,3.98192q-13.03488,7.91379-25.11274,15.27388Zm50.25087-30.49992-2.415-3.98607q12.26511-7.41685,25.16987-15.19991l2.407,3.99095q-12.89279,7.77648-25.16181,15.19186Zm50.34389-30.342-2.3999-4q12.379-7.43808,25.20894-15.12007l2.39306,4Q287.304,92.90391,274.916,100.34371Zm50.433-30.20792-2.39111-4q12.46434-7.441,25.249-15.05489l2.386,4Q337.81171,62.69562,325.349,70.13676Zm50.50991-30.06486-2.3789-4.01q12.53025-7.43772,25.28583-14.986l2.377,4.008q-12.74961,7.54577-25.28388,14.98385Z" fill="#222"/>
            </g>
            <g id="a76ecaea-b493-475c-8463-c7670ff58c28" data-name="グループ 28">
              <path id="ae1d0dd7-2941-42aa-a975-58fcf15e026a" data-name="パス 23" d="M426.20579,10.27387,423.83885,6.26l10.6179-6.258h9.17088Z" fill="#222"/>
            </g>
          </g>
          <rect id="ad4d8b63-7e9d-40ec-89c6-15bfab72de89" data-name="長方形 19" x="150.70365" y="144.56227" width="67.57285" height="16.31096" rx="1" transform="translate(-52.30423 116.83243) rotate(-30.99998)" fill="#e67397"/>
        </g>
        <g>
          <g id="af39927a-7554-45b8-a579-d499c499fa39" data-name="グループ 20">
            <g id="b8387ea1-fef7-4fd5-b1b6-4552ca342c8f" data-name="グループ 19">
              <path id="ae542adc-1423-4842-ad64-821f0c26e3b2" data-name="パス 4" d="M599.70412,379.45278a8.21311,8.21311,0,0,0-1.032,1.0669l-1-1.0791a7.82791,7.82791,0,0,0,1.147-.94409l.832-.76807-.9121-.989-.53394.4939a8.61,8.61,0,0,0-.917.94409l-.979-1.05688a8.33409,8.33409,0,0,0,1.01391-.84107l.53394-.49389-.22608-.24707a9.73448,9.73448,0,0,0-.823-.78589l1.19311-1.10009a5.22782,5.22782,0,0,0,.708.88989l.22607.24389.217-.2a4.81332,4.81332,0,0,0,.69189-.73388l.729.793a9.86463,9.86463,0,0,0-.6311-2.02807l1.416-.3a8.27725,8.27725,0,0,0-.647-.62207c.3-.23511.51293-.415.93188-.8l1.645-1.519a5.7825,5.7825,0,0,0,.79394-.8291l1.137.26294a4.47927,4.47927,0,0,0,.217.564c.06909.2.42895,1.166.571,1.54492.02808.06909.135.39111.3.8999.07007.2.178.522.3291.93408a7,7,0,0,1,2.17309.6001,4.53689,4.53689,0,0,1,1.48511,1.02709,1.93611,1.93611,0,0,1,.552,2.27,4.57874,4.57874,0,0,1-1.24389,1.45605,3.19873,3.19873,0,0,0-1.33008-.886c.33789-.272.448-.356.573-.47289.585-.541.668-.925.3-1.323a4.723,4.723,0,0,0-1.063-.865,5.02586,5.02586,0,0,0-2.509-.655,20.88822,20.88822,0,0,0-1.342-3.5769l-1.449,1.34009,6.2849,6.8a17.98909,17.98909,0,0,0,1.35107,1.34008l-1.21093,1.12109a14.37562,14.37562,0,0,0-1.25-1.47509l-6.46288-7a4.72864,4.72864,0,0,0,.10889.468,16.727,16.727,0,0,1,.4519,2.593l.09107-.08593a9.02343,9.02343,0,0,0,.78491-.82007l.96,1.03589a11.29645,11.29645,0,0,0-1.03491.8811l-.741.68188c.00488.627-.00708.96-.04712,1.47607l1.209-1.124a7.39028,7.39028,0,0,0,.80689-.81689c.23706.3.417.51293.9851,1.12792l2.261,2.447a12.82346,12.82346,0,0,0,1.01807,1.02l-1.08105,1-.33106-.35888L605.2,383.57875l.4939.53589-1.10889,1.0249a10.65758,10.65758,0,0,0-.99292-1.2l-1.96606-2.125c-.075.40992-.13305.615-.26391,1.136a3.73441,3.73441,0,0,0-1.49292-.46509,14.09343,14.09343,0,0,0,.91089-4.043Zm1.12109-2.80809a11.03454,11.03454,0,0,0-.16406-1.63794,5.14573,5.14573,0,0,0-.5.42407l-.3291.3.91211.988Zm2,4.39989,1.748-1.614-.74194-.8-1.74511,1.61206Zm1.54712,1.67309,1.748-1.61206-.77808-.84106-1.748,1.613Z" fill="#222"/>
              <path id="e64cfbe4-cef8-40bf-85f9-bb2d6fc7caac" data-name="パス 5" d="M606.17213,366.50385a15.25293,15.25293,0,0,1,3.4641.229l-.11108,1.57006a14.20027,14.20027,0,0,0-3.49292-.3Zm2.66308,4.47191a6.00145,6.00145,0,0,0,.86889-.70606l.75-.69189a6.44355,6.44355,0,0,0,.7439-.783,10.35684,10.35684,0,0,0,.9829,1.167l1.957,2.116a1.99263,1.99263,0,0,0,1.345.01392,9.288,9.288,0,0,0,2.97607-2.15991,40.67748,40.67748,0,0,0,3.623-3.7451,5.04505,5.04505,0,0,0,.771,1.51489c-1.792,1.75-2.687,2.614-3.458,3.32689a10.68351,10.68351,0,0,1-3.11791,2.291,3.43012,3.43012,0,0,1-1.85889.17407,10.6976,10.6976,0,0,1-.25195,2.0791,4.48307,4.48307,0,0,0-.06909.5l-1.58691-.687a7.07029,7.07029,0,0,0,.55-2.354l-1.99512-2.15673-.55493.512a5.306,5.306,0,0,0-.64892.7Zm1.70605-6.792a6.2829,6.2829,0,0,0-1.335-.3291l.69995-1.24a9.36786,9.36786,0,0,1,1.773.51391l.8999-.834a7.816,7.816,0,0,0-.417-1.749l1.34693-.748c.10009.48.19995,1.0371.249,1.39989l.65088-.60009a9.12745,9.12745,0,0,0,.96-1l.948,1.02807c-.345.26294-.68506.55689-1.0559.8999l-1.73608,1.6001c.114.37109.15893.5.228.76l1.478-1.365a8.30856,8.30856,0,0,0,.88793-.8999,11.45083,11.45083,0,0,0,.86011,1.01293l2.81005,3.041a9.7029,9.7029,0,0,0,.971.95093c-.3479.3-.552.47-.80908.71l-3.57592,3.3c-.3169.29394-.53394.51-.937.8999-.2-.25611-.54712-.655-.8689-1l-2.84008-3.073c-.31006-.33691-.686-.7-.92212-.916.25293-.2.561-.46411,1.0249-.88989l.769-.71289a5.36474,5.36474,0,0,0-.2351-.752l-1.51294,1.39989a11.70512,11.70512,0,0,0-.988.99292l-.95093-1.029a8.93987,8.93987,0,0,0,1.116-.91406Zm2.687,2.84912,3.17309-2.93408-.51-.55493-3.176,2.93408Zm1.21411,1.314,3.176-2.9309-.5-.5459-3.17309,2.93407Zm1.21607,1.33789,3.165-2.92407-.51294-.55493-3.165,2.92211Z" fill="#222"/>
              <path id="a8ca4dcc-7aff-4260-9e64-0883c55646d1" data-name="パス 6" d="M628.71993,361.581a11.21033,11.21033,0,0,0-1.15087-1.40893l-5.231-5.6621-.49194.45508a11.95667,11.95667,0,0,0-1,1.042l-1.20508-1.30688a7.74819,7.74819,0,0,0,1.084-.88794l.946-.874a9.99342,9.99342,0,0,0,1-1.01806,20.63574,20.63574,0,0,0,1.48388,1.771l4.80492,5.19993a11.86158,11.86158,0,0,0,1.313,1.25806Z" fill="#222"/>
              <path id="a50d6988-6c24-441d-bc5c-c560e5deedfb" data-name="パス 7" d="M633.04805,353.65305a1.93477,1.93477,0,0,0,.85693.31006,2.1186,2.1186,0,0,0,1.75-.644,2.171,2.171,0,0,0,.11889-3.25292,2.08918,2.08918,0,0,0-3.14306-.166,2.46487,2.46487,0,0,0-.83691,1.6499,1.60708,1.60708,0,0,0,.11792.751l-1.3999,1.063c-.571-.825-.60791-.885-.853-1.19311l-2.11792-2.76611c-.16406-.19409-.46289-.564-.927-1.08593.32593-.26612.571-.4729,1.11889-.97607l2.52807-2.335a10.8874,10.8874,0,0,0,1.352-1.3999l1.2,1.3a13.20466,13.20466,0,0,0-1.49389,1.228l-2.41406,2.23,1.5,1.94994c.06494.09107.177.2561.33789.489a3.44682,3.44682,0,0,1,1.176-2.25,3.59208,3.59208,0,0,1,2.717-1.08007,3.42938,3.42938,0,0,1,2.51488,1.258c1.668,1.8059,1.523,4.01708-.387,5.78294a4.101,4.101,0,0,1-3.17211,1.27295,4.19029,4.19029,0,0,1-1.67993-.52393Z" fill="#222"/>
              <path id="f57ba329-d250-40de-a548-2b902437c81b" data-name="パス 8" d="M637.132,344.8479a2.68394,2.68394,0,0,1-1.75707-.88989c-1.21606-1.31592-.874-3.175.88305-4.8a3.91434,3.91434,0,0,1,3.633-1.282,2.74405,2.74405,0,0,1,1.228.769,2.59387,2.59387,0,0,1,.3,3.29,2.8,2.8,0,0,1,3.7561.3999c1.41211,1.533,1.042,3.437-1.06494,5.38206a4.81522,4.81522,0,0,1-3.35693,1.582,2.91243,2.91243,0,0,1-2.022-.99194,2.65681,2.65681,0,0,1-.71289-2.46606,2.99281,2.99281,0,0,1,.636-1.34912A2.69986,2.69986,0,0,1,637.132,344.8479Zm-.25-2.02c.6941.75,1.708.689,2.64307-.1731.916-.844,1.042-1.82006.34912-2.57006-.675-.729-1.678-.66089-2.594.18408-.90015.83716-1.06226,1.84008-.39722,2.55908Zm6.74389.74291c-.78809-.855-1.92993-.75292-3.042.2749s-1.3,2.17407-.51391,3.03,1.89208.727,3-.3c1.15185-1.05859,1.355-2.14257.55591-3.00463Z" fill="#222"/>
              <path id="ae441d85-3c99-41c1-9716-2f7af6b54db7" data-name="パス 9" d="M644.89788,332.52616a9.84394,9.84394,0,0,0-.83008-.813,13.56587,13.56587,0,0,0,1.209-1.02295l4.529-4.187a10.80021,10.80021,0,0,0,1.125-1.13207,8.89173,8.89173,0,0,0,.7461.88989l1.2351,1.33495a9.9035,9.9035,0,0,0,.846.83911,11.92568,11.92568,0,0,0-1.093.93408l-4.749,4.38793a13.32115,13.32115,0,0,0-1.021,1.01611,9.59341,9.59341,0,0,0-.76708-.90893Zm3.37011,3.875a12.60492,12.60492,0,0,0-1.13306,1.165l-1.02709-1.11108a11.78529,11.78529,0,0,0,1.25805-1.04809l6.988-6.457a11.95894,11.95894,0,0,0,1.155-1.1809l1.0249,1.11108a12.75019,12.75019,0,0,0-1.26806,1.05908l-4.623,4.271c.177.5.23706.6731.352,1.06494l3.873-3.57909a12.14828,12.14828,0,0,0,1.022-1.021c.04394.073.168.24389.5249.73388,1.19311,1.64306,1.7351,2.624,1.77295,3.22.042.68506-.24512,1.15894-1.324,2.156-.53393.492-.94409.832-1.60693,1.37012a3.66735,3.66735,0,0,0-1.293-.843c.77294-.562,1.582-1.2,1.94994-1.53588.50611-.46411.67408-.73389.655-1a5.1549,5.1549,0,0,0-1.072-1.8999l-4.12206,3.8081c.093.39111.136.60009.24,1.207l-1.44311.91308a13.59242,13.59242,0,0,0-.76392-3.446Zm-2.11792-4.72508.979,1.0581,4.551-4.19994-.979-1.06Z" fill="#222"/>
            </g>
          </g>
          <g id="f6fc2ebd-ecc2-47f9-bd81-d550f7bc7fb7" data-name="グループ 22">
            <path id="baaa5ea0-f7af-4e46-8cbf-36bc8a14a236" data-name="パス 11" d="M349.81059,160.90236a8.191,8.191,0,0,0-.36792-1.439l1.44189-.283a7.79148,7.79148,0,0,0,.2,1.468l.217,1.114,1.31909-.258-.1399-.71606a9.49045,9.49045,0,0,0-.321-1.27588l1.41211-.27807a8.00129,8.00129,0,0,0,.187,1.30492l.13891.71.3291-.062a9.65487,9.65487,0,0,0,1.1001-.28906l.312,1.59106a5.2144,5.2144,0,0,0-1.127.13794l-.3291.063.05591.28906a4.80855,4.80855,0,0,0,.26293.97412l-1.05688.21a10.09171,10.09171,0,0,0,2.05688.522l-.48706,1.365a8.23286,8.23286,0,0,0,.86694-.229c.04712.375.08594.65308.2,1.217l.43408,2.19506a5.95084,5.95084,0,0,0,.291,1.114l-.822.83008a4.6266,4.6266,0,0,0-.59106-.11206c-.20606-.042-1.217-.24512-1.61792-.324-.072-.011-.3999-.09008-.925-.21411-.208-.04712-.53907-.124-.967-.21a7.16438,7.16438,0,0,1-1.6499,1.53808,4.54726,4.54726,0,0,1-1.65405.7251,1.94714,1.94714,0,0,1-2.2251-.718,4.57939,4.57939,0,0,1-.585-1.822,3.27373,3.27373,0,0,0,1.45191-.66992c.053.428.06689.57006.10009.73388.15406.783.436,1.05493.97193.948a4.728,4.728,0,0,0,1.293-.45191,5.02776,5.02776,0,0,0,1.87109-1.8,20.29288,20.29288,0,0,0,3.75.731l-.38208-1.93408-9.083,1.7871a17.323,17.323,0,0,0-1.8501.45288l-.322-1.623a13.83125,13.83125,0,0,0,1.91089-.291l9.34592-1.83789a4.60473,4.60473,0,0,0-.457-.15088,16.846,16.846,0,0,1-2.44408-.97412l.02588.124a8.80382,8.80382,0,0,0,.28588,1.10009l-1.386.2749a11.91446,11.91446,0,0,0-.208-1.345l-.2-.98511c-.532-.324-.811-.51-1.228-.813l.31909,1.61693a8.2332,8.2332,0,0,0,.2771,1.116c-.375.04394-.6521.08594-1.477.24707l-3.26708.646a12.12671,12.12671,0,0,0-1.3999.33008l-.28394-1.43994.48-.1001-.45508-2.3181-.71508.13989-.292-1.48193a10.24316,10.24316,0,0,0,1.53808-.21607l2.842-.56005c-.312-.279-.457-.438-.832-.82007a3.75905,3.75905,0,0,0,1.179-1.02905,14.10806,14.10806,0,0,0,2.96606,2.894Zm-5.227,2.26708.459,2.333,1.125-.219-.459-2.333Zm2.238-.43994.458,2.334,1.072-.21094-.459-2.333Zm4.792.6001a11.13776,11.13776,0,0,0,1.48193.72,4.82568,4.82568,0,0,0-.1001-.6499l-.08594-.438-1.31909.259Z" fill="#222"/>
            <path id="aad4d41e-4d2b-4320-8c20-df331894f00b" data-name="パス 12" d="M352.26469,172.99144a5.80807,5.80807,0,0,0,.17993,1.10009l.22607,1a6.2817,6.2817,0,0,0,.30493,1.032,11.0391,11.0391,0,0,0-1.5.26806l-2.80493.63794a1.98222,1.98222,0,0,0-.6831,1.158,9.21409,9.21409,0,0,0,.387,3.64891,40.17888,40.17888,0,0,0,1.43506,5,4.90285,4.90285,0,0,0-1.7-.08789c-.62012-2.42211-.92212-3.6289-1.156-4.65087a10.601,10.601,0,0,1-.426-3.84007,3.42763,3.42763,0,0,1,.77392-1.69409,10.40706,10.40706,0,0,1-1.67309-1.2539,4.12545,4.12545,0,0,0-.3999-.30689l1.384-1.032a7.037,7.037,0,0,0,1.76391,1.647l2.85888-.648-.168-.73608a5.37034,5.37034,0,0,0-.2771-.91088Zm5.02806,4.85789a6.25589,6.25589,0,0,0,.949-.99l.72192,1.22607a9.21805,9.21805,0,0,1-1.32788,1.27587l.271,1.2a7.67288,7.67288,0,0,0,1.72192.51l-.02295,1.53808c-.46411-.1521-1-.345-1.34009-.48193l.19312.85791a8.87421,8.87421,0,0,0,.38891,1.33007l-1.363.31006c-.05591-.43311-.13989-.87207-.251-1.36108l-.522-2.3c-.377-.08594-.51294-.115-.772-.18409l.44311,1.96094a8.23594,8.23594,0,0,0,.335,1.21191,11.68881,11.68881,0,0,0-1.30688.24292l-4.031.916a8.99908,8.99908,0,0,0-1.3.36792c-.08911-.4541-.13306-.71509-.21289-1.05493l-1.07593-4.74c-.10009-.42089-.178-.718-.312-1.26.3169-.042.83911-.147,1.30005-.252l4.074-.925c.44995-.1001.948-.24512,1.25391-.343.04394.32007.11889.718.26,1.32788l.229,1.02294a5.08029,5.08029,0,0,0,.769.167l-.4541-2a11.75581,11.75581,0,0,0-.36206-1.34912l1.36108-.31a9.179,9.179,0,0,0,.23609,1.41894Zm-7.30687,1.689.95288,4.19408.73706-.16992-.95605-4.19188Zm1.759-.387.95606,4.208.7229-.166-.958-4.206Zm1.74292-.3999.95605,4.209.73609-.168-.957-4.20605Zm3.97094-5.841a15.27809,15.27809,0,0,1-1.91992,2.885l-1.3-.8789a14.06115,14.06115,0,0,0,2-2.873Z" fill="#222"/>
            <path id="fc85ff3e-f175-4f5a-9694-07e1b2af7cf3" data-name="パス 13" d="M353.14262,192.64812a1.89892,1.89892,0,0,0-.68189.61108,2.11267,2.11267,0,0,0-.26294,1.843,2.17092,2.17092,0,0,0,2.54736,1.71386,2.13425,2.13425,0,0,0,.25757-.0669,2.0889,2.0889,0,0,0,1.636-2.69091,2.46236,2.46236,0,0,0-1.0559-1.51708,1.57064,1.57064,0,0,0-.71289-.25l-.272-1.739c.99511-.10889,1.06689-.11108,1.45409-.1831l3.437-.553c.25-.04907.718-.14209,1.3999-.3.07593.415.14209.729.32593,1.447l.8601,3.333a10.90191,10.90191,0,0,0,.58911,1.85692l-1.70605.438a13.05871,13.05871,0,0,0-.37012-1.8999l-.82006-3.18309-2.428.394-.58911.063a3.44256,3.44256,0,0,1,1.4231,2.10009,3.58138,3.58138,0,0,1-.33692,2.89989,3.42066,3.42066,0,0,1-2.3,1.62012c-2.386.61206-4.261-.5669-4.9121-3.08593a3.8861,3.8861,0,0,1,1.646-4.625Z" fill="#222"/>
            <path id="e86a43d5-8a00-478e-a0aa-961f8eff63d8" data-name="パス 14" d="M353.54862,202.07241a3.88554,3.88554,0,0,1,1.1189-1.262,9.29766,9.29766,0,0,1,2.95409-1.37695,8.24929,8.24929,0,0,1,3.959-.2,3.97646,3.97646,0,0,1,2.81689,2.92211,4.07468,4.07468,0,0,1-.312,3.144,3.92622,3.92622,0,0,1-1.1189,1.26293,9.40346,9.40346,0,0,1-2.98,1.3811,7.316,7.316,0,0,1-4.262.1001,3.9633,3.9633,0,0,1-2.488-2.83593A4.04169,4.04169,0,0,1,353.54862,202.07241Zm2.218,4.01a5.36332,5.36332,0,0,0,3.72412,0,5.42289,5.42289,0,0,0,3.189-1.88989,2.02741,2.02741,0,0,0,.16406-1.624,1.88938,1.88938,0,0,0-1.1001-1.321,5.21231,5.21231,0,0,0-3.51806.009,6.24891,6.24891,0,0,0-3.01806,1.56908,2.04222,2.04222,0,0,0-.3999,1.96411,2.02038,2.02038,0,0,0,.95508,1.29248Z" fill="#222"/>
            <path id="b3275378-d7d1-4cdb-a9fb-905e3ac2cce5" data-name="パス 15" d="M358.39773,211.55432a1.79979,1.79979,0,0,0-.91406.948,2.619,2.619,0,0,0-.051,1.77587c.387,1.325,1.31909,1.97289,2.376,1.66308a1.626,1.626,0,0,0,1.188-1.15991,3.58479,3.58479,0,0,0-.12792-1.635,12.39784,12.39784,0,0,0-.48511-1.417l1.6621-.48511a9.25637,9.25637,0,0,0,.312,1.321c.39208,1.34009,1.24,1.95288,2.269,1.6499.927-.26806,1.26489-1.051.93506-2.19311a2.33208,2.33208,0,0,0-.844-1.33911,2.05108,2.05108,0,0,0-1.2-.261l-.24-2.009a3.4634,3.4634,0,0,1,2.28808.71,4.55138,4.55138,0,0,1,1.5061,2.415c.6521,2.23706-.04907,4.01391-1.79394,4.52294a2.54078,2.54078,0,0,1-2.239-.352,3.44012,3.44012,0,0,1-.8999-1.147,2.95226,2.95226,0,0,1-.34009,2.1809,2.68952,2.68952,0,0,1-1.6621,1.18408,2.97641,2.97641,0,0,1-2.18994-.23511,4.82589,4.82589,0,0,1-2.04809-2.98,4.35483,4.35483,0,0,1,.279-3.77489,3.6549,3.6549,0,0,1,1.282-1.18994Z" fill="#222"/>
            <path id="f2578409-1cee-4bb2-8dd2-05fd79a0d5fc" data-name="パス 16" d="M364.21266,223.26327a12.583,12.583,0,0,0-.56811-1.52392l1.439-.457a12.01423,12.01423,0,0,0,.415,1.58691l2.87792,9.06589a11.77553,11.77553,0,0,0,.58106,1.54712l-1.44312.459a12.46408,12.46408,0,0,0-.417-1.60009l-1.906-6c-.529-.051-.71-.06811-1.11108-.1311l1.593,5.02587a11.83414,11.83414,0,0,0,.49,1.356c-.084.012-.29492.0481-.886.165-1.99194.38208-3.113.459-3.667.238-.63794-.252-.946-.71093-1.38891-2.114-.22095-.69312-.356-1.209-.562-2.03711a3.581,3.581,0,0,0,1.314-.81591c.18189.94311.40991,1.94091.562,2.42089.207.655.37988.91992.63306,1.01806a5.12812,5.12812,0,0,0,2.177-.16308l-1.69408-5.345c-.394-.08105-.6001-.135-1.2-.3l-.21607-1.69408a13.555,13.555,0,0,0,3.446.772Zm4.94189-1.407a9.33231,9.33231,0,0,0,1.08789-.406,13.18018,13.18018,0,0,0,.41308,1.52807l1.866,5.88206a11.24609,11.24609,0,0,0,.5481,1.5,10.06961,10.06961,0,0,0-1.123.3l-1.73193.552a10.50422,10.50422,0,0,0-1.11791.40991,12.54317,12.54317,0,0,0-.38208-1.38891l-1.95605-6.16087a12.842,12.842,0,0,0-.489-1.356,9.49713,9.49713,0,0,0,1.15088-.3Zm.238,1.5-1.373.43408,1.876,5.907,1.37207-.436Z" fill="#222"/>
          </g>
          <g id="b2bc8c6c-8176-4aef-a807-a3ae1303f2e1" data-name="グループ 30">
            <path id="b37aa8f2-adf8-4e1c-a619-b6c95e7a7399" data-name="パス 24" d="M130.77418,313.22494a2.60273,2.60273,0,0,0-.072.387,16.4649,16.4649,0,0,1-.75707,3.3,11.85764,11.85764,0,0,1-1.575,3.10009,9.04129,9.04129,0,0,1-.979,1.13208,5.136,5.136,0,0,0-1.145-1.06006,6.96821,6.96821,0,0,0,1.54-1.855,10.82846,10.82846,0,0,0,1.48193-4.81908c0-.093,0-.16089-.012-.34693Zm1.9121-1.85205c.61694,0,1-.01391,1.365-.04712a2.11712,2.11712,0,0,0-.02295.385,14.52664,14.52664,0,0,0,.78,4.164,9.65123,9.65123,0,0,0,2.6831,4.1499,5.27157,5.27157,0,0,0-1.11792,1.10009,11.38642,11.38642,0,0,1-2.706-4.33788,17.718,17.718,0,0,1-.75708-2.87987c-.01391-.05811-.072-.49195-.2-1.293h-1.634c-.4541,0-.874.021-1.22412.05591V311.2999a9.31458,9.31458,0,0,0,1.259.07006Z" fill="#222"/>
            <path id="a3afe680-2def-4152-a107-6235f8851a57" data-name="パス 25" d="M140.323,312.56088a13.63746,13.63746,0,0,0-1.563.07007v-1.387a10.0308,10.0308,0,0,0,1.531.082h6.47094a10.77774,10.77774,0,0,0,1.552-.082v1.387a14.01674,14.01674,0,0,0-1.552-.07007h-2.624V315.161h2.085a12.60508,12.60508,0,0,0,1.41405-.07007v1.354a12.15274,12.15274,0,0,0-1.41405-.0581h-2.085v3.124h3.06591a12.29067,12.29067,0,0,0,1.54-.06909v1.3999a10.863,10.863,0,0,0-1.51709-.082h-7.3579a12.0898,12.0898,0,0,0-1.55.082v-1.3999a10.1504,10.1504,0,0,0,1.55.06909H142.761v-3.124h-1.8999a13.09682,13.09682,0,0,0-1.44507.0581v-1.354a10.89534,10.89534,0,0,0,1.42212.07007h1.92212v-2.60009Z" fill="#222"/>
            <path id="eb888260-ee85-45ae-947c-b4b30792b9b1" data-name="パス 26" d="M154.635,314.753a8.56837,8.56837,0,0,0-.03711-.885h.60791a10.32843,10.32843,0,0,0,1.98-1.49389h-4.65306a11.47641,11.47641,0,0,0-1.40991.07007V311.065a11.07937,11.07937,0,0,0,1.3999.072h5.28295a4.64416,4.64416,0,0,0,1.01611-.06l.75707.852c-.3.28-.3.28-1.10009,1.04a16.044,16.044,0,0,1-2.48388,1.79394v.5h2.85693a13.18336,13.18336,0,0,0,1.58593-.07007v1.41211a14.27264,14.27264,0,0,0-1.58593-.07007h-2.85693v3.39989c0,1.0249-.3999,1.28393-1.94507,1.28393-.23608,0-.468-.011-1.3081-.04712a4.71172,4.71172,0,0,0-.36108-1.39989,10.25592,10.25592,0,0,0,1.69189.137c.478,0,.55908-.04395.55908-.3v-3.07909h-3.13793a14.90639,14.90639,0,0,0-1.58691.07007v-1.41211a14.3362,14.3362,0,0,0,1.62206.07007h3.10009Z" fill="#222"/>
            <path id="ecc31d9f-1c90-4e56-8924-77ce08593f46" data-name="パス 27" d="M166.05023,311.52206a4.91659,4.91659,0,0,0-.07007-.86108h1.47094a3.86882,3.86882,0,0,0-.08105.8501v.583h3.3a10.23136,10.23136,0,0,0,1.467-.082v1.33008a9.00826,9.00826,0,0,0-1.43506-.07007h-7.73191a12.656,12.656,0,0,0-1.43311.07007v-1.33008a10.956,10.956,0,0,0,1.47.082h3.041Zm0,2.86889a6.77584,6.77584,0,0,0-.04395-.85009h1.3999a4.46251,4.46251,0,0,0-.04712.85009v.13989h2.70605a10.13331,10.13331,0,0,0,1.14209-.04712,8.44619,8.44619,0,0,0-.04395,1v3.437c0,1.053-.34008,1.321-1.69994,1.321-.269,0-.492-.01392-.97-.04908a4.15723,4.15723,0,0,0-.314-1.24706,8.034,8.034,0,0,0,1.144.11694c.478,0,.582-.05811.582-.36108v-3.032h-2.542v4.32494a10.76056,10.76056,0,0,0,.082,1.43506h-1.47a11.015,11.015,0,0,0,.082-1.42407v-4.3369h-2.31v3.34593a8.95462,8.95462,0,0,0,.07007,1.375h-1.43311a12.10156,12.10156,0,0,0,.07007-1.363V315.4825a9.98072,9.98072,0,0,0-.04712-1,11.928,11.928,0,0,0,1.2.04712h2.449Z" fill="#222"/>
            <path id="e580d150-bbe7-4913-bc51-2080be2303c3" data-name="パス 28" d="M178.83292,319.58381a24.64543,24.64543,0,0,0,1.75-5.58788l1.5.43091a6.31661,6.31661,0,0,0-.3999,1.11889,34.93346,34.93346,0,0,1-1.4939,4.03808h2.1001a12.89752,12.89752,0,0,0,1.48193-.073v1.3999a10.44066,10.44066,0,0,0-1.48193-.082h-7.60008a10.74733,10.74733,0,0,0-1.51392.082v-1.3999a13.23132,13.23132,0,0,0,1.51392.073Zm-1.10694-7.95506a4.97747,4.97747,0,0,0-.082-.91088h1.467a4.40054,4.40054,0,0,0-.082.8999v.79492h2.813a10.23629,10.23629,0,0,0,1.5-.084v1.3999a12.66689,12.66689,0,0,0-1.5-.07007h-6.77806a12.164,12.164,0,0,0-1.47.07007v-1.3999a9.639,9.639,0,0,0,1.47.084h2.66088Zm-1.508,2.47192a36.15774,36.15774,0,0,1,1.333,4.53392l-1.30811.469a23.28543,23.28543,0,0,0-1.28393-4.5581Z" fill="#222"/>
            <path id="a438da8f-5095-4b2b-94b7-8c60dc610c69" data-name="パス 29" d="M187.755,313.961a7.5191,7.5191,0,0,0,1.47,2.228,3.22326,3.22326,0,0,0-.667,1.04907,7.04429,7.04429,0,0,1-.94311-1.78491c.05591.94409.05591,1.02808.05591,1.6001v3a11.35874,11.35874,0,0,0,.072,1.42309h-1.33105a11.69336,11.69336,0,0,0,.07007-1.42309v-2.4121c.02294-.783.04711-1.321.05908-1.6001a10.04072,10.04072,0,0,1-.61792,1.67993,9.72088,9.72088,0,0,1-.64111,1.11889,6.0893,6.0893,0,0,0-.64111-1.2141,9.72757,9.72757,0,0,0,1.654-3.66088h-.60375a5.47844,5.47844,0,0,0-.85108.0459v-1.283a5.57431,5.57431,0,0,0,.863.0459h.769v-.908a7.58931,7.58931,0,0,0-.05908-1.21191h1.31909a9.902,9.902,0,0,0-.061,1.2v.91992h.5a4.88334,4.88334,0,0,0,.74805-.0459v1.271a7.144,7.144,0,0,0-.73706-.03393Zm3.313-1.55a7.09136,7.09136,0,0,0,.48706-1.866l1.37695.324c-.28.81811-.46607,1.31909-.56006,1.542h1.50488a9.6182,9.6182,0,0,0,1.17407-.04908,11.4439,11.4439,0,0,0-.044,1.168v6.531a11.7034,11.7034,0,0,0,.07007,1.34008H193.747v-.63208h-3.229v.63208H189.202a13.71332,13.71332,0,0,0,.05591-1.37695v-6.47093a11.88174,11.88174,0,0,0-.04394-1.19091,10.76218,10.76218,0,0,0,1.2229.04907Zm-.55,3.45091h3.229V313.597h-3.229Zm0,3.68408h3.229v-2.542h-3.229Z" fill="#222"/>
            <path id="a5bc4c1b-6f55-4bf6-a755-165fac10f6c1" data-name="パス 30" d="M202.787,314.12484a10.4442,10.4442,0,0,0,4.5371,4.511,5.00863,5.00863,0,0,0-.8999,1.24,14.43483,14.43483,0,0,1-2.249-1.854,11.1991,11.1991,0,0,1-1.88989-2.64892,11.97427,11.97427,0,0,1,.082,1.31592v3.269a10.59112,10.59112,0,0,0,.082,1.44507h-1.51806a10.79362,10.79362,0,0,0,.082-1.459V316.703c0-.291.0249-.81592.05811-1.272a11.3135,11.3135,0,0,1-4,4.49,4.44217,4.44217,0,0,0-.86206-1.19092,10.89316,10.89316,0,0,0,4.383-4.60008h-2.552a10.47976,10.47976,0,0,0-1.3999.082v-1.37695a9.69016,9.69016,0,0,0,1.3999.082h2.97191V311.817a5.728,5.728,0,0,0-.082-1.083h1.51807a5.71477,5.71477,0,0,0-.082,1.072v1.10693h3.13794a9.01539,9.01539,0,0,0,1.40991-.082v1.377a10.7156,10.7156,0,0,0-1.40991-.082Z" fill="#222"/>
            <path id="fbe080ba-1a0c-4810-bb85-abc4ca802e99" data-name="パス 31" d="M211.2889,313.6202a1.136,1.136,0,0,0-.04712.13989c-.03491.1399-.03491.1521-.072.27906a14.14534,14.14534,0,0,1-2.10009,5.364,6.10555,6.10555,0,0,0-1.2351-.8269,11.098,11.098,0,0,0,2.042-5.31688Zm2.927-2.81a11.77476,11.77476,0,0,0-.07007,1.42212v7.708a1.1311,1.1311,0,0,1-.478,1.1001,2.37176,2.37176,0,0,1-1.21411.2c-.44312,0-.93189-.02295-1.491-.05908a4.76242,4.76242,0,0,0-.375-1.365,11.57277,11.57277,0,0,0,1.668.154c.384,0,.5-.061.5-.279v-7.47117a11.72346,11.72346,0,0,0-.06812-1.40991Zm2.58007,2.3999a8.89455,8.89455,0,0,0,.53394,2.053,12.19228,12.19228,0,0,0,1.738,3.22,5.29969,5.29969,0,0,0-1.17895.91089,13.76714,13.76714,0,0,1-2.074-4.42211c-.012-.04394-.12793-.5-.363-1.377Z" fill="#222"/>
            <path id="a2a25bac-e103-42f0-8c94-390cf3df0af8" data-name="パス 32" d="M221.316,318.21809a10.92071,10.92071,0,0,0-1.42089.07007v-1.3a9.89843,9.89843,0,0,0,1.40991.082h3.17089v-.082a5.40894,5.40894,0,0,0-.033-.64111h.5a6.24123,6.24123,0,0,0,1.375-.94409H223.116c-.478,0-.79.012-1.166.04395v-1.165a8.4666,8.4666,0,0,0,1.17993.05908H226.99a5.28339,5.28339,0,0,0,.885-.04712l.64209.71c-.2.16406-.2.16406-.41894.34912a16.25078,16.25078,0,0,1-2.333,1.7v.012h3.04589a9.63347,9.63347,0,0,0,1.43311-.082v1.3a11.06225,11.06225,0,0,0-1.447-.07007h-3.032v2.042a1.12644,1.12644,0,0,1-.15088.73389c-.2.292-.594.385-1.64306.385-.154,0-.53906-.011-1.147-.04712a4.35588,4.35588,0,0,0-.384-1.23706,10.29815,10.29815,0,0,0,1.45.116c.51,0,.592-.032.592-.26807v-1.72509Zm.6001-5.762a6.74392,6.74392,0,0,0-.875-1.31689l1.179-.35205a8.82833,8.82833,0,0,1,1.06006,1.66894h1.23706a6.97781,6.97781,0,0,0-.71289-1.47094l1.21411-.335a9.31539,9.31539,0,0,1,.8059,1.8059h.989a7.681,7.681,0,0,0,.957-1.75l1.26.35009a12.2902,12.2902,0,0,1-.876,1.3999h.5249c.79394,0,1.01611-.012,1.436-.04394a7.14933,7.14933,0,0,0-.04712.967v1.083a7.1235,7.1235,0,0,0,.05811.886h-1.272v-1.8059h-7.60008v1.8059h-1.27a5.313,5.313,0,0,0,.05908-.8999v-1.071a8.04626,8.04626,0,0,0-.04712-.967,11.74747,11.74747,0,0,0,1.375.04395Z" fill="#222"/>
            <path id="ed7879f1-6696-40fb-8d29-e88ab0dfc073" data-name="パス 33" d="M238.032,313.877a9.26779,9.26779,0,0,1-2.17211,3.022,3.73126,3.73126,0,0,0-.57105-.771,7.28129,7.28129,0,0,0-.384.853,10.271,10.271,0,0,1-.75708-1.374c.012.207.012.207.033.8501,0,.04394.012.64111.012.769v2.822a11.54762,11.54762,0,0,0,.072,1.43506h-1.33106a9.041,9.041,0,0,0,.082-1.43506v-2.3911l.012-.594s.012-.32592.0459-.958a9.578,9.578,0,0,1-1.23511,2.75487,7.52391,7.52391,0,0,0-.644-1.31689,10.51132,10.51132,0,0,0,1.67993-3.593h-.4541a6.97193,6.97193,0,0,0-.8999.0459V312.785a6.79783,6.79783,0,0,0,.8999.04394h.585v-.967a7.448,7.448,0,0,0-.061-1.21191h1.30811a9.94869,9.94869,0,0,0-.061,1.21191v.967h.468a4.30273,4.30273,0,0,0,.7-.04394v1.2a6.6505,6.6505,0,0,0-.676-.03492h-.46606a5.25974,5.25974,0,0,0,1.095,1.72607,6.32663,6.32663,0,0,0,1.60009-2.3Zm2.55395,2.3a12.23718,12.23718,0,0,1-1.3,2.321,7.078,7.078,0,0,0,2.9851,1.67993,4.64651,4.64651,0,0,0-.6521,1.27,8.30054,8.30054,0,0,1-3.113-1.99389,8.51864,8.51864,0,0,1-3.04492,2.01806,3.97317,3.97317,0,0,0-.7229-1.1289,6.97873,6.97873,0,0,0,3-1.82007,9.29766,9.29766,0,0,1-1.21411-2.239l1.063-.53906a7.31064,7.31064,0,0,0,.92211,1.82006,7.02527,7.02527,0,0,0,.918-1.876Zm-2.68407-4.54808a4.78271,4.78271,0,0,0-.05689-.874h1.384a4.45427,4.45427,0,0,0-.05591.85107v.5h1.58594a9.7384,9.7384,0,0,0,1.282-.0691v1.281c-.387-.033-.78-.05591-1.293-.05591h-3.852a10.8878,10.8878,0,0,0-1.30493.06811v-1.293a9.80326,9.80326,0,0,0,1.3.06909h1.01391Zm2.1831,1.7141a6.97976,6.97976,0,0,0,2.062,2.333,4.82585,4.82585,0,0,0-.72192,1.10693,8.43337,8.43337,0,0,1-2.355-2.86888Z" fill="#222"/>
          </g>
          <g id="bcbccb42-3c67-4376-a6ff-b6eba8f11df2" data-name="グループ 31">
            <path id="e2fff847-3c33-4bbf-aca9-8d5bbef0701c" data-name="パス 34" d="M457.80231,425.25173a2.92767,2.92767,0,0,0-.07006.387,16.48193,16.48193,0,0,1-.75708,3.3,11.865,11.865,0,0,1-1.575,3.10009,8.8305,8.8305,0,0,1-.978,1.13208,5.24307,5.24307,0,0,0-1.145-1.06006,6.94849,6.94849,0,0,0,1.53906-1.85912,10.83409,10.83409,0,0,0,1.481-4.81395c0-.1001,0-.166-.011-.353Zm1.91406-1.852a13.02913,13.02913,0,0,0,1.363-.051,2.38374,2.38374,0,0,0-.021.387,14.424,14.424,0,0,0,.781,4.16405,9.64907,9.64907,0,0,0,2.68187,4.15209,5.29988,5.29988,0,0,0-1.11791,1.095,11.43675,11.43675,0,0,1-2.708-4.33593,18.31927,18.31927,0,0,1-.75707-2.87987c-.01392-.06006-.07007-.491-.2-1.3h-1.6311c-.45508,0-.874.023-1.22412.05811v-1.365a8.81008,8.81008,0,0,0,1.25805.075Z" fill="#222"/>
            <path id="f9252bc7-3f22-4630-8130-4446c208da9b" data-name="パス 35" d="M467.35454,424.58181a14.11448,14.11448,0,0,0-1.564.06909V423.263a9.93068,9.93068,0,0,0,1.52807.082h6.47411a10.70788,10.70788,0,0,0,1.552-.082v1.38793a14.3857,14.3857,0,0,0-1.552-.06909h-2.624v2.60009h2.085a12.7367,12.7367,0,0,0,1.415-.06909v1.35107a13.41858,13.41858,0,0,0-1.415-.0581h-2.085v3.12694h3.06591a12.78571,12.78571,0,0,0,1.541-.06812v1.3999a11.17215,11.17215,0,0,0-1.51709-.082h-7.35887a12.3643,12.3643,0,0,0-1.55005.082v-1.3999a10.33985,10.33985,0,0,0,1.55005.06812h2.89208v-3.12694h-1.8999a14.417,14.417,0,0,0-1.44506.0581v-1.35107a10.95546,10.95546,0,0,0,1.42309.06909H469.792v-2.60009Z" fill="#222"/>
            <path id="a0343bb1-d277-4a0b-b011-cf39e2226978" data-name="パス 36" d="M481.66335,426.77663q.00475-.44459-.03491-.88794h.60791a10.37884,10.37884,0,0,0,1.98-1.49291h-4.65209a11.4766,11.4766,0,0,0-1.40991.07006v-1.375a11.96861,11.96861,0,0,0,1.3999.06811h5.2849a4.608,4.608,0,0,0,1.01392-.0581l.759.855c-.3.2771-.3.2771-1.1001,1.0371a15.601,15.601,0,0,1-2.48607,1.79394v.5h2.85888a13.11307,13.11307,0,0,0,1.58788-.07007v1.41211a14.30767,14.30767,0,0,0-1.58788-.07007h-2.86133v3.405c0,1.0249-.394,1.28393-1.94506,1.28393-.23193,0-.468-.01391-1.30493-.04394a4.83144,4.83144,0,0,0-.36108-1.3999,10.27579,10.27579,0,0,0,1.689.14209c.478,0,.56006-.04712.56006-.30493V428.562h-3.13794a14.89342,14.89342,0,0,0-1.58593.07007v-1.41137a14.16758,14.16758,0,0,0,1.61889.07007h3.10009Z" fill="#222"/>
            <path id="b36170cb-73c6-4169-a9c7-f56f7a2b9e90" data-name="パス 37" d="M493.08032,423.5447a5.31928,5.31928,0,0,0-.07007-.865h1.468a3.98606,3.98606,0,0,0-.082.85107v.583h3.3a10.23114,10.23114,0,0,0,1.467-.082v1.333a8.815,8.815,0,0,0-1.4331-.072h-7.73094a12.68967,12.68967,0,0,0-1.43506.072v-1.333a10.95433,10.95433,0,0,0,1.47.082h3.04394Zm0,2.86792a6.59574,6.59574,0,0,0-.04712-.853h1.3999a4.22788,4.22788,0,0,0-.04907.853v.13989h2.708c.5249,0,.792-.01392,1.14306-.04395a8.29165,8.29165,0,0,0-.04712,1v3.44091c0,1.051-.33789,1.31909-1.69994,1.31909-.26807,0-.49195-.01392-.969-.04907a4.19693,4.19693,0,0,0-.314-1.24609,8.11,8.11,0,0,0,1.14209.11694c.478,0,.583-.05908.583-.363v-3.032h-2.542v4.32909a10.61258,10.61258,0,0,0,.084,1.4331h-1.47094a10.96167,10.96167,0,0,0,.082-1.42309v-4.3391h-2.31006v3.35106a9.1781,9.1781,0,0,0,.0691,1.375h-1.43311a12.69845,12.69845,0,0,0,.07007-1.366v-3.54589a9.12126,9.12126,0,0,0-.04907-1c.375.03.7.04395,1.2.04395h2.449Z" fill="#222"/>
            <path id="f2c82f8a-f808-4e97-85e9-2e39e382e4ec" data-name="パス 38" d="M509.68722,429.58473c-.093.072-.23291.2-.665.582a7.79181,7.79181,0,0,1-1.12109.8059,10.254,10.254,0,0,0,3.05688,1.03711,5.8128,5.8128,0,0,0-.62012,1.342,10.1077,10.1077,0,0,1-4.19994-2.03,6.21588,6.21588,0,0,1-1.782-2.30688h-1.01611V431.658a19.61005,19.61005,0,0,0,2.34594-.627l.012,1.165a33.42142,33.42142,0,0,1-4.561,1.11791c-.27905.061-.31592.061-.52588.1189l-.24512-1.3a12.81184,12.81184,0,0,0,1.656-.21V429.023h-.62891a7.40234,7.40234,0,0,0-1.18994.06812v-1.261a7.18729,7.18729,0,0,0,1.21411.073h.605v-3.686a9.1388,9.1388,0,0,0-.0459-1.156,9.27283,9.27283,0,0,0,1.27.061h5.22509a8.12557,8.12557,0,0,0,1.354-.07007v1.2351a9.52563,9.52563,0,0,0-1.34009-.06H503.365v.58691H508.31a8.78708,8.78708,0,0,0,1.072-.05908v1.061a9.47721,9.47721,0,0,0-1.072-.06006H503.365v.573H508.31a7.56494,7.56494,0,0,0,1.072-.05811v1.074a6.66968,6.66968,0,0,0-1.072-.0581H503.365v.61792h6.2141a7.07146,7.07146,0,0,0,1.156-.073v1.261a6.80435,6.80435,0,0,0-1.05-.06811h-1.1001Zm-4.012-.56909a3.726,3.726,0,0,0,1.22607,1.352,8.27855,8.27855,0,0,0,1.561-1.352Z" fill="#222"/>
            <path id="f6f0ff48-27d5-4584-8a8e-742a96eb707d" data-name="パス 39" d="M512.36934,425.66482a11.03009,11.03009,0,0,1,2.053,1.4331l-.72193,1.074a11.15874,11.15874,0,0,0-2.053-1.52807Zm2.053,3.9431a15.50661,15.50661,0,0,1-1.52588,3.72094l-1.133-.978a3.24092,3.24092,0,0,0,.49-.69189,11.24606,11.24606,0,0,0,1.1211-2.80907Zm-1.4939-6.84593a12.22012,12.22012,0,0,1,1.97192,1.51611l-.82788,1.01391a10.295,10.295,0,0,0-1.957-1.60009Zm3.81494,4.74608v4c0,.24707.07006.33789.292.3999a8.82821,8.82821,0,0,0,1.668.1001,5.7501,5.7501,0,0,0,2.19311-.21c.27906-.154.33692-.40991.3999-1.5a3.88365,3.88365,0,0,0,1.23706.35791c-.12793,1.366-.271,1.811-.667,2.125a1.70142,1.70142,0,0,1-.99.32788c-.408.04394-1.3999.0769-2.158.0769a7.58636,7.58636,0,0,1-2.624-.24292.912.912,0,0,1-.582-.99v-4.03807a.87567.87567,0,0,1-.1311.03809,6.19225,6.19225,0,0,0-.6499.25292l-.282-1.365a5.74489,5.74489,0,0,0,1.063-.24v-1.426a7.51282,7.51282,0,0,0-.07007-1.23706h1.375a8.15714,8.15714,0,0,0-.07007,1.19311v1.1001l1.32788-.42407V424.001a8.92364,8.92364,0,0,0-.06689-1.2351h1.363a7.44886,7.44886,0,0,0-.06909,1.24706v1.4209l1.866-.56909a8.52647,8.52647,0,0,0,.946-.35205,2.572,2.572,0,0,0-.01391.373c0,.04589,0,.14208-.011.27905,0,.154,0,.154-.04394,1.386-.061,2.11108-.178,2.88305-.489,3.17406a1.68743,1.68743,0,0,1-1.19091.3169c-.12988,0-.23389-.01392-.53809-.03394a3.53458,3.53458,0,0,0-.324-1.17993,5.50424,5.50424,0,0,0,.676.06812c.64112,0,.64112-.01.69995-2.689l-1.57494.5V429.668a8.42026,8.42026,0,0,0,.05688,1.166h-1.33911a8.87324,8.87324,0,0,0,.05493-1.19995V427.106Z" fill="#222"/>
            <path id="acd62f33-357a-4e53-a4a2-ef44f8d78207" data-name="パス 40" d="M528.18327,423.48562a1.4165,1.4165,0,0,0-.10009.1731.51768.51768,0,0,1-.05909.11792,1.58793,1.58793,0,0,0-.14892.30493,13.71509,13.71509,0,0,1-1.939,2.85692,12.53837,12.53837,0,0,1-1.79394,1.67993,5.474,5.474,0,0,0-.88794-1.21606,9.28822,9.28822,0,0,0,2.87988-3.009,4.32546,4.32546,0,0,0,.62011-1.447Zm4.21,9.948c-.292-.6311-.39991-.8269-.606-1.22289a61.50207,61.50207,0,0,1-6.31005.64111,9.45414,9.45414,0,0,0-1.366.12793l-.23-1.4939c.2561.02295.522.03809.85107.03809.26807,0,.33789,0,.66406-.01392a30.15144,30.15144,0,0,0,1.71289-3.449,9.42544,9.42544,0,0,0,.678-2.009l1.54.3999c-.072.14307-.116.23389-.23291.51611a35.98534,35.98534,0,0,1-2.18407,4.488,37.79521,37.79521,0,0,0,4.22191-.38208,16.5521,16.5521,0,0,0-1.48-2.07592l1.14307-.63989a29.79451,29.79451,0,0,1,2.85888,4.345Zm-1.7-10.49386a7.55037,7.55037,0,0,0,1.3,2.29491,9.49623,9.49623,0,0,0,1.281,1.31909,11.53111,11.53111,0,0,0,1.10888.792,5.90151,5.90151,0,0,0-.865,1.28393,12.49239,12.49239,0,0,1-2.69311-2.69994,12.03229,12.03229,0,0,1-1.072-1.759c-.02587-.061-.07006-.14209-.12793-.271a1.73548,1.73548,0,0,0-.11694-.231l-.093-.187Z" fill="#222"/>
            <path id="b25e26d5-4822-4211-b8e2-9cc516a1e01c" data-name="パス 41" d="M544.23109,433.47974v-.478h-7.55687v.478h-1.3a13.09043,13.09043,0,0,0,.06909-1.531v-7.56907a12.41259,12.41259,0,0,0-.06909-1.3999,11.634,11.634,0,0,0,1.365.05811h7.405a11.79471,11.79471,0,0,0,1.365-.05811,11.35727,11.35727,0,0,0-.061,1.3999v7.583a10.78682,10.78682,0,0,0,.072,1.51709Zm-7.55687-2.7539c.489-.187.83789-.324,1.04907-.427a6.36494,6.36494,0,0,0,1.342-.86694h-.678c-.521.01-.521.01-.769.02294a4.745,4.745,0,0,0,.03711-.626v-.854a3.34849,3.34849,0,0,0-.03711-.6311,6.73849,6.73849,0,0,0,.769.02295h4.1311a6.62784,6.62784,0,0,0,.769-.02295,4.502,4.502,0,0,0-.023.6311v.854a3.98541,3.98541,0,0,0,.023.613l.489.282a2.04455,2.04455,0,0,0-.209.2,7.04858,7.04858,0,0,1-.688.533,7.8351,7.8351,0,0,0,1.178.374,8.03552,8.03552,0,0,0-.74707.959,7.87945,7.87945,0,0,1-2.614-1.6101c.012.21.012.21.012.40991v.5a3.40112,3.40112,0,0,0,.04908.666h-1.26a3.825,3.825,0,0,0,.0459-.666v-.5c0-.075.011-.28394.011-.375a9.02424,9.02424,0,0,1-2.145,1.4121,3.16819,3.16819,0,0,0-.73389-.865v1.2141h7.54491v-7.895h-7.54491Zm1.67993-5.08495a7.88233,7.88233,0,0,0-.96606.04712v-.96509a5.41569,5.41569,0,0,0,.97607.054h1.3999c-.011-.186-.02295-.312-.04395-.46289H541.025a2.54081,2.54081,0,0,0-.04712.46289h1.645a5.24252,5.24252,0,0,0,.93188-.054v.96509a6.9913,6.9913,0,0,0-.93188-.04712h-1.64086v.48H543.07a4.29546,4.29546,0,0,0,.90894-.061v1.01611a5.067,5.067,0,0,0-.885-.06h-5.24706a5.45528,5.45528,0,0,0-.91211.06v-1.01513a4.45932,4.45932,0,0,0,.93506.061h1.8999v-.48Zm.46606,2.9641h3.26489v-.40991h-3.26489Zm2.345.82691a5.98112,5.98112,0,0,0,.8999.62011,5.6565,5.6565,0,0,0,.688-.62011h-1.58789Z" fill="#222"/>
          </g>
          <g id="ad91f582-709f-4b15-ac6e-fce47c8cd277" data-name="グループ 32">
            <path id="be6492c1-cfa5-4aff-b19b-c7b515a885b8" data-name="パス 42" d="M180.048,201.17324a8.54493,8.54493,0,0,0-.11206-1.508H182.246a8.86279,8.86279,0,0,0-.11206,1.508h5.313a15.77328,15.77328,0,0,0,2.17895-.11206v2.106a18.29908,18.29908,0,0,0-2.17895-.11206h-5.312v1.322H187.091a13.35535,13.35535,0,0,0,1.69994-.075,13.54331,13.54331,0,0,0-.0769,1.65893v8.664c0,1.73291-.5,2.14111-2.66088,2.14111-.50489,0-1.08106-.019-1.771-.05591a5.68431,5.68431,0,0,0-.4851-1.99194,17.20712,17.20712,0,0,0,2.04809.14893c.71,0,.85693-.075.85693-.46606v-8.219h-10.917v8.664a13.395,13.395,0,0,0,.093,2.08691H173.643a16.59979,16.59979,0,0,0,.11207-2.19994v-8.76805a13.54332,13.54332,0,0,0-.07691-1.65893,16.65682,16.65682,0,0,0,1.8269.075h4.54589v-1.322H174.964a17.335,17.335,0,0,0-2.16211.11206v-2.106a17.29059,17.29059,0,0,0,2.16211.11206Zm-1.56494,7.18993a9.10517,9.10517,0,0,0-.781-1.54492l1.71191-.6001a10.49444,10.49444,0,0,1,.988,2.14111h1.26489a10.10394,10.10394,0,0,0,1.04395-2.123l1.8999.39209a8.34471,8.34471,0,0,1-.97,1.731h.65307a11.57487,11.57487,0,0,0,1.585-.075v1.8269a13.32989,13.32989,0,0,0-1.62207-.075h-2.2539v1.37988h2.15991a10.1962,10.1962,0,0,0,1.563-.07691v1.8081c-.46411-.03711-.81811-.0559-1.584-.0559h-2.13891v1.17406a14.723,14.723,0,0,0,.10889,2.217h-2.123a18.26746,18.26746,0,0,0,.094-2.217v-1.17406h-1.75195a14.5894,14.5894,0,0,0-1.69409.075v-1.8269a12.89279,12.89279,0,0,0,1.731.0769h1.71509V210.0365h-2.15991a9.99627,9.99627,0,0,0-1.45507.075v-1.8269a12.48892,12.48892,0,0,0,1.64111.075Z" fill="#222"/>
            <path id="a97ee154-b3db-490b-8452-c3f24fcb9688" data-name="パス 43" d="M200.90514,206.24257a12.80008,12.80008,0,0,0,7.82493,8.42087,7.66835,7.66835,0,0,0-1.3601,2.14111,15.12564,15.12564,0,0,1-4.60009-3.40893,13.97094,13.97094,0,0,1-2.812-4.508,11.28821,11.28821,0,0,1-3.03905,4.99291,13.807,13.807,0,0,1-4.45288,2.925,7.30676,7.30676,0,0,0-1.30492-1.957,13.28927,13.28927,0,0,0,3.021-1.583,9.46752,9.46752,0,0,0,4.1909-7.02293H193.973a14.13731,14.13731,0,0,0-2.33007.12988v-2.36694a14.67748,14.67748,0,0,0,2.34911.13306H198.557c.03711-.93408.054-1.23291.054-2.2a12.47191,12.47191,0,0,0-.12793-1.862h2.458a14.16468,14.16468,0,0,0-.12988,2.1809c0,.762-.019,1.19311-.03808,1.883h4.938a15.41353,15.41353,0,0,0,2.346-.133v2.36693a16.48858,16.48858,0,0,0-2.32788-.12988Z" fill="#222"/>
            <path id="b1533f9d-2c54-4a68-af5e-b2d7cbeab2fa" data-name="パス 44" d="M211.17977,204.47133a18.241,18.241,0,0,1,3.353,2.3479l-1.18994,1.75a16.114,16.114,0,0,0-3.355-2.554Zm3.22607,6.33495a24.0262,24.0262,0,0,1-1.8269,4.52488,15.99969,15.99969,0,0,1-.74609,1.417l-1.769-1.54394a15.63527,15.63527,0,0,0,2.69994-5.572Zm-2.33105-10.89988a18.799,18.799,0,0,1,3.27807,2.46l-1.3,1.69408a16.31693,16.31693,0,0,0-3.26-2.645Zm10.43186,8.01292a10.72921,10.72921,0,0,0,1.13989,3.3,9.65246,9.65246,0,0,0,3.38989,3.62987,7.654,7.654,0,0,0-1.37988,1.91992,13.06492,13.06492,0,0,1-3.76293-4.60009,14.25638,14.25638,0,0,1-1.342-4.24608h-2.365a21.57848,21.57848,0,0,1-.373,3.37206,12.27178,12.27178,0,0,1-2.36694,5.58788,5.12572,5.12572,0,0,0-1.71289-1.489,9.10183,9.10183,0,0,0,1.78809-3.467,31.5303,31.5303,0,0,0,.727-8.32786c0-1.34008-.019-2.123-.093-3.05492a16.30167,16.30167,0,0,0,2.125.094h5.792a14.29286,14.29286,0,0,0,2.01294-.094,16.06708,16.06708,0,0,0-.095,2.01293v3.44408a14.20574,14.20574,0,0,0,.095,1.99389,17.02771,17.02771,0,0,0-1.864-.073Zm1.47192-1.845v-3.60008h-5.69993v.9851c0,.876,0,1.249-.05811,2.6101Z" fill="#222"/>
            <path id="f9a96406-e7a7-452d-bcc1-a8cb443bda33" data-name="パス 45" d="M230.60405,210.86047a21.26863,21.26863,0,0,1-.82007,5.32909l-1.45287-.6709a15.24426,15.24426,0,0,0,.895-4.917Zm3.74511-2.384h.76391a10.48191,10.48191,0,0,0,1.5481-.075,3.81629,3.81629,0,0,0-.03809.708,38.44819,38.44819,0,0,1-.43091,5.36595c-.2,1.19312-.46411,1.731-1,2.04809a3.51881,3.51881,0,0,1-1.917.3169h-.5v-.22412a3.85608,3.85608,0,0,0-.356-1.678,6.62959,6.62959,0,0,0,1.19311.11206c.617,0,.783-.1311.93189-.72509a16.68577,16.68577,0,0,0,.373-4.229H231.0042c-.708,0-1.17407.019-1.65894.0559a14.72627,14.72627,0,0,0,.075-1.8269v-5.74c0-1.10009-.019-1.656-.075-2.25292a14.72877,14.72877,0,0,0,2.08789.093h3.3a16.01724,16.01724,0,0,0,2.03-.093v1.864a9.36075,9.36075,0,0,0-1.56592-.1001h-.83789v1.11889h.615a9.67333,9.67333,0,0,0,1.41406-.072v1.63794a10.02778,10.02778,0,0,0-1.41406-.075h-.615v1.04395h.615a9.28184,9.28184,0,0,0,1.41406-.075v1.65893a9.70676,9.70676,0,0,0-1.41406-.07691h-.615Zm-2.53295,2.25609a27.47416,27.47416,0,0,1,.28,4.47094l-1.19311.167c.03711-.76391.03711-1.08105.03711-1.73388,0-1.23-.019-1.63794-.093-2.75805Zm.82006-8.62888h-1.41918v1.1189h1.417Zm0,2.6101h-1.41918v1.04394h1.417Zm-1.417,2.552v1.21093h1.417v-1.21093Zm1.78711,3.374a20.50532,20.50532,0,0,1,.60009,3.63207l-1.02294.335a17.45969,17.45969,0,0,0-.45-3.74706Zm1.12109-.14892a10.86305,10.86305,0,0,1,.6499,2.477l-.876.39111a12.99791,12.99791,0,0,0-.53809-2.625Zm8.77293-2.88891a13.8958,13.8958,0,0,0,1.063,4.508,8.537,8.537,0,0,0,2.04809,3.05688,5.23981,5.23981,0,0,0-1.489,1.843,13.30226,13.30226,0,0,1-2.387-4.17308,17.7718,17.7718,0,0,1-1.042-5.2351h-1.5459a32.30519,32.30519,0,0,1-.40991,5.16088,13.881,13.881,0,0,1-1.415,4.229,5.27906,5.27906,0,0,0-1.71509-1.155c1.37695-2.27391,1.7-4.637,1.7-12.74288a22.57,22.57,0,0,0-.093-2.6079,15.07854,15.07854,0,0,0,2.12305.093h3.4099a13.68156,13.68156,0,0,0,2.032-.093,14.83061,14.83061,0,0,0-.075,2.011v3.13207a17.608,17.608,0,0,0,.075,2.03c-.354-.03491-.91406-.05591-1.64111-.05591Zm.27905-1.769v-3.48559h-3.57592v2.291c-.019.39209-.019.634-.019.68994v.5Z" fill="#222"/>
          </g>
          <g id="aaab3f04-a24d-43ca-a8bd-36303f3cfe1a" data-name="グループ 34">
            <path id="a16acad2-f532-441e-9011-9011118d3fe3" data-name="パス 47" d="M83.10215,24.98013a10.84641,10.84641,0,0,0-1.57494-.08106H74.47229a13.74332,13.74332,0,0,0-1.67993.08106v-1.479a16.02108,16.02108,0,0,0,1.645.07006h7.05394c.678,0,1.12011-.0249,1.61206-.07006Zm-9.5-9.43186a9.79012,9.79012,0,0,0,1.479.082h5.6931a10.97978,10.97978,0,0,0,1.53808-.082v1.468a11.67013,11.67013,0,0,0-1.52587-.07007h-5.6809a9.90331,9.90331,0,0,0-1.5.07007Zm.74512,3.824a9.56528,9.56528,0,0,0,1.34009.07007h4.52709a11.42221,11.42221,0,0,0,1.352-.07007v1.4331a12.15132,12.15132,0,0,0-1.343-.0581H75.70959a11.44743,11.44743,0,0,0-1.363.0581Z" fill="#222"/>
            <path id="aeda9832-64ab-4e60-b757-bc39ad5cb317" data-name="パス 48" d="M86.04111,18.203a8.43615,8.43615,0,0,0-1.447.072v-1.365a9.73913,9.73913,0,0,0,1.436.082h1.0371v-.781a6.17,6.17,0,0,0-.06689-1.23706h1.467a7.14706,7.14706,0,0,0-.072,1.3V16.987h2.626v-.66406a8.08753,8.08753,0,0,0-.07007-1.342h1.4331a8.25383,8.25383,0,0,0-.08105,1.342V16.987h.958a10.15169,10.15169,0,0,0,1.43311-.082v1.365a11.42323,11.42323,0,0,0-1.43311-.072h-.958v2.542h1.249a12.21638,12.21638,0,0,0,1.4331-.06811v1.363a10.30133,10.30133,0,0,0-1.4331-.08105h-1.249v2.21508a10.40459,10.40459,0,0,0,.08105,1.48193H90.951a12.36665,12.36665,0,0,0,.07006-1.48193V21.95377h-2.824a5.09017,5.09017,0,0,1-.967,2.27294,5.77409,5.77409,0,0,1-1.6189,1.48193,4.95652,4.95652,0,0,0-1-1.08594,4.20045,4.20045,0,0,0,2.21605-2.66991h-1.1289a8.71225,8.71225,0,0,0-1.41308.08105v-1.363a11.34379,11.34379,0,0,0,1.387.06812h1.333c.043-.43994.0669-1,.0669-1.44507V18.19377Zm2.353,1.354c0,.31494-.011.594-.05591,1.189h2.68188V18.204h-2.626Z" fill="#222"/>
            <path id="fbf2c423-3d5e-49fe-8f27-38fcf8575358" data-name="パス 49" d="M101.6092,18.15885a5.15136,5.15136,0,0,0-.04395.94409,6.34478,6.34478,0,0,1-1.156,4.1289,6.764,6.764,0,0,1-3.008,2.10009,4.11629,4.11629,0,0,0-.92212-1.33007,5.42875,5.42875,0,0,0,2.041-.991c1.18994-.946,1.564-1.948,1.564-4.15209a2.80842,2.80842,0,0,0-.061-.69995Zm4.73509-1.47a3.25765,3.25765,0,0,0-.46606.81494,7.46735,7.46735,0,0,1-3.19408,3.312,3.97889,3.97889,0,0,0-1.0481-1.06006,5.38468,5.38468,0,0,0,1.7-1.074,4.82294,4.82294,0,0,0,1.10888-1.48h-6.124a11.13941,11.13941,0,0,0-1.58593.07006v-1.456a9.7535,9.7535,0,0,0,1.6101.09009h6.08788a3.22372,3.22372,0,0,0,1.12988-.1001Z" fill="#222"/>
            <path id="b9416653-bccc-44b8-bd09-b4bc0a100f0a" data-name="パス 50" d="M117.54105,17.621a1.856,1.856,0,0,0-.175.64307,9.75081,9.75081,0,0,1-.73608,2.822A6.80623,6.80623,0,0,1,113.75,24.30117a10.58188,10.58188,0,0,1-2.31909,1.053,4.30179,4.30179,0,0,0-.93188-1.38891,7.6661,7.6661,0,0,0,2.48095-.969,5.76321,5.76321,0,0,0,2.8-4.676h-5.68993v1.5061c0,.36108.011.678.03491.93188h-1.562a9.17222,9.17222,0,0,0,.05811-.979V18.08732a.8.8,0,0,1,1.209-1.04809h2.28906v-1a4.53727,4.53727,0,0,0-.05811-.853h1.62207a4.99984,4.99984,0,0,0-.061.84106v1h2.1001a2.787,2.787,0,0,0,1.14208-.09107Z" fill="#222"/>
            <path id="e4880c37-bb8c-4b55-8555-d3cd9ac9ba3a" data-name="パス 51" d="M121.81985,25.25014a7.82479,7.82479,0,0,0,.07007-1.30688v-7.478a7.52328,7.52328,0,0,0-.07007-1.188h1.60009a7.8809,7.8809,0,0,0-.04589,1.22607v2.167a34.3432,34.3432,0,0,1,5.29393,2.46093l-.81494,1.376a28.01186,28.01186,0,0,0-4.13207-2.228,4.21191,4.21191,0,0,1-.3999-.19995,5.69227,5.69227,0,0,1,.04907.79492v3.07909c0,.605.012.908.0459,1.3Z" fill="#222"/>
            <path id="f13696b3-11c1-4ff3-be1d-efc9444fff35" data-name="パス 52" d="M134.36987,15.55925a8.57978,8.57978,0,0,0-.072,1.17407l-.0581,6.66209a8.36655,8.36655,0,0,0,3.18309-1.28393,6.88,6.88,0,0,0,2.38208-2.66991,5.40862,5.40862,0,0,0,1.10693,1.188,8.64307,8.64307,0,0,1-2.60009,2.717,10.56585,10.56585,0,0,1-4.24511,1.6001,3.23405,3.23405,0,0,0-.7.19995l-.74609-.8999a4.116,4.116,0,0,0,.105-1.2l.0459-6.3a5.6717,5.6717,0,0,0-.05811-1.19995Z" fill="#222"/>
            <path id="aa21ff74-c5a9-4b84-af74-692c91018568" data-name="パス 53" d="M145.13279,18.017a13.38419,13.38419,0,0,1,1.14209,2.76611l-1.31592.417a11.77281,11.77281,0,0,0-1.061-2.822Zm6.69408.082a2.4808,2.4808,0,0,0-.16309.594,9.94752,9.94752,0,0,1-1.61108,3.884,8.93119,8.93119,0,0,1-3.5559,2.81005,4.28628,4.28628,0,0,0-.93408-1.15405,7.52446,7.52446,0,0,0,1.98291-1.074,6.68737,6.68737,0,0,0,2.646-4.04492,5.18722,5.18722,0,0,0,.21191-1.342ZM147.61594,17.54a11.34908,11.34908,0,0,1,1.133,2.68188l-1.3.408a12.774,12.774,0,0,0-1.06006-2.738Z" fill="#222"/>
            <path id="f44b4e5e-7585-4732-bcbb-7305764fa88a" data-name="パス 54" d="M156.77193,25.25014a7.87625,7.87625,0,0,0,.07006-1.30688v-7.478a7.52327,7.52327,0,0,0-.07006-1.188H158.372a7.79275,7.79275,0,0,0-.04712,1.22607v2.167a34.31948,34.31948,0,0,1,5.29394,2.46093l-.81494,1.376a28.01146,28.01146,0,0,0-4.13208-2.228,4.271,4.271,0,0,1-.3999-.19995,5.61708,5.61708,0,0,1,.04907.79492v3.07909a12.98113,12.98113,0,0,0,.04712,1.3Z" fill="#222"/>
            <path id="bf280c6a-e011-4eb6-bb42-3063447e8d83" data-name="パス 55" d="M170.14885,16.278a1.44352,1.44352,0,0,0-.0581.23511l-.023.19995-.05689.33789-.03589.28c-.489,3.34789-1.3999,5.643-2.96093,7.44187a5.06149,5.06149,0,0,0-1.33105-1A7.89991,7.89991,0,0,0,167.352,21.29a14.17811,14.17811,0,0,0,1.095-4,8.66418,8.66418,0,0,0,.10693-1.13208V15.9948Zm3.312-.291a14.41425,14.41425,0,0,0,.489,2.68187,11.34359,11.34359,0,0,0,2.60009,5.04,4.7635,4.7635,0,0,0-1.282,1.075,15.48384,15.48384,0,0,1-3.092-7.676,4.928,4.928,0,0,0-.16089-.84106Zm3.313.689a1.3427,1.3427,0,1,0,0,.00122Zm-2.11108,0a.763.763,0,0,0,1.52587.01929V16.676a.763.763,0,0,0-1.52587,0Z" fill="#222"/>
            <path id="b31e6e98-0f4f-49f1-a5a4-ae5c06cf4649" data-name="パス 56" d="M177.811,19.44108a11.43924,11.43924,0,0,0,1.88891.082h6.217a11.38966,11.38966,0,0,0,1.887-.082v1.62206a12.19426,12.19426,0,0,0-1.89989-.061h-6.19408a12.224,12.224,0,0,0-1.8999.061Z" fill="#222"/>
            <path id="a30f69ac-ca35-411e-9de3-ec77612d4ce0" data-name="パス 57" d="M198.83776,17.26018a2.21386,2.21386,0,0,0-.292.69994,12.03548,12.03548,0,0,1-2.38989,4.5,11.75539,11.75539,0,0,1-4.15209,2.96191,3.57931,3.57931,0,0,0-.99194-1.2229,10.64772,10.64772,0,0,0,2.55492-1.375,9.22478,9.22478,0,0,0,3.3999-4.92406l-3.508.05908a11.42832,11.42832,0,0,1-2.729,2.9851,3.08982,3.08982,0,0,0-1.13208-1,8.97579,8.97579,0,0,0,3.022-3.38207,4.35006,4.35006,0,0,0,.594-1.54l1.6001.31495a2.72465,2.72465,0,0,0-.2.36108c-.032.061-.032.061-.14892.32788-.03711.06811-.03711.06811-.15308.3a2.80049,2.80049,0,0,1-.187.373c.15405-.011.34009-.023.56006-.023l2.554-.03589a2.06329,2.06329,0,0,0,.85107-.115Z" fill="#222"/>
            <path id="fedfc314-90d8-453a-a503-5df58145ecfc" data-name="パス 58" d="M76.49011,36.06408a15.02279,15.02279,0,0,1,1.28393.874,10.51367,10.51367,0,0,0,1.887-1.60791H76.953a11.45364,11.45364,0,0,1-3.27587,2.11108,3.13418,3.13418,0,0,0-.771-.969,9.78737,9.78737,0,0,0,3.15991-1.8999,4.98712,4.98712,0,0,0,1.04-1.2141l1.43506.2561c-.3.36206-.364.41894-.60791.7h2.041a7.477,7.477,0,0,0,1.03711-.05908l.60791.64111a17.31229,17.31229,0,0,1-1.5,1.612,14.86924,14.86924,0,0,1-6.5681,3.615,3.15151,3.15151,0,0,0-.6521-1.12109,13.25163,13.25163,0,0,0,3.884-1.4331,8.323,8.323,0,0,0-1.2-.86206Zm2.21606,3.57909a11.09356,11.09356,0,0,1-1.91406,1.249,12.17659,12.17659,0,0,1-2.19189.8999,3.10437,3.10437,0,0,0-.678-1.061c2.251-.54712,4.45507-1.875,5.2849-3.22l1.23389.3999c-.3.363-.36011.4331-.615.72412H81.516a6.17555,6.17555,0,0,0,1.02709-.05811l.686.7a5.694,5.694,0,0,0-.394.52588,9.83476,9.83476,0,0,1-4.05,3.311,14.90131,14.90131,0,0,1-4.53491,1.354,3.27241,3.27241,0,0,0-.7-1.18993,12.30174,12.30174,0,0,0,4.874-1.3,6.09345,6.09345,0,0,0-1.30811-.967l1.031-.64111a15.61785,15.61785,0,0,1,1.3291.99292,8.65156,8.65156,0,0,0,1.9099-1.718Z" fill="#222"/>
            <path id="b3ff31e9-018b-44cc-a7de-0b2f1ebb3ea9" data-name="パス 59" d="M88.922,35.29211v.53808h.51489a3.65482,3.65482,0,0,0,.582-.03491v.92309a3.87075,3.87075,0,0,0-.582-.03808H89.224a4.00285,4.00285,0,0,0,.97.6521,2.83406,2.83406,0,0,0-.64307.644,1.1904,1.1904,0,0,1-.114-.105,3.08751,3.08751,0,0,1-.53906-.52588,1.274,1.274,0,0,1,.011.22412.45985.45985,0,0,0,.012.11694v.43091a3.51558,3.51558,0,0,0,.032.478h-1.093a2.693,2.693,0,0,0,.04395-.489v-.3269c0-.115.011-.279.0249-.407a4.31444,4.31444,0,0,1-1.272,1.2229,2.59532,2.59532,0,0,0-.5-.63989,25.45934,25.45934,0,0,1-.25488,3.63695,6.79949,6.79949,0,0,1-.8999,2.65893,6.46022,6.46022,0,0,0-.978-.979,6.25293,6.25293,0,0,0,.73609-2.283,43.07771,43.07771,0,0,0,.23095-5.03807,16.0768,16.0768,0,0,0-.0581-1.718,10.2115,10.2115,0,0,0,1.23706.061h3.09008v-.154a2.296,2.296,0,0,0-.05908-.615h1.377a2.20006,2.20006,0,0,0-.061.63794v.1311h3.05688a7.79067,7.79067,0,0,0,1.32788-.072v1.12012a11.41115,11.41115,0,0,0-1.21191-.04908h-.874v.53809h1a5.18779,5.18779,0,0,0,.71-.03491v.93188a4.34,4.34,0,0,0-.687-.04712h-.583a5.17724,5.17724,0,0,0,1.80811,1.08593,3.67654,3.67654,0,0,0-.5149.885,5.32054,5.32054,0,0,1-1.759-1.342,3.61042,3.61042,0,0,1,.02294.468v.28a2.87721,2.87721,0,0,0,.044.53589h-1.093a2.36948,2.36948,0,0,0,.044-.512v-.3269a3.8856,3.8856,0,0,1,.02295-.4331,4.83944,4.83944,0,0,1-1.49389,1.33007,3.1383,3.1383,0,0,0-.64112-.7,4.46563,4.46563,0,0,0,1.69189-1.27294h-.3999a6.11363,6.11363,0,0,0-.627.03808v-.92309a4.543,4.543,0,0,0,.63892.03491h.79394v-.53808Zm.86206,4.60008c-.54492.023-1.293.03492-1.8999.03492-.03394,0-.35108,0-1-.012a2.52448,2.52448,0,0,0-.385-.946c.73389.023,1.28393.03491,1.887.03491a21.59358,21.59358,0,0,0,5.12206-.408l.53589.967c-.28.03711-.28.03711-.688.08106-1.23706.14209-1.23706.14209-2.34594.19995v.446h2.135a8.64548,8.64548,0,0,0,1.249-.061v1.04a12.05047,12.05047,0,0,0-1.249-.04712H91.005v.44507h2.65991a7.46882,7.46882,0,0,0,1.19091-.06006v1.12109a8.778,8.778,0,0,0-1.21411-.072H91.005v.655a.87777.87777,0,0,1-.53393.876,3.09957,3.09957,0,0,1-1.074.11695c-.24511,0-.61791-.011-1-.03492a3.047,3.047,0,0,0-.35889-1.063,10.0852,10.0852,0,0,0,1.375.1001c.31689,0,.373-.04712.373-.314V42.6522h-2.46c-.46607,0-.85108.0249-1.2229.06V41.61216a9.03577,9.03577,0,0,0,1.21093.04907h2.47192v-.44507H87.74716c-.468,0-.8059.012-1.19994.04712v-1.04a7.58273,7.58273,0,0,0,1.19994.061h2.03906Zm-3.59008-3.977c0,.54712,0,.57007-.03711,1.877a3.96687,3.96687,0,0,0,1.354-1.10888h-.594a2.69124,2.69124,0,0,0-.489.03808v-.92309a2.23284,2.23284,0,0,0,.489.03491h.978V35.295h-1.7Z" fill="#222"/>
            <path id="af803fa7-9e81-4848-a341-6ed2252f4c24" data-name="パス 60" d="M100.54108,34.45593a5.40792,5.40792,0,0,0-.07006-.946h1.44408a5.70794,5.70794,0,0,0-.06689.946h3.323a10.17329,10.17329,0,0,0,1.363-.06909V35.702a11.71726,11.71726,0,0,0-1.363-.07007h-3.33007v.8269h3.10009a8.281,8.281,0,0,0,1.061-.04712,8.74179,8.74179,0,0,0-.04589,1.03906V42.8729c0,1.083-.31494,1.34106-1.667,1.34106-.31494,0-.678-.012-1.10889-.033a3.573,3.573,0,0,0-.3-1.249,10.96463,10.96463,0,0,0,1.28394.093c.43994,0,.53393-.04712.53393-.292V37.59093h-6.833V43.013a8.53808,8.53808,0,0,0,.05908,1.30493h-1.3999a10.59267,10.59267,0,0,0,.07007-1.377v-5.49a8.79281,8.79281,0,0,0-.04907-1.03906,10.42449,10.42449,0,0,0,1.145.04712h2.845v-.8269h-3.1831a11.14944,11.14944,0,0,0-1.354.07006V34.38635a11.19734,11.19734,0,0,0,1.354.06909Zm-.98095,4.5a5.73962,5.73962,0,0,0-.489-.969l1.074-.375a6.60759,6.60759,0,0,1,.61694,1.344h.79394a6.57976,6.57976,0,0,0,.65308-1.33008l1.188.2439a5.359,5.359,0,0,1-.606,1.08593h.408a6.84857,6.84857,0,0,0,.99292-.04809v1.144a8.47416,8.47416,0,0,0-1.01709-.04712h-1.40893v.863h1.352a6.70586,6.70586,0,0,0,.98-.04712v1.13208c-.291-.02295-.51489-.03491-.99194-.03491h-1.34008v.73193a8.88058,8.88058,0,0,0,.07006,1.38794h-1.33105a11.4051,11.4051,0,0,0,.05811-1.38794v-.73193H99.463a9.20288,9.20288,0,0,0-1.06006.04712v-1.144a8.40182,8.40182,0,0,0,1.083.04712h1.074v-.863H99.20881a6.363,6.363,0,0,0-.91211.04712v-1.144a7.34187,7.34187,0,0,0,1.02808.0481Z" fill="#222"/>
            <path id="b75373fe-fc37-4f73-a5ff-987cb2bfc8d8" data-name="パス 61" d="M113.576,37.628a8.02686,8.02686,0,0,0,4.89989,5.271,4.89827,4.89827,0,0,0-.85107,1.34009,9.437,9.437,0,0,1-2.8789-2.13208,8.81451,8.81451,0,0,1-1.762-2.824,7.062,7.062,0,0,1-1.8999,3.127,8.69914,8.69914,0,0,1-2.78906,1.83007,4.59841,4.59841,0,0,0-.81591-1.22412,8.45449,8.45449,0,0,0,1.88989-.99,5.92947,5.92947,0,0,0,2.624-4.39989h-2.751a9.2701,9.2701,0,0,0-1.458.0791v-1.479a9.25072,9.25072,0,0,0,1.468.081h2.85888c.023-.583.03492-.769.03492-1.375a7.77774,7.77774,0,0,0-.082-1.167h1.541a8.26222,8.26222,0,0,0-.084,1.365c0,.478-.009.7461-.021,1.177h3.09008a9.76731,9.76731,0,0,0,1.47-.081v1.479a10.857,10.857,0,0,0-1.458-.0791Z" fill="#222"/>
            <path id="a15339c8-d845-4b92-b19d-38d1eb8c918c" data-name="パス 62" d="M119.99,36.52087a11.35383,11.35383,0,0,1,2.10009,1.468L121.344,39.089a10.14873,10.14873,0,0,0-2.10009-1.60009Zm2.01806,3.96287a15.0465,15.0465,0,0,1-1.14209,2.833c-.22192.45411-.34008.678-.46606.885l-1.11011-.967a9.76781,9.76781,0,0,0,1.6919-3.487Zm-1.459-6.823a11.8163,11.8163,0,0,1,2.053,1.541l-.81494,1.06005a10.41938,10.41938,0,0,0-2.041-1.657Zm6.531,5.0139a6.66046,6.66046,0,0,0,.71094,2.064,6.03131,6.03131,0,0,0,2.125,2.27489,4.67919,4.67919,0,0,0-.865,1.2,8.1872,8.1872,0,0,1-2.356-2.87987,8.96538,8.96538,0,0,1-.84106-2.65893H124.377a13.71679,13.71679,0,0,1-.2351,2.11108,7.68482,7.68482,0,0,1-1.48193,3.5,3.17088,3.17088,0,0,0-1.071-.93506,5.71068,5.71068,0,0,0,1.12012-2.167,19.92228,19.92228,0,0,0,.4519-5.21507c0-.83911-.012-1.3291-.05591-1.91406a9.82494,9.82494,0,0,0,1.3291.05909h3.62695a8.62971,8.62971,0,0,0,1.258-.05909,10.35783,10.35783,0,0,0-.0581,1.261V37.4735a9.09438,9.09438,0,0,0,.0581,1.24707,10.72783,10.72783,0,0,0-1.165-.04712Zm.9209-1.155v-2.249H124.4341v.61792c0,.54712,0,.78-.03491,1.6311Z" fill="#222"/>
          </g>
        </g>
        <g>
          <g id="be05e792-e0fe-4876-8cf0-a44488046a91" data-name="グループ 33">
            <path id="b5c131f6-3ff9-4700-b5e5-825fa5814ec2" data-name="パス 46" d="M251.3899,317.762a1.165,1.165,0,0,1-.229-2.30688l37.1469-7.5449a1.16518,1.16518,0,1,1,.46289,2.28393h0l-37.1469,7.54709A1.34069,1.34069,0,0,1,251.3899,317.762Z" fill="#222"/>
          </g>
          <g id="adbcd55d-6e27-4a0f-8b57-60924e9a486e" data-name="グループ 35">
            <path id="ef4c7924-a19b-491d-aaa2-51de682762d3" data-name="パス 63" d="M118.34525,68.29763a1.16987,1.16987,0,0,1-1.10693-.8l-5.356-16.12887a1.166,1.166,0,0,1,2.21289-.73388l5.355,16.12886a1.16408,1.16408,0,0,1-.73657,1.47217l-.00244.00073A1.18826,1.18826,0,0,1,118.34525,68.29763Z" fill="#222"/>
          </g>
          <g id="e6e6ea99-0494-4430-bf67-418d0636133d" data-name="グループ 36">
            <path id="b9ec6dcd-6eae-45e4-a1a0-f6093c83fd68" data-name="パス 64" d="M207.86118,194.92131a1.16669,1.16669,0,0,1-1.1001-.77808L196.921,166.23731a1.16606,1.16606,0,0,1,2.2-.77393h0l9.843,27.90593a1.166,1.166,0,0,1-.71265,1.48706h-.00024A1.11584,1.11584,0,0,1,207.86118,194.92131Z" fill="#222"/>
          </g>
          <circle id="b6109e5d-cd77-41d8-bfe4-3b1259f7c553" data-name="楕円形 1" cx="298.77969" cy="306.47716" r="4.02099" fill="#222"/>
        </g>
        <rect id="a23f1c1b-f83b-4237-9d2d-07b8b325e557" data-name="長方形 20" x="80.87129" y="64.61671" width="126.29872" height="66.08783" rx="1.19" transform="translate(-29.72808 88.1252) rotate(-30.99998)" fill="#eee"/>
        <g id="bb67764c-2221-4d1c-9e90-bb8ac5876730" data-name="パス 19">
          <path d="M350.57977,358.738l6.55492,13.281,14.656,2.12988-10.605,10.33786,2.5,14.60006-13.11008-6.89207-13.10886,6.89207,2.5-14.60006-10.605-10.33786,14.656-2.12988Z" fill="#fff"/>
          <path d="M366.34053,402.74191l-15.76462-8.28708-15.76461,8.28708,3.00683-17.55659-12.75388-12.43258,17.62594-2.56152,7.8906-15.96968,7.88182,15.96968,17.62595,2.56152L363.3337,385.18532Zm-15.76462-12.8066L361.03,395.43139l-1.99316-11.64255,8.456-8.24314-11.6865-1.69824-5.22753-10.59274-5.23436,10.59274-11.68455,1.69824,8.45506,8.24314-1.99316,11.64255Z"/>
        </g>
        <g id="a615aeba-cc31-4135-9679-db66e77e7ecc" data-name="グループ 39">
          <rect id="efaa52e8-f73b-4b3f-bd5b-89a0a24d63e2" data-name="長方形 21" x="61.00332" y="368.51702" width="254.21847" height="77.67779" rx="1"/>
          <g id="aa22471a-44cf-46f7-a3cb-b90e585f2060" data-name="グループ 37">
            <path id="b4f31ce5-b9c4-4f88-b133-0c06e6128729" data-name="パス 65" d="M94.0803,387.075a1.32513,1.32513,0,0,0-.05493-.188c-.28-.531-.54809-1.06909-.844-1.58911a6.1598,6.1598,0,0,1-.6831-1.832,2.75483,2.75483,0,0,1,.2-1.967,2.1,2.1,0,0,1,1.47705-1.175,5.11817,5.11817,0,0,1,3.16893.415,5.30008,5.30008,0,0,1,2,1.542c.291.406.605.79492.86889,1.21411a.53385.53385,0,0,0,.605.26807,11.28251,11.28251,0,0,1,1.729-.21289,6.00887,6.00887,0,0,1,2.95288.77807c.519.3,1.05.585,1.58593.8501a1.95409,1.95409,0,0,0,1.74292.04711c1-.459,1.98706-.937,2.98-1.406.8999-.42407,1.78809-.864,2.69409-1.26489.51489-.22607,1.05688-.38208,1.584-.57788.354-.133.69189-.3,1.04907-.41894.79492-.271,1.58911-.53808,2.3999-.771.55908-.16309,1.135-.28,1.708-.394a13.72,13.72,0,0,1,3.80908-.14892,6.16338,6.16338,0,0,1,4.31591,2.34594,10.91851,10.91851,0,0,1,.92309,1.4331,1.62489,1.62489,0,0,1,.021,1.4519,2.91514,2.91514,0,0,1-1.74805,1.77588,8.70713,8.70713,0,0,1-3.168.53808,13.76184,13.76184,0,0,0-2.657.28393,8.34052,8.34052,0,0,0-1.894.627,2.11084,2.11084,0,0,0-1.04907,1.55395c-.021.35888.04395.478.39991.54492.574.10888,1.15307.19091,1.73388.2771.98291.144,1.97094.27294,2.9519.429a11.80078,11.80078,0,0,1,1.5559.33789,5.02623,5.02623,0,0,1,2.7749,1.856,3.61374,3.61374,0,0,1,.63891,1.613c.1001.73389.25391,1.46094.32593,2.19409.1001.97705.1499,1.958.2,2.938.01807.37305.134.72.11792,1.10693-.062,1.739-.06494,3.477-.09009,5.218,0,.189,0,.37989-.012.56812-.0791,1.531-.125,3.06493-.251,4.593-.08593,1.0249-.27392,2.043-.4309,3.062a19.23855,19.23855,0,0,1-.38208,2.13207c-.27393,1.00805-.61011,2-.96411,2.989-.167.47-.231.457-.741.394-.39209-.0481-.7871-.063-1.179-.10889-.427-.04907-.8479-.13989-1.2749-.17309a14.34139,14.34139,0,0,0-2.87988-.1001c-.573.06811-1.16894-.064-1.75195-.03589-.89208.043-1.782.14209-2.66991.22607a18.03,18.03,0,0,0-3.043.57788.69053.69053,0,0,1-.30494.04395c-.522-.1211-.81493.24707-1.19994.51709a1.63978,1.63978,0,0,0,.86694.54711c.61206.16089,1.23193.3,1.85009.44092a4.97332,4.97332,0,0,0,.61108.10693c.78711.072,1.573.14893,2.36011.2.8601.05908,1.72192.08911,2.57909.13989,1.27295.0769,2.54.20507,3.81005.2229a13.91786,13.91786,0,0,1,2.2439.293,8.55278,8.55278,0,0,1,2.67089.886.72838.72838,0,0,1,.3999.56592,4.36988,4.36988,0,0,1-.80908,3.654,3.12455,3.12455,0,0,1-.874.67993,6.9617,6.9617,0,0,1-2.67309.91088,27.15939,27.15939,0,0,1-2.89209.105,24.82573,24.82573,0,0,1-4.10008-.375c-.981-.168-1.97608-.2649-2.957-.44s-1.948-.406-2.92211-.613c-.654-.137-1.314-.26294-1.96606-.417-.78589-.18408-1.56592-.38892-2.34692-.59009-.38208-.1001-.76392-.2-1.14209-.30908-1.1001-.3291-2.207-.65088-3.3-1.00708a.68323.68323,0,0,0-.811.24195,10.31424,10.31424,0,0,0-1.624,2.561,4.60142,4.60142,0,0,1-1.3,1.69092,3.46762,3.46762,0,0,1-2.7.583,9.697,9.697,0,0,1-3.031-1.08105,10.37454,10.37454,0,0,1-3.89989-3.58788,6.02757,6.02757,0,0,1-1.012-4.185c.06811-.5061.3-.988.417-1.491a26.97654,26.97654,0,0,1,1.145-2.81689c.291-.8.54-1.624.77807-2.447a5.09738,5.09738,0,0,0,.03-2.25805c-.08691-.531.1001-.71289.62012-.57593.5.13111,1,.252,1.487.418a.6591.6591,0,0,0,.71289-.146c.3-.271.314-.478.05591-.8a2.82322,2.82322,0,0,0-1.3999-.825.58046.58046,0,0,0-.282.009c-.468-.17895-.84106-.33789-1.22607-.46411a6.82782,6.82782,0,0,1-1.51294-.4729,3.94612,3.94612,0,0,1-1.77294-1.584,1.87542,1.87542,0,0,1-.04-1.363,1.967,1.967,0,0,1,1.65893-1.5,22.5217,22.5217,0,0,0,2.21288-.489,2.03262,2.03262,0,0,0,1.26807-.81811,2.35991,2.35991,0,0,0,.22192-1.748c-.02295-.15088-.3-.321-.5-.38208a10.83771,10.83771,0,0,0-1.60009-.3999,5.744,5.744,0,0,1-2.22094-.79,2.30024,2.30024,0,0,1-.8689-3.365,2.2353,2.2353,0,0,1,1.218-.731c.60595-.187,1.2351-.28906,1.84106-.468a11.93181,11.93181,0,0,0,1.48608-.53906,1.694,1.694,0,0,0,.853-1.6001.98016.98016,0,0,0-.91992-.832,3.894,3.894,0,0,0-1.2.25,6.79984,6.79984,0,0,1-3.081.448.46742.46742,0,0,1-.32593-.2,7.112,7.112,0,0,1-.354-.792,2.40178,2.40178,0,0,0-.14209-.387,11.43965,11.43965,0,0,1-.8479-2.521.432.432,0,0,1,.16992-.5061,15.444,15.444,0,0,1,1.261-.97412c.91089-.57593,1.967-.80591,2.89209-1.333.447-.2539.88989-.52,1.32592-.792A3.07878,3.07878,0,0,0,94.0803,387.075Zm19.58688,3.60009a21.43024,21.43024,0,0,0-4.623-.44507,19.15406,19.15406,0,0,0-4.04491.39111c-.86206.177-1.675.49194-2.50708.748a9.78346,9.78346,0,0,0-1.24194.583,3.80186,3.80186,0,0,0,1.03394,1.16992,9.29466,9.29466,0,0,0,1.771.907c.56006.207,1.10009.491,1.667.655a9.76059,9.76059,0,0,0,3.467.41308,5.73141,5.73141,0,0,0,2.22509-.562,3.881,3.881,0,0,0,2.05688-2.43993,3.4991,3.4991,0,0,0,.196-1.42114Zm.03808,26.663.12207-.06494c0-.343.011-.687,0-1.02808-.04-1.04906-.10693-2.095-.1311-3.144-.021-1.08593,0-2.17089-.00708-3.25805,0-.291-.05591-.582-.051-.874.009-.87109.03491-1.74389.054-2.616a.12814.12814,0,0,0,0-.051,3.51029,3.51029,0,0,1-.072-1.322c-.033-.925-.042-1.85205-.10693-2.7749a16.82017,16.82017,0,0,0-.26807-1.938c-.04907-.25488.10889-.62011-.20508-.74609a2.32388,2.32388,0,0,0-.81811-.04712c-.48389,0-.531.04395-.531.53393.00708,1.2561-.061,2.50805-.147,3.759-.072,1.063-.074,2.13207-.08911,3.19994-.01392,1-.012,2,0,3q.00988,1.13343.063,2.26611a6.29786,6.29786,0,0,0,.13306.906c.054.26807.12988.531.2.79492a6.48273,6.48273,0,0,0,.67407,1.88794c.249.38891.529.76.80908,1.12988a3.98134,3.98134,0,0,0,.37133.38525Zm9.52489-3.42992a2.04187,2.04187,0,0,0,.21-.4209q.29-1.437.55493-2.8811a7.60928,7.60928,0,0,0,.05591-.771c.0769-1.114.2-2.228.219-3.342.02295-1.16894-.03-2.34106-.08594-3.511-.0459-.979-.13989-1.95507-.22412-2.9309-.04-.459-.126-.916-.1521-1.37695a2.08787,2.08787,0,0,0-.228-1.093,2.67107,2.67107,0,0,1-.16993-.58691,8.51233,8.51233,0,0,0-.3479-.96509.586.586,0,0,0-.66088-.291c-.19409.01806-.28.114-.262.30493.04.394.11206.78491.115,1.178a7.50114,7.50114,0,0,1-.1001,2.36108.92331.92331,0,0,0,0,.3,6.25068,6.25068,0,0,1,.03808.6621,3.83789,3.83789,0,0,0-.00708,1.6189,1.15505,1.15505,0,0,1-.02807.459c-.01392.137-.03491.2749-.042.40991-.0669,1.323.053,2.647-.063,3.97289a21.34655,21.34655,0,0,0,.26611,4.27294c.04712.3999.209.792.27,1.2a2.93911,2.93911,0,0,0,.64209,1.42895Zm-20.633-4.479a2.50211,2.50211,0,0,0,.144.24291c.52392.636,1.06689,1.261,1.57592,1.91089a6.69794,6.69794,0,0,1,1.531,2.60009.80091.80091,0,0,0,.1001.18408,5.04709,5.04709,0,0,1,.57788,2.06689,13.87551,13.87551,0,0,1-.21191,3.60009c-.1001.5.033.73706.51293.86889.282.07593.55909.165.83911.2561a2.05432,2.05432,0,0,0,1.45606.1001c.385-.156.4729-.40991.175-.7a5.69181,5.69181,0,0,1-.76391-1.02,5.9684,5.9684,0,0,1-.75293-1.89307,14.82562,14.82562,0,0,1-.35595-2.39306c-.10694-1.439-.15088-2.884-.22608-4.32909-.02588-.5-.052-1-.1001-1.491-.0559-.541-.36791-.84106-.82495-.78491-.646.082-1.293.1731-1.9309.30493-.57519.12085-1.13012.30493-1.74536.4729Zm3.83911-9.02391.031-.00488v-.30908c-.019-.687-.1001-.79492-.783-.75488a13.06772,13.06772,0,0,0-2.58788.354,3.63842,3.63842,0,0,0-1.8479,1.15405c-.50805.58106-.39209.8999.345,1.146a2.211,2.211,0,0,0,.3.07006c.273.04395.5459.07691.814.12793,1.00806.2,2.01294.408,3.021.6001.415.0791.636-.042.71289-.43994a6.5494,6.5494,0,0,0,.07691-1.177,6.98456,6.98456,0,0,0-.082-.76758Zm-6.293,14.23507h-.021v-.15405c-.00708-.928-.56909-1.3-1.39989-.92993a.80771.80771,0,0,1-.14405.051,1.02806,1.02806,0,0,0-.74609.6499c-.25391.6521-.52392,1.3-.7251,1.97094a.661.661,0,0,0,.822.8601.733.733,0,0,1,.70606.177,1.45037,1.45037,0,0,0,.634.3c.47412.1001.61011-.03491.63794-.522s.08593-.99.136-1.48388c.02808-.30859.06812-.61352.10108-.92065Zm18.832-16.632a2.96725,2.96725,0,0,0,0-.36108c-.06689-.52491-.27-.71289-.78491-.634a3.75111,3.75111,0,0,0-1.855.7c-.32593.26294-.343.33106-.156.719a.876.876,0,0,1,.075.189q.15015.67053.3,1.342a1.44263,1.44263,0,0,0,.08911.3.53113.53113,0,0,0,.91992.14111c.3-.30689.55908-.64893.86694-.948a2.0428,2.0428,0,0,0,.54492-1.45043Zm-2.248,10.448a.605.605,0,0,0,.1001.072.25061.25061,0,0,0,.1001.0271,1.56815,1.56815,0,0,0,1.3999-.584,2.63607,2.63607,0,0,0,.657-2.23193,1.49967,1.49967,0,0,0-.58106-1,.87543.87543,0,0,0-.91088-.072c-.47095.3999-.574,1-.86011,1.5-.03491.063,0,.168.00708.2539.02808.35889.06494.718.082,1.0769.01782.32276.00586.64575.00586.95679ZM96.02732,422.28539c-.3.979-.592,1.94311-.87793,2.90991-.09106.3081.01709.5.3191.5a1.75873,1.75873,0,0,0,1.47289-.4851,8.4597,8.4597,0,0,0,.81812-1.47192.336.336,0,0,0-.14307-.44507c-.342-.2561-.6709-.53393-.99292-.81494a.5999.5999,0,0,0-.60034-.19433Zm21.54708-9.69992a2.2169,2.2169,0,0,0-.279,0c-.385.052-.48706.1521-.46094.533.03906.667.114,1.33106.158,2,.0249.375.28711.521.57592.64892s.48389-.06494.678-.23193a2.571,2.571,0,0,0,.74805-1.907.72111.72111,0,0,0-.343-.7,1.49991,1.49991,0,0,0-1.08105-.34252Z" fill="#fff"/>
            <path id="b54a0a3a-4b78-4abd-8361-89335571d9c6" data-name="パス 66" d="M214.032,429.31272h-.20507a12.13266,12.13266,0,0,1-3.365-.40992,4.38968,4.38968,0,0,0-.822-.04711,2.4889,2.4889,0,0,1-.8-.167,10.3771,10.3771,0,0,0-1.354-.26391c-.3-.053-.613-.083-.90893-.16309-.8999-.24292-1.783-.5-2.675-.75488a15.25166,15.25166,0,0,1-1.489-.42407,7.77007,7.77007,0,0,1-1.019-.60009c-.667-.39112-1.33692-.771-2-1.16992a3.37032,3.37032,0,0,1-.5791-.429c-.78589-.72192-1.58911-1.426-2.33105-2.19311a7.438,7.438,0,0,1-1.186-1.5559,11.2063,11.2063,0,0,1-.86011-2.08788,11.8851,11.8851,0,0,1-.44507-2.167,9.44843,9.44843,0,0,1,.04-1.852c.04395-.46606-.019-.61108-.49-.61694a11.1089,11.1089,0,0,0-2.92406.238,8.52342,8.52342,0,0,1-1.33691.054,4.13626,4.13626,0,0,1-1.729-.22,2.26711,2.26711,0,0,1-1.45191-1.42992,5.51285,5.51285,0,0,1-.156-2.15088,2.14007,2.14007,0,0,1,.34692-.8999c.33106-.562.70605-1.10009,1.05493-1.6499a2.03042,2.03042,0,0,0,.259-.5,1.18613,1.18613,0,0,1,.811-.8,19.76067,19.76067,0,0,1,2.813-.85107,11.13761,11.13761,0,0,0,1.0791-.34912c.981-.312,1.9851-.564,2.938-.95093.67895-.272,1.38891-.37793,2.071-.60009.42407-.135.825-.34009,1.24194-.5,1.22095-.46411,2.447-.918,3.667-1.37988a1.2802,1.2802,0,0,0,.37793-.16309,7.86464,7.86464,0,0,1,1.81689-.834c.387-.187.771-.37305,1.15307-.564a3.03573,3.03573,0,0,1,.5-.26c.92993-.24,1.66894-.895,2.5769-1.17895a6.04582,6.04582,0,0,1,1.63891-.937c.894-.5,1.71411-1.135,2.62207-1.613.887-.47094,1.62792-1.13891,2.481-1.65209a2.93232,2.93232,0,0,0,.59106-.5c.18189-.18506.13306-.37988-.094-.5a.46286.46286,0,0,0-.144-.05591c-.53808-.093-1.0769-.22094-1.61889-.26489a14.87655,14.87655,0,0,0-1.708,0c-.32105.011-.64111.084-.96191.126a3.06815,3.06815,0,0,1-.46094.03906,9.38293,9.38293,0,0,0-2.2.2439c-1.16992.26611-2.35009.51293-3.53588.69506a9.16369,9.16369,0,0,0-1.3999.34009,1.15074,1.15074,0,0,1-.3.0791,13.03861,13.03861,0,0,0-2.448.541c-.96.18994-1.927.33789-2.88989.51708-.624.116-1.24194.2771-1.86791.377a15.54426,15.54426,0,0,1-1.741.18408c-.70605.03-1.41406.019-2.12109,0a4.56217,4.56217,0,0,1-4.11205-2.41406,3.10664,3.10664,0,0,1-.24194-2.22c.106-.49194.55688-.769.8999-1.1001q.29993-.28308.614-.54711a1.32834,1.32834,0,0,1,.335-.231,8.663,8.663,0,0,0,2.219-1.3999.95784.95784,0,0,1,.65894-.24194,2.37843,2.37843,0,0,0,1.11791-.147.92309.92309,0,0,1,.35889-.03,11.60629,11.60629,0,0,0,2.717-.24512,12.87947,12.87947,0,0,1,1.282-.13989,1.51862,1.51862,0,0,0,.4519-.085,3.5331,3.5331,0,0,1,1.363-.24c.721-.03809,1.436-.135,2.15307-.21.06812-.00708.135-.03492.2-.03907a19.68473,19.68473,0,0,0,2.258-.17309,26.72549,26.72549,0,0,1,3.812-.156c.35889-.019.718-.12793,1.074-.11889a17.56682,17.56682,0,0,1,2.62207.15405c.67309.116,1.34008.07007,2,.14893a21.37988,21.37988,0,0,1,3.54394.65209,19.36129,19.36129,0,0,1,3.54931,1.43628,9.20035,9.20035,0,0,1,3.208,2.616,1.59983,1.59983,0,0,1,.48511.9851.54876.54876,0,0,0,.093.24,5.15843,5.15843,0,0,1,.48,2.29492,7.84587,7.84587,0,0,1-.53711,2.97411.39006.39006,0,0,0-.0459.147c.03491.89307-.60791,1.41406-1.15307,1.92407a10.14287,10.14287,0,0,1-1.93188,1.35888,12.15923,12.15923,0,0,1-1.76807.71289c-.69409.2561-1.3999.49194-2.093.74292a3.12366,3.12366,0,0,0-.366.189q-.97595.5138-1.95507,1.03a.69128.69128,0,0,0-.136.0769c-.21191.19092-.564.33789-.521.6521s.3999.37109.675.47c.48388.179.967.36108,1.447.552.573.228,1.13208.50488,1.72.687a10.64914,10.64914,0,0,1,1.624.885c.855.436,1.66406.96,2.49292,1.45a.70423.70423,0,0,1,.1311.084,16.48869,16.48869,0,0,1,2.96288,3.15209,8.90851,8.90851,0,0,1,1.0459,2.44506,8.42513,8.42513,0,0,1,.375,2.8,9.82241,9.82241,0,0,1-.511,3.08789c-.0769.19091-.146.387-.20507.584a5.79272,5.79272,0,0,1-1.533,2.467,3.91574,3.91574,0,0,0-.35205.44507,2.00713,2.00713,0,0,1-.80908.77392.6007.6007,0,0,0-.2.16089,7.26118,7.26118,0,0,1-2.54711,1.68506,22.51268,22.51268,0,0,1-2.03906.96,14.51922,14.51922,0,0,1-3.125.8291C215.5,429.24289,214.719,429.29392,214.032,429.31272Zm-13.489-18.05391a1.83291,1.83291,0,0,0,1.08105.335,4.45179,4.45179,0,0,1,1.23.10889c.585.135,1.155.32592,1.727.51489a12.28554,12.28554,0,0,1,3.5,1.93407,20.345,20.345,0,0,1,2.063,1.86792,5.91039,5.91039,0,0,1,.846,1.10009c.33105.53491.613,1.1001.8999,1.65894.11889.22607.21191.468.31591.69994.09107.2.18311.405.27588.606a2.67928,2.67928,0,0,1,.179.36792c.12207.44311.23388.887.342,1.335a.51112.51112,0,0,0,.54638.47314l.02271-.0022a4.62339,4.62339,0,0,0,1.27588-.13989,4.86414,4.86414,0,0,0,2.384-1.314c.46094-.459.88306-.96,1.324-1.44189a4.33213,4.33213,0,0,0,.85107-1.46094,5.13764,5.13764,0,0,0,.34692-2.16991,4.61308,4.61308,0,0,0-.66089-2.18994,7.24467,7.24467,0,0,0-1.333-1.6311,11.05777,11.05777,0,0,0-1.99511-1.354,4.19953,4.19953,0,0,0-1.563-.625c-.06494,0-.12109-.065-.18408-.09107a6.63316,6.63316,0,0,0-1.188-.459,20.05509,20.05509,0,0,0-2.8-.408,19.07814,19.07814,0,0,0-4.9851.28,12.50067,12.50067,0,0,0-2.81493.79,12.13373,12.13373,0,0,0-1.36011.8269A2.019,2.019,0,0,0,200.543,411.25881Zm7.04295,11.406a2.40738,2.40738,0,0,0-.14209-.53589q-.57312-1.032-1.17407-2.04394c-.448-.75293-.91406-1.491-1.356-2.24609a15.46032,15.46032,0,0,0-1.89209-2.49291,1.041,1.041,0,0,0-.865-.37695c-.447.01611-.8999-.01-1.345.00708a2.9798,2.9798,0,0,0-1.61011.47094c-.36011.24707-.769.49194-.79394,1.01294a3.3298,3.3298,0,0,0,.69091,2.449,11.34076,11.34076,0,0,0,2.5,2.26488,19.47753,19.47753,0,0,0,2.77294,1.31909.41334.41334,0,0,0,.14893.04395c.49511.051.988.10009,1.48193.14892.292.02808.583.05811.874.05811a6.74433,6.74433,0,0,0,.71045-.0791Z" fill="#fff"/>
            <path id="f2a502a9-1a20-471e-b329-8270dba5baf9" data-name="パス 67" d="M155.17808,401.012a3.31452,3.31452,0,0,0-1.41211-.01611c-.67089.144-1.34008.28393-2,.4519-1.18091.30005-2.35791.624-3.54.915-.533.1311-1.0791.219-1.62207.3081-.33789.05591-.68506.06006-1.022.1211a8.80966,8.80966,0,0,1-3.88891-.219,4.07639,4.07639,0,0,1-1.65405-.916,1.23288,1.23288,0,0,1-.44311-.89306,3.073,3.073,0,0,1,.71093-2.19995,8.93681,8.93681,0,0,1,2.74707-2.137,42.49344,42.49344,0,0,1,5.57591-2.428c2.085-.8,4.168-1.613,6.217-2.5,1.59106-.7,3.18994-1.37109,4.82592-1.94091,1.49292-.52,3.021-.94605,4.54809-1.356a20.06554,20.06554,0,0,1,5.3-.769,9.62275,9.62275,0,0,1,3.458.519,6.92777,6.92777,0,0,1,3.833,3.4331,12.09034,12.09034,0,0,1,.6001,1.48193c.123.366.06909.44311-.28906.59009-.87207.35693-1.771.657-2.61889,1.06493a11.77449,11.77449,0,0,0-2.176.92993,1.94025,1.94025,0,0,1-.48511.168,38.69572,38.69572,0,0,0-3.74194,1.562c-.78.39111-1.60009.71508-2.39989,1.06689a.39105.39105,0,0,0-.1001.03906c-.883.6001-1.8999.991-2.74706,1.61694a28.08657,28.08657,0,0,0-2.5,1.65893c-.739.67212-1.52,1.3-2.24,1.98388a10.891,10.891,0,0,0-1.092,1.3,9.04162,9.04162,0,0,0-1.6001,3.3,9.38384,9.38384,0,0,0-.354,2.491c.00708.238-.042.47607-.04907.71289a10.45066,10.45066,0,0,0,.73095,4.12694,7.61945,7.61945,0,0,0,1.83008,2.957,5.67228,5.67228,0,0,0,1.3579.8999,10.21631,10.21631,0,0,0,1.8479.688,10.52619,10.52619,0,0,0,1.51391.188,5.6884,5.6884,0,0,1,.71289.08691,11.052,11.052,0,0,0,1.81909.238,8.98445,8.98445,0,0,1,1.01709.2539c.552.11206,1.10888.219,1.668.28906a15.64975,15.64975,0,0,1,4.05395.9209,4.561,4.561,0,0,1,2.52587,2.386,5.63927,5.63927,0,0,1,.4939,1.885.76979.76979,0,0,1-.3291.7,9.28621,9.28621,0,0,1-4.261,1.98291,15.67749,15.67749,0,0,1-5.5.147,20.66194,20.66194,0,0,1-4.96093-1.373,18.55752,18.55752,0,0,1-2.84008-1.33789c-.625-.39111-1.2351-.811-1.82494-1.2561a17.35253,17.35253,0,0,1-1.61694-1.356,13.23483,13.23483,0,0,1-2.74707-3.84911,12.95637,12.95637,0,0,1-1.13794-6.13109,14.75794,14.75794,0,0,1,.38794-3.06591,19.19369,19.19369,0,0,1,2.21289-5.47411c.5-.8,1-1.6079,1.554-2.36693a17.80264,17.80264,0,0,1,1.25293-1.354A6.377,6.377,0,0,0,155.17808,401.012Z" fill="#fff"/>
            <path id="aa7daabc-2de4-420e-9210-37422604e452" data-name="パス 68" d="M181.66,404.99906a10.10823,10.10823,0,0,1-.14893,1.2771,4.39562,4.39562,0,0,1-.407.988.46171.46171,0,0,1-.312.221,3.37413,3.37413,0,0,1-.969.01709,8.1043,8.1043,0,0,1-2.26489-.967c-.22192-.116-.22412-.2749-.11206-.4729a3.837,3.837,0,0,0,.449-2.041,3.367,3.367,0,0,0-.84789-1.95507.993.993,0,0,0-1.021-.364,1.06672,1.06672,0,0,0-.59009,1.012,1.75624,1.75624,0,0,0,.15088.63989,3.37448,3.37448,0,0,1,.41309,1.834,4.611,4.611,0,0,1-.167.90795,1.35493,1.35493,0,0,1-1.54712.61792,3.56639,3.56639,0,0,1-2.041-1.7,15.44772,15.44772,0,0,1-.92993-2.2849c-.22095-.6001-.3999-1.207-.624-1.8a3.23013,3.23013,0,0,0-.354-.56909c-.356-.531-.24511-.82787.387-.939a2.50129,2.50129,0,0,1,1.561.2,10.01436,10.01436,0,0,0,1.239.5.77674.77674,0,0,0,.52905-.084,5.78152,5.78152,0,0,0,.687-.459,3.46166,3.46166,0,0,1,3.053-.385,4.429,4.429,0,0,1,2.34912,1.761,18.6532,18.6532,0,0,1,1.12695,1.781,1.02729,1.02729,0,0,1,.1001.345c.019.1001-.01392.22607.03589.30493A2.86458,2.86458,0,0,1,181.66,404.99906Z" fill="#fff"/>
          </g>
          <g>
            <path d="M243.3447,421.35143a10.12335,10.12335,0,0,0,1.0342.042,5.147,5.147,0,0,0-.44728-.99325l1.81746-.27928h-2.754v6.16425a12.00037,12.00037,0,0,0,.07035,1.66312H240.787a15.13472,15.13472,0,0,0,.084-1.80276v-6.63988a10.67747,10.67747,0,0,0-.05669-1.27149,14.20254,14.20254,0,0,0,1.44053.05564h3.35459v-.64257h-3.48058a16.31883,16.31883,0,0,0-1.78912.084v-2.06945a14.34723,14.34723,0,0,0,1.78912.084h3.48058a6.13089,6.13089,0,0,0-.084-.95021h2.334a5.68916,5.68916,0,0,0-.084.95021h3.59188a14.02849,14.02849,0,0,0,1.78911-.084v2.06945a16.14562,16.14562,0,0,0-1.78911-.084h-3.59188v.64257h3.64858a10.31872,10.31872,0,0,0,1.31348-.05564,11.01882,11.01882,0,0,0-.05564,1.27149v6.36059c0,1.64842-.43363,2.0264-2.29309,2.0264-.37694,0-.83787-.01365-1.34184-.042a5.39094,5.39094,0,0,0-.47458-1.99911,12.10035,12.10035,0,0,0,1.45313.09765c.40528,0,.504-.0693.504-.36329v-5.465h-2.88l1.80382.27928c-.07035.1407-.07035.1407-.23834.53128-.0693.13964-.126.252-.23729.462a11.26088,11.26088,0,0,0,1.1602-.042v1.77441c-.39163-.0273-.60162-.042-1.2022-.042h-1.24419v.67092H248.922a7.69239,7.69239,0,0,0,1.1182-.042v1.77547a8.79927,8.79927,0,0,0-1.16019-.042h-1.18855v.48928c0,.74126.02835,1.23054.07035,1.73346h-2.2091a14.58844,14.58844,0,0,0,.084-1.73346v-.48928h-.92186c-.60162,0-.82526.0147-1.27254.042v-1.77547a10.91284,10.91284,0,0,0,1.31349.042h.88091v-.67092h-1.31349a8.26755,8.26755,0,0,0-.97855.042Zm3.64753.042a6.56964,6.56964,0,0,0,.51762-1.27253h-1.64947a6.42337,6.42337,0,0,1,.53127,1.27253Z" fill="#fff"/>
            <path d="M261.83642,420.12089a8.5593,8.5593,0,0,0,2.04111,3.29894,10.11717,10.11717,0,0,0,3.61918,2.27839,9.16356,9.16356,0,0,0-1.39749,2.25,11.94085,11.94085,0,0,1-3.11625-2.1524,9.81546,9.81546,0,0,1-2.19545-3.1173,8.80354,8.80354,0,0,1-1.59277,2.53038,10.63987,10.63987,0,0,1-2.376,1.99911,12.42838,12.42838,0,0,1-1.45418.74021,9.61486,9.61486,0,0,0-1.35549-2.09675,8.80893,8.80893,0,0,0,3.67588-2.38968,5.93224,5.93224,0,0,0,1.53713-3.34094h-2.80862a13.75922,13.75922,0,0,0-1.97076.084v-2.34769a17.3195,17.3195,0,0,0,1.95606.08295h3.006c.01365-.55857.01365-.87986.01365-1.34184a8.21411,8.21411,0,0,0-.09765-1.49512h2.55768a13.49989,13.49989,0,0,0-.11234,2.36238v.47458h3.18765a18.51681,18.51681,0,0,0,1.97075-.08295v2.34769a15.91706,15.91706,0,0,0-1.9571-.084Z" fill="#fff"/>
            <path d="M271.60621,423.28018a19.30626,19.30626,0,0,1-1.18854,3.49424c-.0693.18164-.25094.55857-.53128,1.13184l-1.85841-1.59277a2.51929,2.51929,0,0,0,.37693-.504,15.74416,15.74416,0,0,0,1.43949-3.75987Zm-2.32039-5.00406a17.55666,17.55666,0,0,1,2.61333,1.71877l-1.21584,1.78912A16.95779,16.95779,0,0,0,268.07,419.9109Zm.53128-3.50893a18.29563,18.29563,0,0,1,2.57133,1.77547l-1.35549,1.74711a16.10614,16.10614,0,0,0-2.544-1.9424Zm8.28831,6.42989a7.53757,7.53757,0,0,0,.83891,2.2784,7.13052,7.13052,0,0,0,2.34769,2.32038,8.9738,8.9738,0,0,0-1.42584,2.04111,9.41376,9.41376,0,0,1-2.68367-3.10366,11.18886,11.18886,0,0,1-1.1455-3.53623h-1.29983a16.86529,16.86529,0,0,1-.55963,3.81657,8.71206,8.71206,0,0,1-1.43948,2.99026,7.299,7.299,0,0,0-1.80276-1.57913c1.39748-1.9424,1.71876-3.54988,1.71876-8.65158,0-1.21689-.01365-1.77547-.06929-2.47473a12.15235,12.15235,0,0,0,1.63477.07034h4.89277a10.25709,10.25709,0,0,0,1.50878-.07034,14.87085,14.87085,0,0,0-.05565,1.49618v2.9766a13.204,13.204,0,0,0,.05565,1.48148,12.5711,12.5711,0,0,0-1.36914-.05565Zm.336-1.9151v-1.99806h-3.64858v.62892c0,.50293,0,.89456-.02835,1.36914Z" fill="#fff"/>
            <path d="M287.8332,415.50846a3.64917,3.64917,0,0,0-.05565-.72657h2.30569a3.6726,3.6726,0,0,0-.05565.75492v.41893h3.06166a16.90593,16.90593,0,0,0,1.97076-.084v2.1524c-.55963-.042-1.31454-.0693-1.92876-.0693h-7.88408v.61422c0,4.85077-.44728,7.3801-1.64947,9.4212a7.05308,7.05308,0,0,0-1.71877-1.74712c.9502-1.70512,1.21584-3.53623,1.21584-8.19066,0-1.04889-.01365-1.67781-.042-2.16709.54493.042,1.14655.07035,1.84477.07035h2.93566Zm.62892,4.27749a12.79849,12.79849,0,0,0-.05565-1.52348h2.166c-.0273.27929-.042.48928-.05565.95021h2.712a12.87527,12.87527,0,0,0,1.57913-.07035v2.0684c-.47563-.04094-.99221-.06929-1.50983-.06929h-2.78132v1.00585h2.43169a9.95786,9.95786,0,0,0,1.28618-.05565,13.3596,13.3596,0,0,0-.06929,1.56548v2.376a16.05982,16.05982,0,0,0,.084,1.91511H292.0267v-.54492h-4.33315v.53127h-2.19439a14.15664,14.15664,0,0,0,.084-1.77546v-2.80967c0-.53127-.01365-.90821-.042-1.25784a10.12853,10.12853,0,0,0,1.27149.05565h1.64947Zm-.76857,5.68863h4.33315v-1.37019h-4.33315Z" fill="#fff"/>
          </g>
        </g>
        <g id="ba8a5408-e630-4402-8896-118c2e4d7da1" data-name="グループ 41">
          <path id="e3afb1ba-8a95-40de-8dbb-c887fbd3b613" data-name="パス 73" d="M657.11953,617.4182h-6.73V606.98512l2.14208,1.46093a1.865,1.865,0,0,0,2.10009-3.082l-4.2451-2.89306V575.222a1.865,1.865,0,0,0-3.65576-.522l-6.873,23.55a1.86932,1.86932,0,0,0,.74023,2.06493l6.05809,4.12792V617.418h-8.54588a1.86548,1.86548,0,1,0,0,3.731h8.54588v38.46278a1.865,1.865,0,1,0,3.73.012V621.1489h6.73a1.86548,1.86548,0,1,0,0-3.731Zm-13.29978-19.424,2.83887-9.72v11.655Z" fill="#222"/>
          <path id="f7d31c71-31ca-4f75-a6d2-61e5e7ff156d" data-name="パス 74" d="M650.73869,556.82437a1.14652,1.14652,0,0,0-1.23047,1.05664.96457.96457,0,0,0-.00342.09936v3.3911c0,.28394,0,.56494.00977.845l-2.791-4.531a1.60029,1.60029,0,0,0-1.5-.86206,1.32912,1.32912,0,0,0-1.40332,1.25024q-.00366.06043-.00146.12085v7.717a1.235,1.235,0,0,0,2.46484,0v-3.43407c0-.30005,0-.6001-.00684-.886l2.78417,4.512a1.6713,1.6713,0,0,0,1.5332.96606,1.31383,1.31383,0,0,0,1.37354-1.25171,1.25045,1.25045,0,0,0-.00147-.14819v-7.685a1.14291,1.14291,0,0,0-1.12255-1.16308C650.80851,556.82071,650.77384,556.82168,650.73869,556.82437Z" fill="#222"/>
        </g>
        <path id="b6bcb1ec-437c-4bdf-90b4-ab886f0886db" data-name="長方形 22" d="M.00144,0V699.99808H700V0ZM697,696.99809H3.00143V3H697Z" fill="#222"/>
      </g>
    </g>
  </g>
</svg>
