<svg xmlns="http://www.w3.org/2000/svg" viewBox="0 0 350 550">
  <g id="efe889f8-0bd2-4a4c-ae0b-f626280a90b3" data-name="レイヤー 2">
    <g id="f24ac7f7-9c70-412b-9b29-832c5de70ecd" data-name="レイヤー 4">
      <g id="a20aafb6-f440-40d4-bdbc-c54bfa241dfb" data-name="グループ 55">
        <g id="bc22cbc3-bf49-4ba2-b8fc-fc4acae37a3c" data-name="長方形 23">
          <rect x="1.49976" y="1.49976" width="347" height="547" fill="#ffd445"/>
          <path d="M347,3V547H3V3H347m3-3H0V550H350V0Z" fill="#222"/>
        </g>
        <g id="f5b47f53-a59f-4297-bbe7-9a9054d33686" data-name="グループ 42">
          <path id="e3d2f1ee-2ea0-45dc-a91a-ab566b661c2a" data-name="パス 75" d="M318.91088,462.36013h-6.73194V451.92922l2.14307,1.46094a1.866,1.866,0,0,0,2.1001-3.084l-4.2461-2.88989v-27.2561a1.865,1.865,0,0,0-3.656-.522l-6.87207,23.55005a1.86773,1.86773,0,0,0,.739,2.063l6.05908,4.12988v12.979h-8.54712a1.86548,1.86548,0,1,0,0,3.73095H308.446V504.553a1.86548,1.86548,0,0,0,3.731,0V466.09108h6.73193a1.86548,1.86548,0,1,0,0-3.73095h.002Zm-13.3-19.42212,2.83691-9.72193v11.65406Z" fill="#222"/>
          <path id="f94705ed-2a79-4a04-9b96-7b6c33eff50f" data-name="パス 76" d="M312.52977,401.76516a1.14592,1.14592,0,0,0-1.23169,1.05322c-.00268.03467-.0039.06909-.00341.10376v3.38892c0,.28588,0,.56689.00805.84692l-2.791-4.531a1.60006,1.60006,0,0,0-1.5-.86206,1.32709,1.32709,0,0,0-1.39869,1.25122c-.00219.03931-.00244.07837-.00122.11768v7.719a1.234,1.234,0,0,0,2.46289,0v-3.43408c0-.3,0-.6001-.00708-.885l2.78394,4.512a1.674,1.674,0,0,0,1.53491.96607,1.3139,1.3139,0,0,0,1.37085-1.25464,1.34286,1.34286,0,0,0-.002-.15039v-7.68506a1.142,1.142,0,0,0-1.12427-1.15942C312.59716,401.76174,312.56346,401.76272,312.52977,401.76516Z" fill="#222"/>
        </g>
        <g id="bbbd6f39-401b-48ed-87df-489d35dcd486" data-name="グループ 43">
          <path id="aa910a0c-5413-458b-8a58-279542e75a19" data-name="長方形 24" d="M264.78491,2V548h-17.677V2h17.677m2-2h-21.677V550h21.677V0Z" fill="#222"/>
        </g>
        <g id="ad68e2c9-742b-4646-9798-73f7e3ce30a8" data-name="グループ 44">
          <path id="efb3caef-63bb-4dee-9772-a20c040366ef" data-name="パス 77" d="M291.98876,82.24807a10.23876,10.23876,0,0,0-.1001-1.83789h1.821a9.82739,9.82739,0,0,0-.10009,1.83789v1.407h1.666v-.8999a10.96349,10.96349,0,0,0-.08691-1.62793h1.78393a9.88945,9.88945,0,0,0-.08691,1.62793v.8999h.416a10.81675,10.81675,0,0,0,1.405-.09106v2.011a6.54666,6.54666,0,0,0-1.405-.1001h-.416v.364a5.9459,5.9459,0,0,0,.08691,1.24707h-1.333a12.26927,12.26927,0,0,0,2.373,1.1289l-.918,1.541a10.68443,10.68443,0,0,0,1.10694-.06689c-.032.467-.04907.813-.04907,1.52392v2.772a7.0962,7.0962,0,0,0,.08691,1.417l-1.2.81689a5.71318,5.71318,0,0,0-.69312-.28c-.24-.1001-1.41992-.58691-1.88794-.77808-.08691-.03491-.468-.208-1.075-.48388-.24292-.1001-.623-.2771-1.12793-.48511a8.84641,8.84641,0,0,1-2.373,1.47412,5.60826,5.60826,0,0,1-2.18311.481,2.40027,2.40027,0,0,1-2.532-1.3999,5.66235,5.66235,0,0,1-.2771-2.35791,4.00616,4.00616,0,0,0,1.92212-.46607c-.032.53809-.05.70606-.05.91895,0,.98706.2771,1.383.9541,1.383a5.885,5.885,0,0,0,1.67993-.241,6.13936,6.13936,0,0,0,2.7-1.73609,25.14888,25.14888,0,0,0,4.385,1.78907V91.59377H285.00731a22.92856,22.92856,0,0,0-2.356.1001V89.649a17.73733,17.73733,0,0,0,2.39112.106h11.8c-.2251-.13794-.26-.156-.521-.30005a21.01841,21.01841,0,0,1-2.738-1.76391v.156a10.955,10.955,0,0,0,.08692,1.39991h-1.75073a14.87823,14.87823,0,0,0,.06689-1.68189v-1.249a16.96433,16.96433,0,0,1-1.3-1.283V87.0801a9.48247,9.48247,0,0,0,.06909,1.42212c-.468-.03491-.81494-.052-1.855-.052h-4.125a16.05938,16.05938,0,0,0-1.78393.06909v-1.821h.60693v-2.927h-.8999v-1.875a12.51786,12.51786,0,0,0,1.92407.106h3.58594c-.312-.416-.449-.63892-.813-1.19409a4.6839,4.6839,0,0,0,1.68091-.9729,17.42362,17.42362,0,0,0,2.91089,4.229Zm-6.89991,1.50708v2.948H286.511v-2.948Zm2.824,0v2.948h1.353v-2.948Zm5.686,1.87695a14.49272,14.49272,0,0,0,1.62793,1.22705,5.85927,5.85927,0,0,0,.03809-.812v-.55493h-1.666Z" fill="#222"/>
          <path id="ad2303c5-1654-4dc0-adbc-d252a335e052" data-name="パス 78" d="M292.04369,97.74611a7.24526,7.24526,0,0,0-.08911,1.38306v1.26611a7.31729,7.31729,0,0,0,.08911,1.333,13.65859,13.65859,0,0,0-1.89307-.084h-3.56811a2.46589,2.46589,0,0,0-1.145,1.21606,11.47244,11.47244,0,0,0-.53491,4.521,49.78055,49.78055,0,0,0,.364,6.447,6.07776,6.07776,0,0,0-2.029-.57007c-.08594-3.1001-.124-4.645-.124-5.94409a13.33876,13.33876,0,0,1,.53711-4.769,4.28573,4.28573,0,0,1,1.405-1.83594,13.8251,13.8251,0,0,1-1.68188-1.977,4.8916,4.8916,0,0,0-.39991-.48389l1.958-.86694a8.90909,8.90909,0,0,0,1.68189,2.47607h3.63989v-.937a6.66893,6.66893,0,0,0-.08594-1.175Zm4.74707,7.26a7.51833,7.51833,0,0,0,1.42212-.937l.53589,1.68189a11.50727,11.50727,0,0,1-1.958,1.18188v1.52393a9.82508,9.82508,0,0,0,1.94092,1.093l-.45093,1.853c-.519-.312-1.10791-.69409-1.49-.95093v1.0879a11.273,11.273,0,0,0,.1001,1.719H295.158c.05-.53809.06689-1.092.06689-1.719v-2.927c-.43091-.208-.58691-.279-.88208-.436v2.5a10.38384,10.38384,0,0,0,.06909,1.5581,14.78128,14.78128,0,0,0-1.647-.06689h-5.1311a12.43615,12.43615,0,0,0-1.68091.084c.01806-.572.03491-.8999.03491-1.333v-6.032c0-.533-.01807-.91211-.03491-1.60888.3999.03491,1.05591.052,1.647.052h5.18189c.572,0,1.21289-.03394,1.6101-.06909-.032.3999-.04907.8999-.04907,1.68188v1.3a6.71889,6.71889,0,0,0,.88208.417v-2.54907a15.59576,15.59576,0,0,0-.06689-1.73193h1.73291a11.171,11.171,0,0,0-.1001,1.78589Zm-9.30591.03394v5.34009h.937v-5.34009Zm2.23511.01807v5.354h.91894v-5.354Zm2.219,0v5.354h.93506v-5.354Zm6.41309-5.979A18.72567,18.72567,0,0,1,295.23,102.042l-1.333-1.42212a17.38093,17.38093,0,0,0,3.20605-2.926Z" fill="#222"/>
          <path id="eaa8809a-9937-4888-b375-2740aed540ed" data-name="パス 79" d="M287.48363,122.034a2.38249,2.38249,0,0,0-1.00488.52,2.62555,2.62555,0,0,0-.885,2.133,2.68913,2.68913,0,0,0,2.52563,2.843,2.662,2.662,0,0,0,.33325-.001,2.58569,2.58569,0,0,0,2.791-2.72192,3.04836,3.04836,0,0,0-.80005-2.146,1.9709,1.9709,0,0,0-.78-.523l.208-2.167c1.231.1731,1.31811.19092,1.8.22608l4.3.3999c.314.019.8999.054,1.769.072-.03491.52-.052.91895-.052,1.835v4.26392a13.254,13.254,0,0,0,.13794,2.41089h-2.18189a17.04583,17.04583,0,0,0,.136-2.39307v-4.073l-3.031-.28q-.21166-.02563-.728-.1001a4.2567,4.2567,0,0,1,1.0559,2.96289,4.44518,4.44518,0,0,1-1.3,3.37989,4.25,4.25,0,0,1-3.25806,1.231c-3.05,0-4.93994-1.99194-4.93994-5.21606a5.07591,5.07591,0,0,1,1.509-3.9541,5.12817,5.12817,0,0,1,1.88989-1.092Z" fill="#222"/>
          <path id="bfed58b3-4fdf-4049-a6a4-999b579cc34a" data-name="パス 80" d="M285.02172,133.5a4.90277,4.90277,0,0,1,1.75195-1.144,11.64283,11.64283,0,0,1,3.98608-.67212,10.23059,10.23059,0,0,1,4.8,1.05395,4.93224,4.93224,0,0,1,2.408,4.41993,5.03542,5.03542,0,0,1-1.3999,3.65893,4.843,4.843,0,0,1-1.749,1.14209,11.60537,11.60537,0,0,1-4.023.677,9.12157,9.12157,0,0,1-5.12989-1.281,4.92216,4.92216,0,0,1-2.043-4.21411A4.99,4.99,0,0,1,285.02172,133.5Zm1.333,5.52808c.815.781,2.42994,1.21606,4.457,1.21606a6.7284,6.7284,0,0,0,4.438-1.21606,2.50063,2.50063,0,0,0,.72608-1.88794,2.32685,2.32685,0,0,0-.88306-1.938,6.4444,6.4444,0,0,0-4.21411-1.147,7.79041,7.79041,0,0,0-4.123.885,2.76193,2.76193,0,0,0-.3999,4.08789Z" fill="#222"/>
          <path id="b4f836b2-7eb3-44c8-a7c6-8f1fabf12832" data-name="パス 81" d="M287.65453,146.522a2.23849,2.23849,0,0,0-1.41895.813,3.272,3.272,0,0,0-.677,2.1001c0,1.71509.884,2.80688,2.252,2.80688a2.02089,2.02089,0,0,0,1.821-.969,4.50181,4.50181,0,0,0,.417-1.9939,14.74271,14.74271,0,0,0-.08691-1.854h2.1499a11.81318,11.81318,0,0,0-.08691,1.67993c0,1.73193.8,2.75488,2.1311,2.75488,1.2,0,1.87012-.81689,1.87012-2.28393a2.889,2.889,0,0,0-.53711-1.89307,2.53479,2.53479,0,0,0-1.333-.728l.416-2.478a4.287,4.287,0,0,1,2.478,1.64795,5.62771,5.62771,0,0,1,.9541,3.3999c0,2.8999-1.45507,4.769-3.708,4.769a3.15639,3.15639,0,0,1-2.54712-1.19409,4.33574,4.33574,0,0,1-.679-1.687,3.64306,3.64306,0,0,1-1.15991,2.48193,3.32341,3.32341,0,0,1-2.39111.83008,3.67344,3.67344,0,0,1-2.52906-1.03906,5.97911,5.97911,0,0,1-1.407-4.26392,5.41358,5.41358,0,0,1,1.647-4.3999,4.588,4.588,0,0,1,1.94-.969Z" fill="#222"/>
          <path id="aa523c69-71c9-4cfd-8556-255507fda2eb" data-name="パス 82" d="M290.41381,162.76906a15.69343,15.69343,0,0,0-.1001-2.012h1.87109a15.388,15.388,0,0,0-.1001,2.02588V174.572a15.92437,15.92437,0,0,0,.1001,2.044h-1.87109a15.66286,15.66286,0,0,0,.1001-2.044v-7.8c-.60694-.262-.815-.34594-1.26392-.56909v6.531a14.85722,14.85722,0,0,0,.06689,1.78711c-.10009-.01612-.364-.054-1.10888-.13892-2.5-.3-3.84595-.62305-4.41992-1.093-.65894-.53808-.8501-1.19409-.8501-3.01489,0-.8999.03711-1.561.1001-2.61694a4.45271,4.45271,0,0,0,1.855-.468c-.13794,1.177-.24292,2.44311-.24292,3.06909,0,.846.10009,1.228.364,1.43506a6.323,6.323,0,0,0,2.634.627v-6.9519c-.4309-.24292-.656-.38208-1.3-.8l.37891-2.0791a17.08859,17.08859,0,0,0,3.781,2.2Zm6.3601.188a12.21165,12.21165,0,0,0,1.439-.06689,16.42364,16.42364,0,0,0-.08692,1.957v7.646a13.55215,13.55215,0,0,0,.08692,1.9729,11.8044,11.8044,0,0,0-1.439-.06689h-2.25219a12.40276,12.40276,0,0,0-1.4751.06689,15.56467,15.56467,0,0,0,.06909-1.782v-8.01a16.05938,16.05938,0,0,0-.06909-1.78393,12.66549,12.66549,0,0,0,1.4751.06689Zm-.27807,1.855H294.7119V172.492h1.78394Z" fill="#222"/>
        </g>
        <g id="a897221c-5b63-4c72-ad9f-e40b8368dc54" data-name="パス 83">
          <path d="M204.24658,188.271l-12.624-6.63648-.93066-.48925-.93066.48925-12.624,6.63648,2.41114-14.05713.17773-1.03638-.75293-.73388-10.21265-9.95459,14.114-2.051,1.04052-.15137.46534-.94287,6.31152-12.78906,6.312,12.78931.46533.94287,1.04053.15112,14.114,2.051-10.21264,9.95459-.75293.73388.17773,1.03638Z" fill="#fff"/>
          <path d="M190.69189,151.07377l-4.51807,9.15528-.93066,1.88574-2.08106.30249-10.10376,1.46826,7.3108,7.12573,1.50586,1.468-.35547,2.07276-1.72608,10.063,9.03711-4.75073,1.86133-.97851,1.86133.97851,9.03735,4.751-1.72583-10.06348-.35547-2.07251,1.50586-1.468,7.31079-7.12573-10.10376-1.46826-2.08105-.30249-.93067-1.88574-4.51855-9.15528m0-9.03833,8.10547,16.42334,18.12451,2.63379-13.11475,12.78321,3.09571,18.05127-16.21094-8.52222L174.481,191.92705l3.09619-18.05127L164.4624,161.09257l18.12451-2.63379Z" fill="#222"/>
        </g>
        <g id="a569cfaf-41fa-4373-b1d2-17e7178b43ee" data-name="グループ 45">
          <path id="a08cbabc-f0a2-4c2f-a5d5-7601428e0f86" data-name="パス 84" d="M222.17992,213.01931H106.74779a6.51,6.51,0,0,1-6.5-6.5V66.3633a6.51,6.51,0,0,1,6.5-6.5H222.17968a6.51005,6.51005,0,0,1,6.5,6.5V206.5154A6.50989,6.50989,0,0,1,222.17992,213.01931ZM106.748,64.19533a2.169,2.169,0,0,0-2.167,2.168V206.5154a2.169,2.169,0,0,0,2.167,2.168H222.17992a2.16894,2.16894,0,0,0,2.167-2.168V66.3633a2.16894,2.16894,0,0,0-2.167-2.168Z" fill="#222"/>
        </g>
        <g id="e43b803e-3f51-4b6a-a092-036d2c847bf4" data-name="グループ 48">
          <rect id="b9a073ac-8b62-4be2-b184-6b371f05a6c5" data-name="長方形 25" x="17.80687" y="77.26516" width="169.209" height="51.703" rx="0.715"/>
          <g id="ec1c7ee0-bf7d-4fab-8b94-277bc92059f3" data-name="グループ 46">
            <path id="ab7b9262-448f-4ab4-9d59-ac03b11d53a1" data-name="パス 85" d="M39.82373,89.618a.94327.94327,0,0,0-.03906-.12793c-.18409-.353-.36207-.71093-.561-1.0581a4.12608,4.12608,0,0,1-.45288-1.218,1.81736,1.81736,0,0,1,.134-1.30688,1.38737,1.38737,0,0,1,.98291-.783,3.38727,3.38727,0,0,1,2.10791.2749,3.54675,3.54675,0,0,1,1.333,1.0271c.19312.269.3999.5271.5791.80908a.352.352,0,0,0,.3999.175,7.39208,7.39208,0,0,1,1.14893-.13794,3.98388,3.98388,0,0,1,1.96606.51807c.345.2.7.38794,1.05591.56592a1.29994,1.29994,0,0,0,1.16211.031c.66309-.30591,1.322-.62305,1.981-.93506.6001-.28393,1.189-.57593,1.79394-.843.34107-.14991.7-.25293,1.054-.384.23608-.08911.46094-.2.7-.279.52905-.17993,1.05811-.35791,1.6001-.51392.373-.10888.75488-.186,1.137-.262a9.18314,9.18314,0,0,1,2.53394-.1001,4.1,4.1,0,0,1,2.874,1.563,7.23148,7.23148,0,0,1,.614.95288,1.085,1.085,0,0,1,.0149.967A1.94243,1.94243,0,0,1,62.77929,89.735a5.82627,5.82627,0,0,1-2.10888.35693,9.18434,9.18434,0,0,0-1.769.189,5.52187,5.52187,0,0,0-1.26.418,1.4121,1.4121,0,0,0-.7,1.03394c-.01.239.03.31909.26709.364.38208.072.76807.126,1.15308.18189.655.1001,1.312.18188,1.96606.28906a7.50392,7.50392,0,0,1,1.03589.2229,3.357,3.357,0,0,1,1.84693,1.23511,2.42224,2.42224,0,0,1,.425,1.07593c.06689.488.168.97094.21606,1.459.06494.6499.1001,1.3.12988,1.957.01294.24805.08911.479.08008.73706-.043,1.156-.0459,2.313-.062,3.471,0,.125,0,.25293-.00708.37891-.052,1.019-.084,2.04-.167,3.05688-.05591.68311-.18189,1.35889-.28809,2.03809a12.70484,12.70484,0,0,1-.25293,1.41894c-.1831.67212-.405,1.333-.64209,1.99-.11108.312-.154.3-.49194.26-.26294-.032-.52393-.041-.78711-.072-.282-.032-.563-.093-.8479-.115a9.63076,9.63076,0,0,0-1.916-.06689c-.3811.04589-.77807-.043-1.166-.02393-.594.029-1.186.1001-1.77808.1499a11.9928,11.9928,0,0,0-2.0271.385.43012.43012,0,0,1-.19995.02808c-.34912-.08008-.544.165-.80005.345a1.0996,1.0996,0,0,0,.57691.366c.40795.106.82006.2,1.231.293a3.44728,3.44728,0,0,0,.408.0691c.522.05,1.04712.10009,1.572.135.57007.03808,1.145.06006,1.717.095.845.05,1.688.134,2.53394.147a9.19149,9.19149,0,0,1,1.4939.19995,5.72361,5.72361,0,0,1,1.7771.58911.49108.49108,0,0,1,.269.377,2.91985,2.91985,0,0,1-.54,2.4331,2.08412,2.08412,0,0,1-.583.45288,4.57751,4.57751,0,0,1-1.7771.6001,18.4221,18.4221,0,0,1-1.925.072,16.82053,16.82053,0,0,1-2.73095-.25c-.6521-.11206-1.31592-.177-1.968-.292s-1.3-.271-1.94507-.40894c-.436-.092-.874-.176-1.31006-.27807-.522-.1211-1.04-.25806-1.561-.39209-.25489-.06494-.509-.12989-.761-.20606-.73193-.219-1.468-.43408-2.2-.66992a.45906.45906,0,0,0-.54.15991,7.02664,7.02664,0,0,0-1.082,1.7,3.01981,3.01981,0,0,1-.86694,1.127,2.31706,2.31706,0,0,1-1.8.38794,6.53912,6.53912,0,0,1-2.019-.72,6.91108,6.91108,0,0,1-2.592-2.38892,4.00021,4.00021,0,0,1-.67407-2.78491c.04492-.33594.2-.656.2771-.99292a17.582,17.582,0,0,1,.76294-1.875c.19311-.53589.36011-1.08008.51807-1.62793a3.44012,3.44012,0,0,0,.02-1.5c-.05909-.354.06909-.4751.4121-.384s.666.167.991.27808a.43807.43807,0,0,0,.4729-.1001c.2-.17993.209-.31811.03711-.533a1.88464,1.88464,0,0,0-.92993-.54907.39839.39839,0,0,0-.188.00708c-.312-.11889-.56006-.2251-.81494-.30688a4.54534,4.54534,0,0,1-1.00806-.31494,2.63237,2.63237,0,0,1-1.179-1.05591,1.24321,1.24321,0,0,1-.02588-.906,1.2999,1.2999,0,0,1,1.1001-1,14.24679,14.24679,0,0,0,1.47412-.32593,1.35452,1.35452,0,0,0,.843-.54589,1.57056,1.57056,0,0,0,.147-1.16407c-.01489-.10009-.2-.21289-.332-.2539a7.35157,7.35157,0,0,0-1.064-.26807,3.83992,3.83992,0,0,1-1.481-.5249,1.53206,1.53206,0,0,1-.68432-2.05567,1.57187,1.57187,0,0,1,.1084-.18335,1.48089,1.48089,0,0,1,.811-.48706c.3999-.124.821-.19311,1.2251-.31005a8.54578,8.54578,0,0,0,.991-.36011,1.12415,1.12415,0,0,0,.56591-1.064.65282.65282,0,0,0-.61108-.553,2.56645,2.56645,0,0,0-.8.165,4.51369,4.51369,0,0,1-2.04907.3.32257.32257,0,0,1-.219-.137,4.3675,4.3675,0,0,1-.23291-.5271,2.05382,2.05382,0,0,0-.1001-.2561,7.73882,7.73882,0,0,1-.56592-1.67994.288.288,0,0,1,.115-.33593,9.92271,9.92271,0,0,1,.83594-.648c.60693-.384,1.312-.53809,1.927-.886.3-.16992.59106-.34692.88208-.53A2.06464,2.06464,0,0,0,39.82373,89.618Zm13.03711,2.394a14.19194,14.19194,0,0,0-3.0791-.29492,12.6642,12.6642,0,0,0-2.6919.258c-.574.12012-1.114.32691-1.66894.5a6.67765,6.67765,0,0,0-.82593.38794,2.53822,2.53822,0,0,0,.68994.77808,6.12247,6.12247,0,0,0,1.177.6001c.373.13891.73.33007,1.11011.436a6.44024,6.44024,0,0,0,2.30908.2771,3.82443,3.82443,0,0,0,1.48-.375,2.58129,2.58129,0,0,0,1.37012-1.624,2.31816,2.31816,0,0,0,.12964-.94434Zm.02588,17.74707.08007-.043c0-.228.00611-.457,0-.68506-.02587-.7-.072-1.394-.08691-2.092-.01489-.721,0-1.44409,0-2.167,0-.19312-.03711-.38794-.03491-.58106.00708-.581.022-1.16211.03491-1.74194a.09315.09315,0,0,0,0-.03491,2.27329,2.27329,0,0,1-.0481-.87793c-.02294-.615-.02807-1.23291-.073-1.84693a10.88226,10.88226,0,0,0-.178-1.29c-.033-.16894.074-.41406-.137-.5a1.50048,1.50048,0,0,0-.542-.03c-.325,0-.355.02808-.355.353,0,.83692-.041,1.669-.1001,2.5-.04711.709-.05,1.41992-.05908,2.12891-.011.666-.008,1.33105,0,2,.00611.5.01709,1.0061.041,1.509a4.40233,4.40233,0,0,0,.08911.6001c.03393.177.08594.353.134.529a4.326,4.326,0,0,0,.449,1.25488c.167.26.353.50708.53711.75489A2.97818,2.97818,0,0,0,52.88672,109.75914Zm6.33789-2.283a1.47531,1.47531,0,0,0,.14111-.279c.12793-.6399.251-1.2771.3689-1.91895a4.43631,4.43631,0,0,0,.03711-.512c.052-.74292.13208-1.48291.145-2.22608.01611-.779-.01905-1.55908-.05689-2.33691-.03-.6499-.093-1.3-.14893-1.95-.02587-.30591-.085-.60889-.10009-.915a1.42713,1.42713,0,0,0-.15088-.728,1.68467,1.68467,0,0,1-.115-.39306,5.49111,5.49111,0,0,0-.23-.64209.38992.38992,0,0,0-.44092-.19312c-.12793.01294-.18506.07593-.17407.2.02588.262.0769.5249.0769.78711A4.9142,4.9142,0,0,1,58.51,97.93907a.55031.55031,0,0,0,0,.2,4.32222,4.32222,0,0,1,.023.44189,2.5741,2.5741,0,0,0,0,1.07691.7478.7478,0,0,1-.01905.30591c-.009.09106-.02392.18188-.02905.273-.043.87988.03711,1.76294-.041,2.645a14.22175,14.22175,0,0,0,.177,2.844c.03.26807.13891.5271.17993.8a1.94388,1.94388,0,0,0,.42407.95044Zm-13.73194-2.98a1.71842,1.71842,0,0,0,.1001.15991c.34912.425.71094.83789,1.04907,1.272a4.45661,4.45661,0,0,1,1.01905,1.73.48.48,0,0,0,.063.1211,3.38571,3.38571,0,0,1,.386,1.376,9.2847,9.2847,0,0,1-.14111,2.39991c-.06494.333.02.489.34009.57788.187.052.373.11108.55688.16894a1.36437,1.36437,0,0,0,.97095.06909c.2561-.10009.314-.27295.114-.46606a3.89025,3.89025,0,0,1-.509-.68091,3.95491,3.95491,0,0,1-.5-1.259,9.75268,9.75268,0,0,1-.239-1.59107c-.071-.96093-.10009-1.92309-.14892-2.883-.01807-.332-.03491-.66309-.06909-.99292-.03809-.36011-.24512-.55909-.54908-.52-.429.052-.8601.113-1.28491.2-.37988.0813-.75073.20337-1.15771.31836Zm2.55591-6.00708h.019v-.208c-.01294-.458-.06689-.53-.52-.5a8.61531,8.61531,0,0,0-1.7229.23511,2.414,2.414,0,0,0-1.229.76709c-.33789.385-.26.60009.228.76294a1.61067,1.61067,0,0,0,.2.04809c.17993.02808.363.05.542.084.66992.13208,1.34009.271,2.009.3999.27808.052.425-.02808.477-.293a3.90274,3.90274,0,0,0,0-1.292Zm-4.188,9.47607H43.8457v-.1001c0-.61694-.37988-.865-.93506-.62011a.69086.69086,0,0,1-.1001.03393.684.684,0,0,0-.5.43311c-.16894.43408-.35009.865-.48095,1.312a.43993.43993,0,0,0,.5459.572.48606.48606,0,0,1,.47.11694.94163.94163,0,0,0,.42089.2c.3169.071.408-.022.427-.34693s.0559-.65893.08911-.988c.02832-.20582.05444-.40992.07837-.61377Zm12.53394-11.073a1.84267,1.84267,0,0,0,0-.238c-.043-.3501-.178-.4751-.521-.4231a2.50883,2.50883,0,0,0-1.23608.468c-.21607.17309-.228.219-.1001.479a.72646.72646,0,0,1,.052.125c.0669.3.12989.6001.19995.89405a.893.893,0,0,0,.061.2.35312.35312,0,0,0,.61108.10009c.2-.208.374-.4331.57788-.633a1.37108,1.37108,0,0,0,.35547-.9729Zm-1.5,6.95606a.45783.45783,0,0,0,.06689.04712.17874.17874,0,0,0,.0669.02,1.05265,1.05265,0,0,0,.93408-.3899,1.75065,1.75065,0,0,0,.436-1.4851.98828.98828,0,0,0-.386-.666.58088.58088,0,0,0-.60694-.04712,3.09618,3.09618,0,0,0-.57006,1c-.023.041,0,.11206,0,.168.01806.239.043.48.053.718.01636.21191.00831.428.00831.63379Zm-13.77905,9.2c-.2.6521-.395,1.294-.584,1.938-.061.2.011.33105.21192.33105a1.1703,1.1703,0,0,0,.979-.323,5.51827,5.51827,0,0,0,.54394-.979.22318.22318,0,0,0-.09887-.29956l-.00122-.00049c-.228-.1709-.447-.354-.65894-.542a.4004.4004,0,0,0-.3894-.12109Zm14.34008-6.456a1.32638,1.32638,0,0,0-.187,0c-.25488.032-.323.10009-.30493.353.02588.44409.07593.887.106,1.3291.01489.251.19092.34913.3811.43409s.324-.04395.4541-.156a1.7001,1.7001,0,0,0,.5-1.26807.4749.4749,0,0,0-.22705-.46606,1.00009,1.00009,0,0,0-.72-.22217Z" fill="#fff"/>
            <path id="f0d1ceec-8a7d-47a2-a053-7d73c5ed3c89" data-name="パス 86" d="M119.66406,117.732h-.137a8.12307,8.12307,0,0,1-2.239-.27295,2.71857,2.71857,0,0,0-.54907-.03,1.67277,1.67277,0,0,1-.529-.113,6.87819,6.87819,0,0,0-.8999-.176c-.2-.03492-.407-.05591-.6001-.10889-.594-.15991-1.186-.334-1.78-.5a10.18362,10.18362,0,0,1-.991-.282,5.29441,5.29441,0,0,1-.678-.3999c-.44189-.26-.89111-.51392-1.33105-.77808a2.37459,2.37459,0,0,1-.386-.28589c-.523-.48193-1.0581-.94995-1.552-1.459a4.86178,4.86178,0,0,1-.78711-1.03711,7.28617,7.28617,0,0,1-.573-1.38892,7.66068,7.66068,0,0,1-.3-1.44311,6.25961,6.25961,0,0,1,.02588-1.23389c.02808-.31006-.01294-.406-.325-.40894a7.30892,7.30892,0,0,0-1.946.158,5.74865,5.74865,0,0,1-.89112.03394,2.73144,2.73144,0,0,1-1.15088-.145,1.519,1.519,0,0,1-.967-.95093,3.73347,3.73347,0,0,1-.10009-1.43311,1.499,1.499,0,0,1,.23193-.60009c.221-.37305.471-.73.7-1.1001a1.38225,1.38225,0,0,0,.1731-.33594.78789.78789,0,0,1,.53808-.531,13.5045,13.5045,0,0,1,1.87305-.56592c.24512-.052.479-.156.719-.23194.65308-.208,1.32007-.375,1.95411-.633.45288-.18189.925-.251,1.37988-.3999.282-.08912.54907-.22706.82593-.332.813-.31005,1.62793-.61108,2.44091-.91894a.81261.81261,0,0,0,.251-.10791,5.21338,5.21338,0,0,1,1.209-.55493c.25806-.124.51392-.25.77-.375a1.794,1.794,0,0,1,.334-.17407c.61792-.15992,1.11011-.6001,1.71509-.78394a4.05515,4.05515,0,0,1,1.09008-.625c.6001-.333,1.14209-.75391,1.74512-1.073s1.083-.759,1.65088-1.1001a2.04771,2.04771,0,0,0,.3999-.331c.1189-.12207.08594-.252-.063-.33594a.39519.39519,0,0,0-.10009-.03711c-.36011-.061-.718-.145-1.08008-.175a10.021,10.021,0,0,0-1.136,0c-.21509.009-.427.05591-.64209.084a2.10569,2.10569,0,0,1-.30591.02588,6.17287,6.17287,0,0,0-1.46289.165c-.781.17407-1.563.34106-2.354.46191a5.82028,5.82028,0,0,0-.92993.2251.65178.65178,0,0,1-.2.052,8.72046,8.72046,0,0,0-1.62989.36011c-.637.12793-1.283.22509-1.92309.344-.416.07788-.82593.18408-1.2439.251a10.11165,10.11165,0,0,1-1.157.124c-.471.02-.94092.01-1.41406,0a3.03445,3.03445,0,0,1-2.73609-1.60889,2.06684,2.06684,0,0,1-.16308-1.47607c.072-.3269.373-.511.60009-.73291.13306-.125.26905-.2439.40992-.364a.84085.84085,0,0,1,.22192-.15406,5.78009,5.78009,0,0,0,1.478-.92993.63147.63147,0,0,1,.438-.158,1.58379,1.58379,0,0,0,.74292-.10009.62187.62187,0,0,1,.239-.01905,7.79737,7.79737,0,0,0,1.81006-.16308c.2771-.06006.56811-.06006.852-.093a.98355.98355,0,0,0,.3-.05811,2.39905,2.39905,0,0,1,.908-.15991c.48-.0249.9541-.08911,1.43408-.13891a1.24886,1.24886,0,0,0,.134-.02588,12.74513,12.74513,0,0,0,1.5-.115,17.73109,17.73109,0,0,1,2.53809-.1001c.238-.011.47705-.085.71289-.08008a11.78647,11.78647,0,0,1,1.748.1001c.446.07788.88989.04809,1.33105.1001a14.08219,14.08219,0,0,1,2.35791.4331,12.84758,12.84758,0,0,1,2.352.9541,6.13835,6.13835,0,0,1,2.136,1.741,1.0731,1.0731,0,0,1,.323.657.38313.38313,0,0,0,.061.15991,3.43493,3.43493,0,0,1,.321,1.52808,5.20393,5.20393,0,0,1-.35791,1.97705.29883.29883,0,0,0-.03.1001c.02392.592-.39991.94092-.76807,1.281a6.79559,6.79559,0,0,1-1.28491.89991,7.85321,7.85321,0,0,1-1.177.47192c-.46192.17212-.92994.32788-1.394.5a1.85556,1.85556,0,0,0-.24292.125l-1.3.68506a.32318.32318,0,0,0-.08911.052c-.14306.12793-.377.2229-.34912.43311s.269.24707.448.312c.324.12207.644.24292.96509.36889.3811.15088.75195.335,1.145.457a6.99,6.99,0,0,1,1.0791.58911c.57007.291,1.10791.63891,1.66089.96509a.41233.41233,0,0,1,.08691.0559,10.978,10.978,0,0,1,1.9729,2.1001,5.89407,5.89407,0,0,1,.7,1.62793,5.54885,5.54885,0,0,1,.251,1.863,6.54881,6.54881,0,0,1-.34009,2.05493,3.6573,3.6573,0,0,0-.137.38989,3.88506,3.88506,0,0,1-1.021,1.64307,3.12945,3.12945,0,0,0-.23388.29492,1.32053,1.32053,0,0,1-.53711.51611.37834.37834,0,0,0-.13306.10791,4.8465,4.8465,0,0,1-1.69507,1.1189,14.80121,14.80121,0,0,1-1.35693.64209,9.65785,9.65785,0,0,1-2.082.551C120.64209,117.68809,120.12109,117.7191,119.66406,117.732ZM110.687,105.71715a1.23714,1.23714,0,0,0,.72.22094,2.95527,2.95527,0,0,1,.81689.073c.3899.08911.77.217,1.14893.343a8.26982,8.26982,0,0,1,2.333,1.28711,13.94214,13.94214,0,0,1,1.37207,1.24389,3.88308,3.88308,0,0,1,.562.73291c.221.356.407.73.6001,1.1001.08008.14893.14111.31006.21191.46607.061.134.12012.269.18189.3999a1.60475,1.60475,0,0,1,.12011.24512c.082.29492.157.592.228.88794a.339.339,0,0,0,.36255.31372l.01733-.00171a3.12836,3.12836,0,0,0,.84912-.09107,3.24817,3.24817,0,0,0,1.58594-.876c.30908-.30591.58789-.637.87988-.96a2.83876,2.83876,0,0,0,.56592-.97094,3.43317,3.43317,0,0,0,.23194-1.446,3.10014,3.10014,0,0,0-.43994-1.457,4.93465,4.93465,0,0,0-.88794-1.08594,7.39653,7.39653,0,0,0-1.32691-.8999,2.8092,2.8092,0,0,0-1.041-.417c-.043,0-.08008-.043-.1211-.061a4.49631,4.49631,0,0,0-.793-.30493,13.19476,13.19476,0,0,0-1.86206-.271,12.59239,12.59239,0,0,0-3.31689.186,5.5395,5.5395,0,0,0-2.781,1.075A1.39257,1.39257,0,0,0,110.687,105.71715Zm4.687,7.58911a1.72484,1.72484,0,0,0-.093-.356c-.25293-.457-.51611-.90991-.783-1.35889-.3-.5-.60888-.99511-.8999-1.5a10.17675,10.17675,0,0,0-1.262-1.65893.69034.69034,0,0,0-.574-.251c-.3.01294-.60009-.00708-.8999,0a2.00126,2.00126,0,0,0-1.071.314c-.241.165-.512.32788-.52906.67407a2.21182,2.21182,0,0,0,.46192,1.62988,7.524,7.524,0,0,0,1.658,1.50708,13.253,13.253,0,0,0,1.85009.87988.38666.38666,0,0,0,.1001.02808c.3291.03491.657.06909.98609.1001.19506.01709.38794.03906.58105.03906a4.5478,4.5478,0,0,0,.47461-.04761Z" fill="#fff"/>
            <path id="ae39b9d6-9a99-4e2d-87ba-ae2e0616f78a" data-name="パス 87" d="M80.49194,98.89415a2.21133,2.21133,0,0,0-.94092-.011c-.44409.1001-.88989.189-1.333.3-.78588.2-1.56909.416-2.356.61108-.355.08692-.718.146-1.08008.2-.2251.03711-.45508.041-.67993.08008a5.82906,5.82906,0,0,1-2.58789-.145,2.70135,2.70135,0,0,1-1.1001-.60888.82746.82746,0,0,1-.30005-.594,2.04945,2.04945,0,0,1,.4729-1.46289A5.90142,5.90142,0,0,1,72.417,95.84141a28.07293,28.07293,0,0,1,3.71-1.61694c1.387-.53491,2.7749-1.073,4.13794-1.66992,1.05811-.46094,2.12305-.90991,3.21289-1.29.99194-.34693,2.009-.63111,3.02808-.8999a13.359,13.359,0,0,1,3.5249-.511,6.38775,6.38775,0,0,1,2.3.34595,4.60066,4.60066,0,0,1,2.551,2.283,8.06187,8.06187,0,0,1,.39991.989c.083.24194.04809.29492-.19092.39209-.58106.23608-1.179.438-1.74512.70605a7.98086,7.98086,0,0,0-1.448.62012,1.24059,1.24059,0,0,1-.323.11109,26.4609,26.4609,0,0,0-2.49,1.041c-.521.26-1.063.47412-1.594.71094a.33153.33153,0,0,0-.064.02588c-.585.3999-1.262.65893-1.82788,1.075a18.75838,18.75838,0,0,0-1.667,1.106c-.49292.447-1.01.863-1.491,1.32006a6.95135,6.95135,0,0,0-.72706.865,5.99369,5.99369,0,0,0-1.06494,2.2,6.3513,6.3513,0,0,0-.23608,1.656c0,.158-.02808.3169-.032.4751a6.94519,6.94519,0,0,0,.48706,2.74609,5.00819,5.00819,0,0,0,1.219,1.968,3.73089,3.73089,0,0,0,.8999.6001,6.91048,6.91048,0,0,0,1.229.457,6.66546,6.66546,0,0,0,1.00805.124,4.50762,4.50762,0,0,1,.4751.05811,7.317,7.317,0,0,0,1.21.158,5.8804,5.8804,0,0,1,.678.16992c.366.073.73706.145,1.11011.19189a10.44074,10.44074,0,0,1,2.7.61206,3.0334,3.0334,0,0,1,1.67993,1.58912,3.75217,3.75217,0,0,1,.33008,1.25488.513.513,0,0,1-.219.46606,6.17157,6.17157,0,0,1-2.83594,1.32007,10.45877,10.45877,0,0,1-3.66309.1001,13.62142,13.62142,0,0,1-3.3-.91309,12.27026,12.27026,0,0,1-1.89111-.89111q-.62439-.39111-1.21289-.835a11.97036,11.97036,0,0,1-1.07788-.8999,8.84863,8.84863,0,0,1-1.82691-2.563A8.5908,8.5908,0,0,1,76.623,107.41a9.82845,9.82845,0,0,1,.25806-2.043A12.81511,12.81511,0,0,1,78.354,101.724c.33106-.53393.66309-1.06909,1.03589-1.574a11.24137,11.24137,0,0,1,.832-.89991C80.313,99.14634,80.385,99.03135,80.49194,98.89415Z" fill="#fff"/>
            <path id="b2c81043-2f79-4eb8-b752-9ee16620d959" data-name="パス 88" d="M98.11572,101.547a7.59117,7.59117,0,0,1-.1001.8501,2.88164,2.88164,0,0,1-.27295.657.29994.29994,0,0,1-.208.147,2.20711,2.20711,0,0,1-.64405.011,5.4071,5.4071,0,0,1-1.509-.644c-.148-.07911-.148-.18189-.074-.314a2.58373,2.58373,0,0,0,.3-1.35889,2.24459,2.24459,0,0,0-.564-1.3.67.67,0,0,0-.67993-.24292.714.714,0,0,0-.39307.67408,1.16693,1.16693,0,0,0,.1001.425,2.25814,2.25814,0,0,1,.27295,1.2229,3.09418,3.09418,0,0,1-.11109.60009.9.9,0,0,1-1.03.40992,2.36767,2.36767,0,0,1-1.35888-1.13208,10.26432,10.26432,0,0,1-.617-1.522c-.14795-.3999-.269-.8-.417-1.2a2.0536,2.0536,0,0,0-.23608-.3789c-.23609-.354-.16309-.551.258-.627a1.69983,1.69983,0,0,1,1.041.137,6.11,6.11,0,0,0,.824.33593.5257.5257,0,0,0,.353-.05688,3.50032,3.50032,0,0,0,.45606-.30493,2.30984,2.30984,0,0,1,2.033-.25611,2.94655,2.94655,0,0,1,1.563,1.17212,12.70862,12.70862,0,0,1,.75,1.186.63564.63564,0,0,1,.063.23c.01294.06689-.008.1499.02393.2A1.88163,1.88163,0,0,1,98.11572,101.547Z" fill="#fff"/>
          </g>
          <g id="accb3de2-7152-47bc-97ea-c3f48c24a099" data-name="グループ 47">
            <path id="bc1c2fdf-b543-4fbf-9f37-b9685a5b6885" data-name="パス 89" d="M139.16889,112.43124a6.42742,6.42742,0,0,0,.689.029,3.222,3.222,0,0,0-.3-.65894l1.21191-.187h-1.834v4.1001a7.69991,7.69991,0,0,0,.0481,1.105h-1.5149a10.64571,10.64571,0,0,0,.054-1.19995v-4.418a7.17958,7.17958,0,0,0-.03711-.8479,9.29283,9.29283,0,0,0,.958.03711h2.23v-.427h-2.31494a10.87963,10.87963,0,0,0-1.18995.05688v-1.37646a9.78667,9.78667,0,0,0,1.18995.05591h2.31494a3.95746,3.95746,0,0,0-.054-.63306h1.552a3.76827,3.76827,0,0,0-.05493.63306h2.38892a9.5905,9.5905,0,0,0,1.18994-.05591v1.37695a10.70031,10.70031,0,0,0-1.18994-.05688h-2.38892v.427h2.428a6.75678,6.75678,0,0,0,.875-.03711,7.12557,7.12557,0,0,0-.03906.8479v4.231c0,1.10009-.28906,1.34912-1.52393,1.34912-.25195,0-.55688-.009-.89306-.02808a3.5893,3.5893,0,0,0-.31592-1.3291,8.40643,8.40643,0,0,0,.969.06494c.269,0,.334-.04809.334-.24292v-3.636h-1.917l1.19995.187c-.0459.09106-.0459.09106-.158.35107-.0459.093-.083.16895-.15894.30811a7.12133,7.12133,0,0,0,.77393-.02906V113.61c-.26-.01807-.3999-.029-.8-.029h-.82788v.447h.81909a5.08168,5.08168,0,0,0,.7439-.02808v1.18091a5.89292,5.89292,0,0,0-.77393-.02808h-.78906v.325c0,.4939.01709.82007.04492,1.156h-1.468a10.38647,10.38647,0,0,0,.054-1.156v-.325h-.613c-.3999,0-.5481.011-.84692.02808v-1.18091a7.219,7.219,0,0,0,.875.02808h.585v-.447h-.87305a5.66472,5.66472,0,0,0-.65308.029Zm2.428.029a4.39119,4.39119,0,0,0,.345-.846h-1.10009a4.35374,4.35374,0,0,1,.354.846Z" fill="#fff"/>
            <path id="bbbe0f19-ad87-4db8-aec5-656ab5e7fc39" data-name="パス 90" d="M151.47871,111.61215a5.70291,5.70291,0,0,0,1.35693,2.19409,6.68316,6.68316,0,0,0,2.41089,1.51489,6.09459,6.09459,0,0,0-.92993,1.5,7.93492,7.93492,0,0,1-2.075-1.43091,6.527,6.527,0,0,1-1.46094-2.074,5.8382,5.8382,0,0,1-1.061,1.68188,7.04374,7.04374,0,0,1-1.58008,1.332,8.52444,8.52444,0,0,1-.967.49195,6.357,6.357,0,0,0-.89991-1.394,5.87961,5.87961,0,0,0,2.448-1.59106,3.94923,3.94923,0,0,0,1.02295-2.2229h-1.87109a9.09387,9.09387,0,0,0-1.312.05688v-1.56591a10.85488,10.85488,0,0,0,1.3.05688h2c.011-.37305.011-.585.011-.89307a5.50521,5.50521,0,0,0-.06494-1h1.7a8.90672,8.90672,0,0,0-.074,1.572v.31591h2.12011a11.59762,11.59762,0,0,0,1.312-.05688v1.56592a10.4621,10.4621,0,0,0-1.3-.05689Z" fill="#fff"/>
            <path id="e202cc2a-3531-433f-a137-66ac3d7aec93" data-name="パス 91" d="M157.98286,113.71322a13.09768,13.09768,0,0,1-.791,2.32593c-.04809.12207-.167.37207-.354.75195l-1.23706-1.06006a1.75333,1.75333,0,0,0,.251-.334,10.50849,10.50849,0,0,0,.958-2.5Zm-1.54492-3.3291a11.59692,11.59692,0,0,1,1.739,1.144l-.80908,1.18994a11.09187,11.09187,0,0,0-1.739-1.24609Zm.355-2.335a12.39174,12.39174,0,0,1,1.709,1.18188l-.8999,1.16211a10.83762,10.83762,0,0,0-1.69311-1.292Zm5.51489,4.279a4.99712,4.99712,0,0,0,.55689,1.51807,4.77274,4.77274,0,0,0,1.563,1.543,5.9549,5.9549,0,0,0-.95092,1.35693,6.223,6.223,0,0,1-1.78394-2.06592,7.41113,7.41113,0,0,1-.76392-2.35205h-.863a11.31729,11.31729,0,0,1-.373,2.53809,5.74767,5.74767,0,0,1-.958,1.99,4.90074,4.90074,0,0,0-1.2-1.051c.93091-1.292,1.14307-2.36011,1.14307-5.75488,0-.80908-.009-1.18091-.0459-1.647a7.74979,7.74979,0,0,0,1.08789.04809h3.26294a6.56771,6.56771,0,0,0,1.0061-.04809,9.84048,9.84048,0,0,0-.03711,1v1.981a8.693,8.693,0,0,0,.03711.98609,8.446,8.446,0,0,0-.91308-.03711Zm.221-1.2749v-1.33106h-2.426v.4209c0,.333,0,.6001-.02.90991Z" fill="#fff"/>
            <path id="a1382d01-adf4-4eaf-9290-557a7d742039" data-name="パス 92" d="M168.78779,108.53915a2.40671,2.40671,0,0,0-.03711-.48291h1.53491a2.38492,2.38492,0,0,0-.03906.5v.2771h2.03809a10.70364,10.70364,0,0,0,1.312-.05591v1.4331c-.37305-.02807-.87305-.04589-1.283-.04589h-5.24609v.407c0,3.228-.3,4.91308-1.1001,6.27a4.72854,4.72854,0,0,0-1.145-1.16211c.63306-1.136.80908-2.354.80908-5.45,0-.7-.01-1.116-.02588-1.44409.36206.031.762.04711,1.227.04711h1.95288Zm.41895,2.84594a8.28565,8.28565,0,0,0-.03809-1.01489h1.44092c-.019.187-.02808.325-.03589.63306h1.8a8.4104,8.4104,0,0,0,1.052-.04712v1.37695c-.31592-.02807-.66089-.0459-1.0061-.0459h-1.84912v.66993h1.61889a7.02761,7.02761,0,0,0,.854-.03711,8.87441,8.87441,0,0,0-.04493,1.041v1.58106a10.341,10.341,0,0,0,.05689,1.2749h-1.481v-.36206h-2.883v.353h-1.459a9.50766,9.50766,0,0,0,.05591-1.18189V113.755c0-.35108-.011-.6001-.03-.834a7.15878,7.15878,0,0,0,.84692.03711h1.1001Zm-.512,3.78492h2.88306v-.91309h-2.88306Z" fill="#fff"/>
          </g>
        </g>
        <g id="e69a51a1-e8aa-4541-b84c-bc4053c37db9" data-name="グループ 49">
          <path id="bff3c194-536f-46f7-82b1-07bc50edcb05" data-name="パス 93" d="M222.17992,332.15407H83.543a5.4238,5.4238,0,0,1-5.41895-5.41894V232.79006a5.42381,5.42381,0,0,1,5.41895-5.419H222.18505a5.4238,5.4238,0,0,1,5.41894,5.419v93.94507A5.425,5.425,0,0,1,222.17992,332.15407ZM83.543,229.53811a3.256,3.256,0,0,0-3.251,3.252v93.94507a3.256,3.256,0,0,0,3.251,3.25195H222.18505a3.25594,3.25594,0,0,0,3.251-3.25195V232.79006a3.25594,3.25594,0,0,0-3.251-3.252Z" fill="#222"/>
        </g>
        <g id="a3600a23-6112-4ac2-8837-21c00f7c703a" data-name="グループ 50">
          <path id="f91e6ac4-f160-4a68-b3b4-71515c498d92" data-name="パス 94" d="M222.17992,410.06423H83.543a5.42381,5.42381,0,0,1-5.41895-5.41895v-55.8999a5.4238,5.4238,0,0,1,5.41895-5.41894H222.18505a5.42378,5.42378,0,0,1,5.41894,5.41894v55.8999A5.42395,5.42395,0,0,1,222.17992,410.06423ZM83.543,345.49611a3.25418,3.25418,0,0,0-3.251,3.251V404.647a3.25512,3.25512,0,0,0,3.251,3.251H222.18505a3.25511,3.25511,0,0,0,3.251-3.251v-55.8999a3.25418,3.25418,0,0,0-3.251-3.251Z" fill="#222"/>
        </g>
        <g id="a2052274-0df4-4d6a-a915-991d45711485" data-name="グループ 51">
          <path id="b4a86ee4-734b-45e3-acda-5d688bc324b6" data-name="パス 95" d="M68.654,420.146l-24.5,24.5v-3.07788l21.417-21.417Z" fill="#222"/>
          <path id="a6388a3f-54e9-489c-a2ab-e898d05f55a7" data-name="パス 96" d="M94.58007,420.146l-4.335,4.33593-41.751,41.772-4.335,4.335V467.511l4.335-4.33594L87.1892,424.481l4.335-4.33594Z" fill="#222"/>
          <path id="b7ce4252-3f8b-407f-99ac-238b7767f7f3" data-name="パス 97" d="M120.5288,420.146,51.61571,489.0591h-.9541a5.61881,5.61881,0,0,1-1.821-.282l4.053-4.053,60.22-60.241,4.335-4.33593Z" fill="#222"/>
          <path id="af772586-f877-47d7-bf4d-d84043f05cdd" data-name="パス 98" d="M146.47484,420.146,77.56273,489.0591H74.48485L143.39794,420.146Z" fill="#222"/>
          <path id="b7ff9f75-057a-40bf-93b5-7aed30f02956" data-name="パス 99" d="M172.40184,420.146l-4.335,4.33593-60.219,60.241-4.33594,4.335h-3.07788l4.335-4.335,60.241-60.241,4.335-4.33593Z" fill="#222"/>
          <path id="aaaa37d8-ea2d-4bde-bb39-a2d785aa6554" data-name="パス 100" d="M198.35009,420.146l-4.335,4.33593-60.241,60.241-4.335,4.335h-3.0791l68.91308-68.91308Z" fill="#222"/>
          <path id="b8f033ee-f5e2-4111-af16-37a23fe1cef5" data-name="パス 101" d="M223.99413,420.428l-4.053,4.05395-60.22,60.241-4.335,4.335h-3.0791l4.335-4.335,60.241-60.241,4.335-4.33593h.9541A5.61141,5.61141,0,0,1,223.99413,420.428Z" fill="#222"/>
          <path id="a06245a8-bf80-43b8-8d03-5f58f7eb77f0" data-name="パス 102" d="M228.67675,438.615v3.07788l-4.33594,4.335-38.69409,38.69409-4.335,4.335h-3.05689l4.335-4.335,41.75-41.773Z" fill="#222"/>
          <path id="f9dc4bce-ff40-4d0e-9ee7-27630d49ad04" data-name="パス 103" d="M228.67675,464.562v3.07788l-4.33594,4.335-12.7461,12.74707-4.335,4.335h-3.07788Z" fill="#222"/>
        </g>
        <g id="e5aa954c-470d-4f91-be48-2ce3e005bb6d" data-name="グループ 52">
          <path id="b7fc42c0-9b4b-418c-acac-fc7f1c4e2439" data-name="パス 104" d="M222.17968,489.05813H50.6577a6.51005,6.51005,0,0,1-6.5-6.5V426.65822a6.511,6.511,0,0,1,6.5-6.5h171.522a6.511,6.511,0,0,1,6.5,6.5v55.89991A6.51005,6.51005,0,0,1,222.17968,489.05813ZM50.6577,424.49a2.169,2.169,0,0,0-2.167,2.168v55.8999a2.169,2.169,0,0,0,2.167,2.168h171.522a2.169,2.169,0,0,0,2.168-2.168V426.658a2.169,2.169,0,0,0-2.168-2.168Z" fill="#222"/>
        </g>
        <g id="b851be6a-be91-4adb-aedb-c5206d384dca" data-name="グループ 53">
          <path id="a1dc1439-8ad6-4d69-9c2f-d6dffecc755e" data-name="パス 105" d="M127.36083,373.50686a7.89409,7.89409,0,0,0-.0669,1.3999c-.072,2.96509-.53808,4.62793-1.717,6.137a10.04232,10.04232,0,0,1-4.47192,3.12012,6.133,6.133,0,0,0-1.37012-1.97705,7.97932,7.97932,0,0,0,3.03491-1.47412c1.76709-1.39991,2.321-2.894,2.321-6.16895a4.39522,4.39522,0,0,0-.08594-1.041Zm7.03589-2.18311a4.90148,4.90148,0,0,0-.69092,1.21411,11.03058,11.03058,0,0,1-2.66992,3.48291,10.91519,10.91519,0,0,1-2.08008,1.437,5.86016,5.86016,0,0,0-1.561-1.57592,8.012,8.012,0,0,0,2.53-1.595,7.07432,7.07432,0,0,0,1.647-2.2h-9.10009a16.72018,16.72018,0,0,0-2.35791.1001v-2.165a14.12206,14.12206,0,0,0,2.394.136h9.0459a4.83717,4.83717,0,0,0,1.68188-.154Z" fill="#222"/>
          <path id="a18e5a0c-0791-4a93-888a-8a0e8aa14cd6" data-name="パス 106" d="M142.67284,370.71877a2.20462,2.20462,0,0,0-.084.34692l-.03491.29395-.08593.5-.052.417c-.729,4.9751-2.082,8.38892-4.3999,11.05689a7.43226,7.43226,0,0,0-1.9751-1.489,11.71731,11.71731,0,0,0,2.47608-3.69092,21.01637,21.01637,0,0,0,1.62988-5.949,12.70639,12.70639,0,0,0,.158-1.67993v-.241Zm4.925-.43091a21.378,21.378,0,0,0,.728,3.98609,16.80492,16.80492,0,0,0,3.863,7.48706,7.11375,7.11375,0,0,0-1.8999,1.593,22.95091,22.95091,0,0,1-4.594-11.3999,7.341,7.341,0,0,0-.242-1.249Zm4.9209,1.021a2.01055,2.01055,0,1,1,.001,0Zm-3.137,0a1.136,1.136,0,1,0,1.145-1.12695h-.01806a1.123,1.123,0,0,0-1.126,1.12011v.00684Z" fill="#222"/>
          <path id="b99ab2ee-b8be-45de-8399-a1cf591a5ed1" data-name="パス 107" d="M154.09008,375.419a17.10468,17.10468,0,0,0,2.81.12109h9.23706a17.06632,17.06632,0,0,0,2.80689-.12109v2.40795a19.07214,19.07214,0,0,0-2.824-.08593h-9.2a19.11151,19.11151,0,0,0-2.8269.08593Z" fill="#222"/>
          <path id="ea6cba2f-ee51-4617-b30a-1706a714bbf0" data-name="パス 108" d="M174.79491,384.04592a11.79439,11.79439,0,0,0,.1001-1.93994V370.99587a11.61438,11.61438,0,0,0-.1001-1.769H177.166a12.06777,12.06777,0,0,0-.06689,1.821V374.274a50.69475,50.69475,0,0,1,7.8689,3.655l-1.21412,2.04394a41.029,41.029,0,0,0-6.137-3.30688,5.69837,5.69837,0,0,1-.58691-.3,9.285,9.285,0,0,1,.07007,1.17895v4.57788c0,.89991.01709,1.3501.06689,1.9209Z" fill="#222"/>
        </g>
        <g id="b5395a1d-c9e8-4381-9eb4-dbc3ce33f4df" data-name="グループ 54">
          <path id="b36e2997-af91-4c02-b59d-3891634ad09f" data-name="パス 109" d="M114.49779,282.28408a13.25618,13.25618,0,0,1-.5,2.061,9.72632,9.72632,0,0,1-2.0481,3.429,6.65224,6.65224,0,0,0-1.6101-1.593,6.57484,6.57484,0,0,0,1.855-3.052c.521-1.61206.69409-3.637.69409-8.146a24.96467,24.96467,0,0,0-.08691-2.61694,17.53921,17.53921,0,0,0,2.029.084h7.22705a15.61062,15.61062,0,0,0,2.00708-.084,13.4732,13.4732,0,0,0-.084,1.96191v11.22705c0,.8689-.18994,1.37207-.625,1.64795a3.42579,3.42579,0,0,1-2.012.346c-.553,0-1.125-.01807-2.01-.06689a6.245,6.245,0,0,0-.5-1.9419,17.44712,17.44712,0,0,0,2.54712.20606c.52,0,.64111-.085.64111-.46607v-3Zm7.522-1.771v-2.323h-7.175c0,.53711-.03491.91895-.13891,2.323Zm0-4.09009v-2.167h-7.158v2.167Z" fill="#222"/>
          <path id="a9ebd232-9565-4aaf-b627-c479928cf264" data-name="パス 110" d="M132.67089,279.22988c-.156.34912-.208.45288-.27808.62207,0,0-.1001.3-.29395.8999a7.70682,7.70682,0,0,1-.9519-1.87109c0,.14111.01807.26294.01807.332.04907.69409.06689,1.04.06689,1.7v4.78491a14.52946,14.52946,0,0,0,.106,2.011h-1.925a17.50294,17.50294,0,0,0,.1001-2.113v-3.54c0-.53808.03491-1.261.08593-2.114a14.61515,14.61515,0,0,1-1.457,3.625,5.641,5.641,0,0,0-1.02295-1.66309,10.6151,10.6151,0,0,0,1.39991-2.63794,18.59576,18.59576,0,0,0,.86792-2.842h-.572a9.04451,9.04451,0,0,0-1.16308.085v-1.83593a7.04785,7.04785,0,0,0,1.16308.071h.69312v-1.283a10.904,10.904,0,0,0-.1001-1.8h1.925a10.06971,10.06971,0,0,0-.106,1.8v1.283a5.319,5.319,0,0,0,1.04-.071v1.83593a2.68954,2.68954,0,0,0-1.021-.085,7.419,7.419,0,0,0,1.41992,2.6001v-1.9231a7.57471,7.57471,0,0,0-.052-.835,7.017,7.017,0,0,0,.8999.053h1.21094a18.47975,18.47975,0,0,0,1.093-2.34009h-1.67675a18.545,18.545,0,0,0-1.959.08692V272.248a14.12221,14.12221,0,0,0,1.99292.106h7.177a13.37468,13.37468,0,0,0,1.9939-.106v1.821a19.55138,19.55138,0,0,0-1.9939-.08691h-3.623c-.24292.58911-.34693.8-.58911,1.31811h.4851a8.9394,8.9394,0,0,0,1.24707-.052c-.033.625-.033.625-.10009,2.668a33.58249,33.58249,0,0,1-.48291,5.6001,6.5067,6.5067,0,0,0,1.81811-2.02906,15.84975,15.84975,0,0,1-1.177-3.186l1.26392-.78a16.67221,16.67221,0,0,0,.74292,2.269,11.73011,11.73011,0,0,0,.54-2.44189h-1.45507a5.71308,5.71308,0,0,0-.852.052v-1.7a7.60259,7.60259,0,0,0,1.231.06909h1.231a7.94928,7.94928,0,0,0,.9519-.052l.678.936c-.66089,3.03491-.832,3.657-1.407,4.81909a7.80275,7.80275,0,0,0,1.856,1.88794,3.94015,3.94015,0,0,0-.89991,1.5459,9.84025,9.84025,0,0,1-1.821-1.94409,9.01615,9.01615,0,0,1-1.751,1.9939,5.11252,5.11252,0,0,0-.969-1.35108c-.33008,1.22705-.71094,1.50611-2.1499,1.50611-.209,0-.59009-.01709-1.145-.04908a5.24508,5.24508,0,0,0-.39991-1.6831,10.30134,10.30134,0,0,0,1.57593.19092c.521,0,.55493-.072.7461-1.4939a41.09234,41.09234,0,0,0,.27807-5.25h-.97094v5.406c0,.24511.01708.45288.03491.76294-.45093-.03394-.553-.03394-.83106-.03394h-1.94092a5.29572,5.29572,0,0,0-.85009.054,12.15678,12.15678,0,0,0,.052-1.32006Zm-.77808,6.12012a13.08253,13.08253,0,0,0,1.88794.10009h7.748a13.27367,13.27367,0,0,0,1.957-.10009v1.83593c-.56909-.05-1.16211-.085-1.9939-.085h-7.728a13.96683,13.96683,0,0,0-1.87109.085Zm2.1311-3.88306h.84912V277.808h-.84912Z" fill="#222"/>
          <path id="b5716f2e-0c4e-4179-9070-469a32c37b61" data-name="パス 111" d="M146.686,282.05507a16.863,16.863,0,0,1-.781,4.8l-1.249-.62207a12.08361,12.08361,0,0,0,.84912-4.438Zm3.58692-2.16406h.86694a8.26717,8.26717,0,0,0,1.36792-.071c-.033.262-.033.43506-.06909,1.1809a27.94311,27.94311,0,0,1-.48291,5.02491c-.332,1.3-.833,1.665-2.28906,1.665-.27808,0-.519-.01709-1.00708-.03492a4.119,4.119,0,0,0-.32691-1.78588,7.87594,7.87594,0,0,0,1.3.17309c.573,0,.76392-.2251.91895-1.11011a18.7487,18.7487,0,0,0,.24-3.55h-4.053c-.468,0-.80005.0149-1.26612.05.052-.53808.071-1.12695.071-1.749V273.9479a17.12229,17.12229,0,0,0-.071-1.719,13.44757,13.44757,0,0,0,1.751.08789h3.467a14.94515,14.94515,0,0,0,1.78589-.08789v1.67993a10.27915,10.27915,0,0,0-1.3-.06689h-.8999V274.9h.64209a7.19963,7.19963,0,0,0,1.15991-.072v1.5459a7.58469,7.58469,0,0,0-1.15991-.072h-.64209v1.041h.64209a7.0339,7.0339,0,0,0,1.15991-.0669v1.55811a7.94237,7.94237,0,0,0-1.15991-.0669h-.64209Zm-2.39112,2.04395a30.2528,30.2528,0,0,1,.19092,3.20605c0,.2229,0,.573-.01806,1.02588l-1.16211.1731a22.03967,22.03967,0,0,0,.10009-2.35791c0-.76294-.01489-1.093-.06689-1.90992Zm.8-8.094h-1.47412v1.05811h1.47412Zm0,2.46094h-1.47412v1.041h1.47412Zm-1.47412,2.46509v1.125h1.47412v-1.125Zm1.769,3.06494a20.33173,20.33173,0,0,1,.5,3.48389l-.969.27905a20.50029,20.50029,0,0,0-.38208-3.55689Zm1.072-.1189a11.05913,11.05913,0,0,1,.55493,2.49195l-.813.332a14.90291,14.90291,0,0,0-.47-2.5669Zm7.19311-6.677a14.54314,14.54314,0,0,0-3.085-2.04712l1.31812-1.262a19.511,19.511,0,0,1,3.292,2.16406l-1.145,1.145h1.386a12.68231,12.68231,0,0,0,1.751-.1001v1.938c-.53809-.05-1.05591-.085-1.73193-.085h-1.44116v3.08691h1.093a12.17279,12.17279,0,0,0,1.71509-.106V281.715a12.39382,12.39382,0,0,0-1.71509-.106h-1.093v3.77588h1.41992a16.698,16.698,0,0,0,1.94189-.1001v1.957a16.17918,16.17918,0,0,0-1.94189-.1001H154.345a15.55944,15.55944,0,0,0-1.93994.1001v-1.957a16.55754,16.55754,0,0,0,1.93994.1001h1.387V281.609h-.8689a12.24655,12.24655,0,0,0-1.71508.106v-1.94507a11.88684,11.88684,0,0,0,1.7.106h.886V276.787h-1.17895a13.09161,13.09161,0,0,0-1.752.1001v-1.95606a14.89959,14.89959,0,0,0,1.752.1001Z" fill="#222"/>
          <path id="f12aaae7-fedf-4db8-bb2c-ce1a07ff1738" data-name="パス 112" d="M169.157,273.19692a8.20509,8.20509,0,0,0-.124-1.489h2.133a8.24933,8.24933,0,0,0-.12207,1.489v.106h4.8a11.07483,11.07483,0,0,0,2.012-.124v1.856a16.4084,16.4084,0,0,0-1.96191-.1001H171.043v1.022h3.5a12.91666,12.91666,0,0,0,1.926-.085,15.36191,15.36191,0,0,0-.06909,1.76392v3.24292a15.54241,15.54241,0,0,0,.06909,1.771,12.53265,12.53265,0,0,0-1.93994-.08911H171.043v1.07592h4.938a10.85692,10.85692,0,0,0,1.9939-.124v1.88794a15.74957,15.74957,0,0,0-2.0271-.1001h-4.906v.449a12.06829,12.06829,0,0,0,.12207,1.96191h-2.13306a12.38088,12.38088,0,0,0,.124-1.96191v-.449h-4.679a15.70716,15.70716,0,0,0-2.03.1001v-1.88794a11.23645,11.23645,0,0,0,1.99194.124h4.717v-1.07592h-3.24292a12.76624,12.76624,0,0,0-1.958.08911,16.5601,16.5601,0,0,0,.07006-1.771v-3.22192a16.70731,16.70731,0,0,0-.07006-1.78589,12.74245,12.74245,0,0,0,1.90795.085h3.292v-1.022h-4.66309a16.54961,16.54961,0,0,0-1.958.10009v-1.85791a12.09962,12.09962,0,0,0,2.011.124h4.61011Zm-3.2771,4.3v1.03589h3.2771V277.497Zm0,2.458V281.015h3.2771V279.955Zm8.666-1.42212V277.497h-3.5v1.03589Zm0,2.48193v-1.06006h-3.5v1.06006Z" fill="#222"/>
          <path id="eb4207a3-4999-4c26-9a88-25b2110073a4" data-name="パス 113" d="M186.58275,282.36977a9.86821,9.86821,0,0,1-2.1311,1.47095,4.03257,4.03257,0,0,0-.65894-.91895,32.1382,32.1382,0,0,1-3.449,1.82105,2.33214,2.33214,0,0,1-.2251.14111.71152.71152,0,0,0-.1709.085l-.436-2.03a12.26406,12.26406,0,0,0,1.959-.69409v-4.58911h-.5a8.73926,8.73926,0,0,0-1.353.085v-1.856a7.78459,7.78459,0,0,0,1.3711.084h.4851v-2.146a13.67146,13.67146,0,0,0-.10009-1.925h2.012a11.6059,11.6059,0,0,0-.1001,1.9419v2.1289h.311a7.39988,7.39988,0,0,0,1.23-.06689v1.821a9.40871,9.40871,0,0,0-1.21289-.06689h-.32788v3.727c.468-.24707.60009-.332,1.15991-.644v1.2a6.80667,6.80667,0,0,0,2.063-1.751h-.38306a11.57886,11.57886,0,0,0-1.61108.08911v-1.73608a9.37006,9.37006,0,0,0,1.6311.08911h7.574a11.12489,11.12489,0,0,0,1.8-.106v1.73609a16.36161,16.36161,0,0,0-1.78393-.07105h-5.3a6.37548,6.37548,0,0,1-.468.71094h5.512c.8501,0,1.17994-.01709,1.67994-.052-.033.2749-.052.5-.0691,1.021a15.07959,15.07959,0,0,1-.709,4.71705c-.34692.8-.8999,1.021-2.428,1.021-.469,0-.78-.01709-1.45508-.052a4.24169,4.24169,0,0,0-.468-1.6001,12.42791,12.42791,0,0,1-2.85889,1.90991,4.72756,4.72756,0,0,0-1.249-1.31811,10.59977,10.59977,0,0,0,3.15405-1.87109,7.80849,7.80849,0,0,0,1.8-2.30591h-1.04a10.47191,10.47191,0,0,1-4.8,3.8,4.32064,4.32064,0,0,0-1.10791-1.323,8.95824,8.95824,0,0,0,4.019-2.4751Zm.521-4.47192a13.016,13.016,0,0,0-1.594.06689,15.94536,15.94536,0,0,0,.07007-1.67993v-2.532a13.98023,13.98023,0,0,0-.07007-1.57593,12.21167,12.21167,0,0,0,1.752.08594h5.042a13.0174,13.0174,0,0,0,1.853-.08594,14.73426,14.73426,0,0,0-.0669,1.71509v2.39306a14.14478,14.14478,0,0,0,.0669,1.665c-.364-.03491-.88208-.052-1.57593-.052Zm.26-3.377h4.905v-.728h-4.907Zm0,1.9729h4.905v-.71093h-4.907Zm5.28711,5.877a9.70685,9.70685,0,0,1-2.426,3.395,11.809,11.809,0,0,0,1.78491.13794c.64112,0,.832-.17408.988-.917a20.94213,20.94213,0,0,0,.29492-2.615Z" fill="#222"/>
        </g>
        <g id="f37989e8-2727-4b3f-9d3a-b0a88a9f554d" data-name="パス 114">
          <path d="M174.91486,412.84008c0,22.18091-26.408,44.79492-26.408,44.79492s-26.407-22.614-26.407-44.79492a26.40747,26.40747,0,0,1,52.81494,0Z" fill="#06c"/>
          <path d="M148.50659,458.95093l-.65039-.55664a110.98381,110.98381,0,0,1-13.33984-14.22266c-6.12012-7.81152-13.416-19.58887-13.416-31.332a27.40722,27.40722,0,1,1,54.81445,0c0,11.74316-7.29589,23.52051-13.417,31.332A110.94839,110.94839,0,0,1,149.157,458.39429Zm.001-71.51856a25.43578,25.43578,0,0,0-25.40723,25.40723c0,19.5332,21.37207,39.80566,25.40625,43.457,4.03418-3.65137,25.4082-23.92383,25.4082-43.457A25.43578,25.43578,0,0,0,148.50757,387.43237Z" fill="#fff"/>
          <path id="ab3fc63f-5c51-494e-8e63-dc46f1900efc" data-name="パス 115" d="M150.31877,402.44317h-6.52906c-3.332,0-5.167,1.8999-5.167,5.34594V426.4312a3.553,3.553,0,0,0,7.1001.02808v-6.154h4.477c5.88989,0,9.5481-3.5,9.5481-9.135C159.748,405.78106,156.13493,402.44317,150.31877,402.44317Zm-4.6001,6.835h4.41992c2.2,0,2.38892.96411,2.38892,1.95092,0,1.676-.625,2.272-2.38892,2.272h-4.41992Z" fill="#fff"/>
        </g>
        <g id="b8d66cbc-a8d8-4cee-984e-76702db5d801" data-name="パス 147">
          <path d="M221.72411,466.82229l-1.5-.86622L199.5,453.989l-1.49976-.866,1.49976-.866L220.22411,440.291l1.5-.86622V449.124h30.241V178H237.48314a4,4,0,0,1,0-8h18.48194a4.00458,4.00458,0,0,1,4,4V453.124a4.00458,4.00458,0,0,1-4,4h-34.241v9.69825Z" fill="#06c"/>
          <path d="M237.48314,171a3,3,0,0,0,0,6h15.48194V450.124h-32.241v-8.967L200,453.12307l20.72412,11.967V456.124h35.241a2.99921,2.99921,0,0,0,3-3V174a2.99922,2.99922,0,0,0-3-3H237.48314m0-2h18.48194a5.00557,5.00557,0,0,1,5,5V453.124a5.00557,5.00557,0,0,1-5,5h-33.241v6.96607a2,2,0,0,1-3.00025,1.73193L199,454.855a1.9998,1.9998,0,0,1,0-3.46387l20.72412-11.96606a1.99978,1.99978,0,0,1,3,1.73193v6.967h28.241V179H237.48314a5,5,0,0,1,0-10Z" fill="#fff"/>
        </g>
      </g>
    </g>
  </g>
</svg>
